<?xml version="1.0" encoding="utf-8" standalone="no"?>
<!DOCTYPE svg PUBLIC "-//W3C//DTD SVG 1.1//EN"
  "http://www.w3.org/Graphics/SVG/1.1/DTD/svg11.dtd">
<svg xmlns:xlink="http://www.w3.org/1999/xlink" width="460.8pt" height="345.6pt" viewBox="0 0 460.8 345.6" xmlns="http://www.w3.org/2000/svg" version="1.1">
 <metadata>
  <rdf:RDF xmlns:dc="http://purl.org/dc/elements/1.1/" xmlns:cc="http://creativecommons.org/ns#" xmlns:rdf="http://www.w3.org/1999/02/22-rdf-syntax-ns#">
   <cc:Work>
    <dc:type rdf:resource="http://purl.org/dc/dcmitype/StillImage"/>
    <dc:date>2022-08-24T12:16:28.265210</dc:date>
    <dc:format>image/svg+xml</dc:format>
    <dc:creator>
     <cc:Agent>
      <dc:title>Matplotlib v3.5.1, https://matplotlib.org/</dc:title>
     </cc:Agent>
    </dc:creator>
   </cc:Work>
  </rdf:RDF>
 </metadata>
 <defs>
  <style type="text/css">*{stroke-linejoin: round; stroke-linecap: butt}</style>
 </defs>
 <g id="figure_1">
  <g id="patch_1">
   <path d="M 0 345.6 
L 460.8 345.6 
L 460.8 0 
L 0 0 
z
" style="fill: #ffffff"/>
  </g>
  <g id="axes_1">
   <g id="patch_2">
    <path d="M 41.917054 150.32 
L 450 150.32 
L 450 26.88 
L 41.917054 26.88 
z
" style="fill: #ffffff"/>
   </g>
   <g id="matplotlib.axis_1">
    <g id="xtick_1">
     <g id="line2d_1">
      <defs>
       <path id="me842173352" d="M 0 0 
L 0 3.5 
" style="stroke: #000000; stroke-width: 0.8"/>
      </defs>
      <g>
       <use xlink:href="#me842173352" x="60.466279" y="150.32" style="stroke: #000000; stroke-width: 0.8"/>
      </g>
     </g>
     <g id="text_1">
      <!-- 0 -->
      <g transform="translate(57.285029 164.918437)scale(0.1 -0.1)">
       <defs>
        <path id="DejaVuSans-30" d="M 2034 4250 
Q 1547 4250 1301 3770 
Q 1056 3291 1056 2328 
Q 1056 1369 1301 889 
Q 1547 409 2034 409 
Q 2525 409 2770 889 
Q 3016 1369 3016 2328 
Q 3016 3291 2770 3770 
Q 2525 4250 2034 4250 
z
M 2034 4750 
Q 2819 4750 3233 4129 
Q 3647 3509 3647 2328 
Q 3647 1150 3233 529 
Q 2819 -91 2034 -91 
Q 1250 -91 836 529 
Q 422 1150 422 2328 
Q 422 3509 836 4129 
Q 1250 4750 2034 4750 
z
" transform="scale(0.015625)"/>
       </defs>
       <use xlink:href="#DejaVuSans-30"/>
      </g>
     </g>
    </g>
    <g id="xtick_2">
     <g id="line2d_2">
      <g>
       <use xlink:href="#me842173352" x="106.955564" y="150.32" style="stroke: #000000; stroke-width: 0.8"/>
      </g>
     </g>
     <g id="text_2">
      <!-- 50 -->
      <g transform="translate(100.593064 164.918437)scale(0.1 -0.1)">
       <defs>
        <path id="DejaVuSans-35" d="M 691 4666 
L 3169 4666 
L 3169 4134 
L 1269 4134 
L 1269 2991 
Q 1406 3038 1543 3061 
Q 1681 3084 1819 3084 
Q 2600 3084 3056 2656 
Q 3513 2228 3513 1497 
Q 3513 744 3044 326 
Q 2575 -91 1722 -91 
Q 1428 -91 1123 -41 
Q 819 9 494 109 
L 494 744 
Q 775 591 1075 516 
Q 1375 441 1709 441 
Q 2250 441 2565 725 
Q 2881 1009 2881 1497 
Q 2881 1984 2565 2268 
Q 2250 2553 1709 2553 
Q 1456 2553 1204 2497 
Q 953 2441 691 2322 
L 691 4666 
z
" transform="scale(0.015625)"/>
       </defs>
       <use xlink:href="#DejaVuSans-35"/>
       <use xlink:href="#DejaVuSans-30" x="63.623047"/>
      </g>
     </g>
    </g>
    <g id="xtick_3">
     <g id="line2d_3">
      <g>
       <use xlink:href="#me842173352" x="153.444849" y="150.32" style="stroke: #000000; stroke-width: 0.8"/>
      </g>
     </g>
     <g id="text_3">
      <!-- 100 -->
      <g transform="translate(143.901099 164.918437)scale(0.1 -0.1)">
       <defs>
        <path id="DejaVuSans-31" d="M 794 531 
L 1825 531 
L 1825 4091 
L 703 3866 
L 703 4441 
L 1819 4666 
L 2450 4666 
L 2450 531 
L 3481 531 
L 3481 0 
L 794 0 
L 794 531 
z
" transform="scale(0.015625)"/>
       </defs>
       <use xlink:href="#DejaVuSans-31"/>
       <use xlink:href="#DejaVuSans-30" x="63.623047"/>
       <use xlink:href="#DejaVuSans-30" x="127.246094"/>
      </g>
     </g>
    </g>
    <g id="xtick_4">
     <g id="line2d_4">
      <g>
       <use xlink:href="#me842173352" x="199.934135" y="150.32" style="stroke: #000000; stroke-width: 0.8"/>
      </g>
     </g>
     <g id="text_4">
      <!-- 150 -->
      <g transform="translate(190.390385 164.918437)scale(0.1 -0.1)">
       <use xlink:href="#DejaVuSans-31"/>
       <use xlink:href="#DejaVuSans-35" x="63.623047"/>
       <use xlink:href="#DejaVuSans-30" x="127.246094"/>
      </g>
     </g>
    </g>
    <g id="xtick_5">
     <g id="line2d_5">
      <g>
       <use xlink:href="#me842173352" x="246.42342" y="150.32" style="stroke: #000000; stroke-width: 0.8"/>
      </g>
     </g>
     <g id="text_5">
      <!-- 200 -->
      <g transform="translate(236.87967 164.918437)scale(0.1 -0.1)">
       <defs>
        <path id="DejaVuSans-32" d="M 1228 531 
L 3431 531 
L 3431 0 
L 469 0 
L 469 531 
Q 828 903 1448 1529 
Q 2069 2156 2228 2338 
Q 2531 2678 2651 2914 
Q 2772 3150 2772 3378 
Q 2772 3750 2511 3984 
Q 2250 4219 1831 4219 
Q 1534 4219 1204 4116 
Q 875 4013 500 3803 
L 500 4441 
Q 881 4594 1212 4672 
Q 1544 4750 1819 4750 
Q 2544 4750 2975 4387 
Q 3406 4025 3406 3419 
Q 3406 3131 3298 2873 
Q 3191 2616 2906 2266 
Q 2828 2175 2409 1742 
Q 1991 1309 1228 531 
z
" transform="scale(0.015625)"/>
       </defs>
       <use xlink:href="#DejaVuSans-32"/>
       <use xlink:href="#DejaVuSans-30" x="63.623047"/>
       <use xlink:href="#DejaVuSans-30" x="127.246094"/>
      </g>
     </g>
    </g>
    <g id="xtick_6">
     <g id="line2d_6">
      <g>
       <use xlink:href="#me842173352" x="292.912705" y="150.32" style="stroke: #000000; stroke-width: 0.8"/>
      </g>
     </g>
     <g id="text_6">
      <!-- 250 -->
      <g transform="translate(283.368955 164.918437)scale(0.1 -0.1)">
       <use xlink:href="#DejaVuSans-32"/>
       <use xlink:href="#DejaVuSans-35" x="63.623047"/>
       <use xlink:href="#DejaVuSans-30" x="127.246094"/>
      </g>
     </g>
    </g>
    <g id="xtick_7">
     <g id="line2d_7">
      <g>
       <use xlink:href="#me842173352" x="339.40199" y="150.32" style="stroke: #000000; stroke-width: 0.8"/>
      </g>
     </g>
     <g id="text_7">
      <!-- 300 -->
      <g transform="translate(329.85824 164.918437)scale(0.1 -0.1)">
       <defs>
        <path id="DejaVuSans-33" d="M 2597 2516 
Q 3050 2419 3304 2112 
Q 3559 1806 3559 1356 
Q 3559 666 3084 287 
Q 2609 -91 1734 -91 
Q 1441 -91 1130 -33 
Q 819 25 488 141 
L 488 750 
Q 750 597 1062 519 
Q 1375 441 1716 441 
Q 2309 441 2620 675 
Q 2931 909 2931 1356 
Q 2931 1769 2642 2001 
Q 2353 2234 1838 2234 
L 1294 2234 
L 1294 2753 
L 1863 2753 
Q 2328 2753 2575 2939 
Q 2822 3125 2822 3475 
Q 2822 3834 2567 4026 
Q 2313 4219 1838 4219 
Q 1578 4219 1281 4162 
Q 984 4106 628 3988 
L 628 4550 
Q 988 4650 1302 4700 
Q 1616 4750 1894 4750 
Q 2613 4750 3031 4423 
Q 3450 4097 3450 3541 
Q 3450 3153 3228 2886 
Q 3006 2619 2597 2516 
z
" transform="scale(0.015625)"/>
       </defs>
       <use xlink:href="#DejaVuSans-33"/>
       <use xlink:href="#DejaVuSans-30" x="63.623047"/>
       <use xlink:href="#DejaVuSans-30" x="127.246094"/>
      </g>
     </g>
    </g>
    <g id="xtick_8">
     <g id="line2d_8">
      <g>
       <use xlink:href="#me842173352" x="385.891276" y="150.32" style="stroke: #000000; stroke-width: 0.8"/>
      </g>
     </g>
     <g id="text_8">
      <!-- 350 -->
      <g transform="translate(376.347526 164.918437)scale(0.1 -0.1)">
       <use xlink:href="#DejaVuSans-33"/>
       <use xlink:href="#DejaVuSans-35" x="63.623047"/>
       <use xlink:href="#DejaVuSans-30" x="127.246094"/>
      </g>
     </g>
    </g>
    <g id="xtick_9">
     <g id="line2d_9">
      <g>
       <use xlink:href="#me842173352" x="432.380561" y="150.32" style="stroke: #000000; stroke-width: 0.8"/>
      </g>
     </g>
     <g id="text_9">
      <!-- 400 -->
      <g transform="translate(422.836811 164.918437)scale(0.1 -0.1)">
       <defs>
        <path id="DejaVuSans-34" d="M 2419 4116 
L 825 1625 
L 2419 1625 
L 2419 4116 
z
M 2253 4666 
L 3047 4666 
L 3047 1625 
L 3713 1625 
L 3713 1100 
L 3047 1100 
L 3047 0 
L 2419 0 
L 2419 1100 
L 313 1100 
L 313 1709 
L 2253 4666 
z
" transform="scale(0.015625)"/>
       </defs>
       <use xlink:href="#DejaVuSans-34"/>
       <use xlink:href="#DejaVuSans-30" x="63.623047"/>
       <use xlink:href="#DejaVuSans-30" x="127.246094"/>
      </g>
     </g>
    </g>
   </g>
   <g id="matplotlib.axis_2">
    <g id="ytick_1">
     <g id="line2d_10">
      <defs>
       <path id="m9bda5c88d3" d="M 0 0 
L -3.5 0 
" style="stroke: #000000; stroke-width: 0.8"/>
      </defs>
      <g>
       <use xlink:href="#m9bda5c88d3" x="41.917054" y="142.297172" style="stroke: #000000; stroke-width: 0.8"/>
      </g>
     </g>
     <g id="text_10">
      <!-- $\mathdefault{10^{-4}}$ -->
      <g transform="translate(11.417054 146.096391)scale(0.1 -0.1)">
       <defs>
        <path id="DejaVuSans-2212" d="M 678 2272 
L 4684 2272 
L 4684 1741 
L 678 1741 
L 678 2272 
z
" transform="scale(0.015625)"/>
       </defs>
       <use xlink:href="#DejaVuSans-31" transform="translate(0 0.684375)"/>
       <use xlink:href="#DejaVuSans-30" transform="translate(63.623047 0.684375)"/>
       <use xlink:href="#DejaVuSans-2212" transform="translate(128.203125 38.965625)scale(0.7)"/>
       <use xlink:href="#DejaVuSans-34" transform="translate(186.855469 38.965625)scale(0.7)"/>
      </g>
     </g>
    </g>
    <g id="ytick_2">
     <g id="line2d_11">
      <g>
       <use xlink:href="#m9bda5c88d3" x="41.917054" y="106.924167" style="stroke: #000000; stroke-width: 0.8"/>
      </g>
     </g>
     <g id="text_11">
      <!-- $\mathdefault{10^{-3}}$ -->
      <g transform="translate(11.417054 110.723386)scale(0.1 -0.1)">
       <use xlink:href="#DejaVuSans-31" transform="translate(0 0.765625)"/>
       <use xlink:href="#DejaVuSans-30" transform="translate(63.623047 0.765625)"/>
       <use xlink:href="#DejaVuSans-2212" transform="translate(128.203125 39.046875)scale(0.7)"/>
       <use xlink:href="#DejaVuSans-33" transform="translate(186.855469 39.046875)scale(0.7)"/>
      </g>
     </g>
    </g>
    <g id="ytick_3">
     <g id="line2d_12">
      <g>
       <use xlink:href="#m9bda5c88d3" x="41.917054" y="71.551163" style="stroke: #000000; stroke-width: 0.8"/>
      </g>
     </g>
     <g id="text_12">
      <!-- $\mathdefault{10^{-2}}$ -->
      <g transform="translate(11.417054 75.350382)scale(0.1 -0.1)">
       <use xlink:href="#DejaVuSans-31" transform="translate(0 0.765625)"/>
       <use xlink:href="#DejaVuSans-30" transform="translate(63.623047 0.765625)"/>
       <use xlink:href="#DejaVuSans-2212" transform="translate(128.203125 39.046875)scale(0.7)"/>
       <use xlink:href="#DejaVuSans-32" transform="translate(186.855469 39.046875)scale(0.7)"/>
      </g>
     </g>
    </g>
    <g id="ytick_4">
     <g id="line2d_13">
      <g>
       <use xlink:href="#m9bda5c88d3" x="41.917054" y="36.178158" style="stroke: #000000; stroke-width: 0.8"/>
      </g>
     </g>
     <g id="text_13">
      <!-- $\mathdefault{10^{-1}}$ -->
      <g transform="translate(11.417054 39.977377)scale(0.1 -0.1)">
       <use xlink:href="#DejaVuSans-31" transform="translate(0 0.684375)"/>
       <use xlink:href="#DejaVuSans-30" transform="translate(63.623047 0.684375)"/>
       <use xlink:href="#DejaVuSans-2212" transform="translate(128.203125 38.965625)scale(0.7)"/>
       <use xlink:href="#DejaVuSans-31" transform="translate(186.855469 38.965625)scale(0.7)"/>
      </g>
     </g>
    </g>
    <g id="ytick_5">
     <g id="line2d_14">
      <defs>
       <path id="md671c6f035" d="M 0 0 
L -2 0 
" style="stroke: #000000; stroke-width: 0.6"/>
      </defs>
      <g>
       <use xlink:href="#md671c6f035" x="41.917054" y="150.144629" style="stroke: #000000; stroke-width: 0.6"/>
      </g>
     </g>
    </g>
    <g id="ytick_6">
     <g id="line2d_15">
      <g>
       <use xlink:href="#md671c6f035" x="41.917054" y="147.77652" style="stroke: #000000; stroke-width: 0.6"/>
      </g>
     </g>
    </g>
    <g id="ytick_7">
     <g id="line2d_16">
      <g>
       <use xlink:href="#md671c6f035" x="41.917054" y="145.72517" style="stroke: #000000; stroke-width: 0.6"/>
      </g>
     </g>
    </g>
    <g id="ytick_8">
     <g id="line2d_17">
      <g>
       <use xlink:href="#md671c6f035" x="41.917054" y="143.915752" style="stroke: #000000; stroke-width: 0.6"/>
      </g>
     </g>
    </g>
    <g id="ytick_9">
     <g id="line2d_18">
      <g>
       <use xlink:href="#md671c6f035" x="41.917054" y="131.648837" style="stroke: #000000; stroke-width: 0.6"/>
      </g>
     </g>
    </g>
    <g id="ytick_10">
     <g id="line2d_19">
      <g>
       <use xlink:href="#md671c6f035" x="41.917054" y="125.41996" style="stroke: #000000; stroke-width: 0.6"/>
      </g>
     </g>
    </g>
    <g id="ytick_11">
     <g id="line2d_20">
      <g>
       <use xlink:href="#md671c6f035" x="41.917054" y="121.000501" style="stroke: #000000; stroke-width: 0.6"/>
      </g>
     </g>
    </g>
    <g id="ytick_12">
     <g id="line2d_21">
      <g>
       <use xlink:href="#md671c6f035" x="41.917054" y="117.572503" style="stroke: #000000; stroke-width: 0.6"/>
      </g>
     </g>
    </g>
    <g id="ytick_13">
     <g id="line2d_22">
      <g>
       <use xlink:href="#md671c6f035" x="41.917054" y="114.771624" style="stroke: #000000; stroke-width: 0.6"/>
      </g>
     </g>
    </g>
    <g id="ytick_14">
     <g id="line2d_23">
      <g>
       <use xlink:href="#md671c6f035" x="41.917054" y="112.403515" style="stroke: #000000; stroke-width: 0.6"/>
      </g>
     </g>
    </g>
    <g id="ytick_15">
     <g id="line2d_24">
      <g>
       <use xlink:href="#md671c6f035" x="41.917054" y="110.352166" style="stroke: #000000; stroke-width: 0.6"/>
      </g>
     </g>
    </g>
    <g id="ytick_16">
     <g id="line2d_25">
      <g>
       <use xlink:href="#md671c6f035" x="41.917054" y="108.542747" style="stroke: #000000; stroke-width: 0.6"/>
      </g>
     </g>
    </g>
    <g id="ytick_17">
     <g id="line2d_26">
      <g>
       <use xlink:href="#md671c6f035" x="41.917054" y="96.275832" style="stroke: #000000; stroke-width: 0.6"/>
      </g>
     </g>
    </g>
    <g id="ytick_18">
     <g id="line2d_27">
      <g>
       <use xlink:href="#md671c6f035" x="41.917054" y="90.046955" style="stroke: #000000; stroke-width: 0.6"/>
      </g>
     </g>
    </g>
    <g id="ytick_19">
     <g id="line2d_28">
      <g>
       <use xlink:href="#md671c6f035" x="41.917054" y="85.627497" style="stroke: #000000; stroke-width: 0.6"/>
      </g>
     </g>
    </g>
    <g id="ytick_20">
     <g id="line2d_29">
      <g>
       <use xlink:href="#md671c6f035" x="41.917054" y="82.199498" style="stroke: #000000; stroke-width: 0.6"/>
      </g>
     </g>
    </g>
    <g id="ytick_21">
     <g id="line2d_30">
      <g>
       <use xlink:href="#md671c6f035" x="41.917054" y="79.39862" style="stroke: #000000; stroke-width: 0.6"/>
      </g>
     </g>
    </g>
    <g id="ytick_22">
     <g id="line2d_31">
      <g>
       <use xlink:href="#md671c6f035" x="41.917054" y="77.030511" style="stroke: #000000; stroke-width: 0.6"/>
      </g>
     </g>
    </g>
    <g id="ytick_23">
     <g id="line2d_32">
      <g>
       <use xlink:href="#md671c6f035" x="41.917054" y="74.979161" style="stroke: #000000; stroke-width: 0.6"/>
      </g>
     </g>
    </g>
    <g id="ytick_24">
     <g id="line2d_33">
      <g>
       <use xlink:href="#md671c6f035" x="41.917054" y="73.169743" style="stroke: #000000; stroke-width: 0.6"/>
      </g>
     </g>
    </g>
    <g id="ytick_25">
     <g id="line2d_34">
      <g>
       <use xlink:href="#md671c6f035" x="41.917054" y="60.902827" style="stroke: #000000; stroke-width: 0.6"/>
      </g>
     </g>
    </g>
    <g id="ytick_26">
     <g id="line2d_35">
      <g>
       <use xlink:href="#md671c6f035" x="41.917054" y="54.673951" style="stroke: #000000; stroke-width: 0.6"/>
      </g>
     </g>
    </g>
    <g id="ytick_27">
     <g id="line2d_36">
      <g>
       <use xlink:href="#md671c6f035" x="41.917054" y="50.254492" style="stroke: #000000; stroke-width: 0.6"/>
      </g>
     </g>
    </g>
    <g id="ytick_28">
     <g id="line2d_37">
      <g>
       <use xlink:href="#md671c6f035" x="41.917054" y="46.826494" style="stroke: #000000; stroke-width: 0.6"/>
      </g>
     </g>
    </g>
    <g id="ytick_29">
     <g id="line2d_38">
      <g>
       <use xlink:href="#md671c6f035" x="41.917054" y="44.025615" style="stroke: #000000; stroke-width: 0.6"/>
      </g>
     </g>
    </g>
    <g id="ytick_30">
     <g id="line2d_39">
      <g>
       <use xlink:href="#md671c6f035" x="41.917054" y="41.657506" style="stroke: #000000; stroke-width: 0.6"/>
      </g>
     </g>
    </g>
    <g id="ytick_31">
     <g id="line2d_40">
      <g>
       <use xlink:href="#md671c6f035" x="41.917054" y="39.606157" style="stroke: #000000; stroke-width: 0.6"/>
      </g>
     </g>
    </g>
    <g id="ytick_32">
     <g id="line2d_41">
      <g>
       <use xlink:href="#md671c6f035" x="41.917054" y="37.796738" style="stroke: #000000; stroke-width: 0.6"/>
      </g>
     </g>
    </g>
   </g>
   <g id="line2d_42">
    <path d="M 60.466279 32.490909 
L 61.396064 73.834952 
L 62.32585 87.882526 
L 63.255636 96.908352 
L 64.185422 103.887343 
L 65.115207 107.837464 
L 66.044993 109.998844 
L 66.974779 111.581665 
L 67.904564 119.05901 
L 68.83435 119.594085 
L 69.764136 120.395844 
L 70.693921 121.508968 
L 71.623707 122.29515 
L 73.483279 123.282043 
L 74.413064 123.597077 
L 75.34285 127.372151 
L 79.061993 128.508716 
L 81.85135 129.150179 
L 82.781136 131.159581 
L 83.710921 131.689066 
L 85.570493 132.097116 
L 86.500278 132.224852 
L 87.430064 132.562267 
L 88.35985 132.721542 
L 89.289636 132.664147 
L 90.219421 133.30064 
L 91.149207 134.231801 
L 92.078993 134.45028 
L 93.008778 134.954973 
L 93.938564 134.933269 
L 94.86835 135.248897 
L 95.798136 135.309126 
L 97.657707 135.869951 
L 98.587493 136.339004 
L 99.517278 136.481481 
L 100.447064 136.742466 
L 102.306635 136.916373 
L 104.166207 137.003461 
L 105.095993 136.082542 
L 106.025778 136.70252 
L 107.88535 137.202448 
L 108.815135 137.23533 
L 109.744921 137.423197 
L 111.604493 137.52654 
L 112.534278 140.465658 
L 113.464064 141.242199 
L 114.39385 141.578906 
L 119.042778 142.179226 
L 119.972564 138.226404 
L 120.90235 139.176112 
L 121.832135 139.497606 
L 123.691707 139.767556 
L 126.481064 139.969299 
L 127.41085 138.806517 
L 128.340635 139.656973 
L 129.270421 139.942436 
L 131.129992 140.225785 
L 134.849135 140.591777 
L 135.778921 141.401415 
L 140.427849 141.981499 
L 141.357635 142.023427 
L 142.287421 136.640648 
L 143.217207 137.134046 
L 145.076778 137.381246 
L 146.006564 137.550019 
L 146.936349 137.522055 
L 147.866135 137.786371 
L 148.795921 137.856282 
L 149.725706 134.840185 
L 150.655492 135.344758 
L 151.585278 135.616918 
L 156.234206 136.220462 
L 157.163992 135.147023 
L 158.093778 135.629951 
L 159.023563 135.575222 
L 159.953349 136.070733 
L 163.672492 136.312428 
L 164.602278 138.278122 
L 165.532063 138.799965 
L 166.461849 139.014476 
L 167.391635 139.362696 
L 168.321421 139.542559 
L 169.251206 139.575079 
L 171.110778 139.875779 
L 172.040563 136.290915 
L 172.970349 136.658987 
L 173.900135 137.201277 
L 174.82992 137.0516 
L 177.619278 137.821936 
L 178.549063 137.800043 
L 179.478849 134.076488 
L 182.268206 134.81059 
L 184.127778 134.685015 
L 185.057563 135.171067 
L 185.987349 135.129049 
L 186.917135 135.760169 
L 187.84692 135.835698 
L 188.776706 135.695666 
L 190.636277 135.824644 
L 192.495849 136.19809 
L 193.425635 136.097007 
L 194.35542 132.618488 
L 195.285206 132.865906 
L 196.214992 132.656022 
L 197.144777 132.849136 
L 198.074563 132.717536 
L 200.86392 133.000612 
L 201.793706 135.273761 
L 202.723492 135.568681 
L 203.653277 135.463338 
L 206.442634 135.83511 
L 207.37242 135.639558 
L 208.302206 135.708013 
L 209.231992 137.063338 
L 210.161777 137.217574 
L 211.091563 137.098167 
L 212.951134 137.214937 
L 213.88092 137.383411 
L 214.810706 137.283515 
L 215.740492 137.38552 
L 216.670277 132.677767 
L 217.600063 132.615887 
L 218.529849 132.726773 
L 219.459634 132.952332 
L 220.38942 132.975217 
L 221.319206 132.83687 
L 222.248991 132.947737 
L 223.178777 133.176219 
L 224.108563 133.670256 
L 227.827706 133.812575 
L 228.757491 134.029611 
L 230.617063 133.868385 
L 231.546849 134.758215 
L 234.336206 134.929916 
L 235.265991 135.116652 
L 236.195777 134.744948 
L 237.125563 135.098871 
L 238.055348 135.199325 
L 238.985134 134.918656 
L 241.774491 135.179722 
L 244.563848 135.176179 
L 245.493634 135.466975 
L 246.42342 132.087654 
L 247.353206 131.859467 
L 248.282991 132.208678 
L 249.212777 132.138228 
L 250.142563 132.214861 
L 252.002134 132.007303 
L 252.93192 132.22582 
L 253.861705 134.753003 
L 256.651063 134.961351 
L 257.580848 134.967634 
L 258.510634 135.114911 
L 259.44042 135.108138 
L 260.370205 135.21762 
L 261.299991 134.838148 
L 262.229777 134.854668 
L 263.159563 135.022307 
L 264.089348 134.715091 
L 265.94892 135.041534 
L 266.878705 134.917354 
L 267.808491 134.910918 
L 268.738277 132.595542 
L 269.668062 132.940589 
L 270.597848 132.587085 
L 271.527634 132.943024 
L 272.45742 132.783571 
L 273.387205 132.989952 
L 275.246777 132.948508 
L 276.176562 133.561031 
L 277.106348 133.847586 
L 278.036134 133.701419 
L 278.965919 133.759852 
L 279.895705 133.698242 
L 281.755277 133.898412 
L 282.685062 133.839532 
L 283.614848 133.60407 
L 284.544634 133.497794 
L 285.474419 133.804257 
L 286.404205 133.52704 
L 288.263777 133.714596 
L 289.193562 133.534201 
L 290.123348 133.76696 
L 291.053134 134.572487 
L 291.982919 134.389848 
L 292.912705 134.547244 
L 293.842491 134.495471 
L 294.772276 134.56087 
L 295.702062 134.90455 
L 296.631848 134.713581 
L 297.561634 134.718626 
L 298.491419 133.697745 
L 301.280776 133.993683 
L 304.999919 133.989096 
L 305.929705 133.531057 
L 308.719062 133.436755 
L 309.648848 133.648451 
L 310.578633 133.489206 
L 311.508419 133.751956 
L 312.438205 133.613736 
L 313.367991 134.315151 
L 314.297776 134.16204 
L 315.227562 134.377298 
L 319.876491 134.448505 
L 320.806276 130.920882 
L 321.736062 130.753834 
L 322.665848 130.973226 
L 323.595633 130.879654 
L 324.525419 131.038752 
L 327.314776 130.953829 
L 328.244562 131.791164 
L 329.174348 132.055038 
L 331.033919 132.039161 
L 331.963705 132.180804 
L 333.823276 131.985555 
L 334.753062 132.054778 
L 335.682848 133.473547 
L 337.542419 133.331966 
L 338.472205 133.575344 
L 340.331776 133.399427 
L 341.261562 133.714541 
L 342.191347 133.60105 
L 343.121133 137.178671 
L 344.980705 137.36538 
L 345.91049 137.576573 
L 347.770062 137.375854 
L 349.629633 137.592692 
L 350.559419 132.508819 
L 352.41899 132.582414 
L 353.348776 132.56705 
L 354.278562 132.813036 
L 355.208347 132.644266 
L 357.067919 132.851226 
L 357.997704 133.307116 
L 358.92749 133.421867 
L 360.787062 133.375418 
L 361.716847 133.605214 
L 362.646633 133.364487 
L 363.576419 133.597082 
L 364.506204 133.66495 
L 365.43599 135.488459 
L 366.365776 135.645737 
L 367.295562 135.43867 
L 368.225347 135.608331 
L 369.155133 135.549376 
L 370.084919 135.722719 
L 371.94449 135.617054 
L 372.874276 133.568109 
L 373.804061 133.533996 
L 374.733847 133.630301 
L 376.593419 133.43298 
L 377.523204 133.561571 
L 379.382776 133.534346 
L 380.312561 131.90272 
L 381.242347 132.0867 
L 382.172133 131.892566 
L 383.101918 132.187677 
L 386.821061 132.063917 
L 387.750847 131.794768 
L 388.680633 132.008537 
L 390.540204 131.90297 
L 391.46999 132.105874 
L 392.399776 131.958683 
L 393.329561 132.09813 
L 394.259347 131.944366 
L 395.189133 133.561126 
L 396.118918 133.76148 
L 397.048704 133.687158 
L 397.97849 133.771071 
L 398.908275 133.69292 
L 399.838061 133.804193 
L 401.697633 133.767002 
L 402.627418 131.895827 
L 406.346561 132.190604 
L 409.135918 132.210932 
L 410.065704 130.897536 
L 412.855061 131.214659 
L 413.784847 131.00703 
L 414.714632 131.22875 
L 415.644418 130.906537 
L 416.574204 131.228888 
L 417.50399 130.592873 
L 418.433775 130.773719 
L 419.363561 130.521465 
L 421.223132 130.773553 
L 422.152918 130.610265 
L 423.082704 130.581522 
L 424.01249 130.684795 
L 424.942275 131.17431 
L 425.872061 130.982525 
L 428.661418 131.177314 
L 431.450775 131.163721 
L 431.450775 131.163721 
" clip-path="url(#pd8d029736c)" style="fill: none; stroke: #1f77b4; stroke-width: 1.5; stroke-linecap: square"/>
   </g>
   <g id="line2d_43">
    <path d="M 60.466279 71.250732 
L 61.396064 86.443874 
L 62.32585 97.214398 
L 63.255636 105.67175 
L 64.185422 111.737332 
L 65.115207 114.901519 
L 66.044993 117.002092 
L 66.974779 118.575147 
L 67.904564 124.321371 
L 68.83435 129.040323 
L 69.764136 130.07762 
L 70.693921 129.923151 
L 71.623707 132.036478 
L 73.483279 133.1077 
L 74.413064 132.202398 
L 75.34285 137.669141 
L 76.272636 138.110132 
L 79.991779 138.988727 
L 81.85135 139.109103 
L 82.781136 140.249571 
L 83.710921 140.822612 
L 84.640707 140.317298 
L 86.500278 140.363501 
L 87.430064 139.913584 
L 89.289636 140.082579 
L 90.219421 142.725489 
L 91.149207 141.893901 
L 92.078993 141.428028 
L 93.008778 138.69687 
L 93.938564 141.276696 
L 94.86835 140.429909 
L 95.798136 140.841604 
L 96.727921 140.396548 
L 97.657707 143.939095 
L 98.587493 143.825869 
L 99.517278 143.501736 
L 100.447064 142.751552 
L 102.306635 143.445444 
L 103.236421 143.271254 
L 104.166207 143.268768 
L 105.095993 143.069957 
L 106.025778 142.417689 
L 106.955564 142.513421 
L 108.815135 141.849471 
L 109.744921 141.633862 
L 110.674707 142.267156 
L 111.604493 141.998578 
L 112.534278 143.198548 
L 113.464064 143.039212 
L 115.323635 142.954848 
L 116.253421 143.177638 
L 118.112992 142.8797 
L 119.042778 142.896312 
L 119.972564 144.678618 
L 121.832135 144.089716 
L 123.691707 143.876079 
L 124.621492 143.687123 
L 126.481064 143.740216 
L 127.41085 144.608385 
L 130.200207 144.090545 
L 132.059778 143.911309 
L 132.989564 143.92106 
L 133.919349 143.803237 
L 134.849135 144.421642 
L 135.778921 143.96938 
L 141.357635 143.64083 
L 142.287421 144.526423 
L 143.217207 144.637395 
L 148.795921 144.489625 
L 149.725706 144.596591 
L 153.444849 144.100248 
L 156.234206 143.912084 
L 157.163992 144.709091 
L 159.023563 144.546485 
L 163.672492 143.827864 
L 164.602278 144.634926 
L 165.532063 144.61222 
L 170.180992 143.927715 
L 171.110778 143.840246 
L 172.040563 144.356076 
L 173.900135 143.947183 
L 176.689492 143.265515 
L 178.549063 143.235127 
L 179.478849 143.348572 
L 181.33842 143.733699 
L 184.127778 143.957013 
L 185.987349 144.013113 
L 186.917135 143.669205 
L 190.636277 143.830352 
L 197.144777 143.826032 
L 200.86392 143.759053 
L 201.793706 143.343978 
L 206.442634 143.305119 
L 208.302206 143.253865 
L 209.231992 143.513828 
L 212.951134 143.654473 
L 215.740492 143.667676 
L 216.670277 143.465774 
L 223.178777 143.408521 
L 224.108563 142.91838 
L 235.265991 142.997402 
L 245.493634 142.976092 
L 246.42342 142.573151 
L 252.93192 142.516971 
L 253.861705 142.83547 
L 259.44042 142.873356 
L 260.370205 142.87159 
L 261.299991 142.675306 
L 267.808491 142.707917 
L 268.738277 142.088602 
L 275.246777 142.093152 
L 276.176562 141.861304 
L 282.685062 141.810288 
L 283.614848 141.39777 
L 290.123348 141.367732 
L 291.053134 142.12672 
L 304.999919 142.071079 
L 305.929705 141.651191 
L 312.438205 141.516252 
L 317.087133 141.607381 
L 319.876491 141.585356 
L 320.806276 141.1102 
L 327.314776 140.997198 
L 328.244562 140.63534 
L 333.823276 140.65908 
L 334.753062 140.651902 
L 335.682848 140.451271 
L 342.191347 140.429979 
L 343.121133 140.727496 
L 347.770062 140.822044 
L 349.629633 140.828884 
L 350.559419 141.065605 
L 357.067919 140.95065 
L 357.997704 140.035184 
L 364.506204 140.050077 
L 365.43599 140.753287 
L 371.014704 140.817566 
L 379.382776 140.806413 
L 380.312561 140.615456 
L 386.821061 140.561897 
L 387.750847 139.866319 
L 394.259347 139.888954 
L 395.189133 140.314538 
L 401.697633 140.306251 
L 402.627418 140.122703 
L 409.135918 139.972794 
L 416.574204 140.013336 
L 417.50399 139.382754 
L 424.01249 139.36536 
L 424.942275 139.148379 
L 431.450775 139.17142 
L 431.450775 139.17142 
" clip-path="url(#pd8d029736c)" style="fill: none; stroke: #ff7f0e; stroke-width: 1.5; stroke-linecap: square"/>
   </g>
   <g id="patch_3">
    <path d="M 41.917054 150.32 
L 41.917054 26.88 
" style="fill: none; stroke: #000000; stroke-width: 0.8; stroke-linejoin: miter; stroke-linecap: square"/>
   </g>
   <g id="patch_4">
    <path d="M 450 150.32 
L 450 26.88 
" style="fill: none; stroke: #000000; stroke-width: 0.8; stroke-linejoin: miter; stroke-linecap: square"/>
   </g>
   <g id="patch_5">
    <path d="M 41.917054 150.32 
L 450 150.32 
" style="fill: none; stroke: #000000; stroke-width: 0.8; stroke-linejoin: miter; stroke-linecap: square"/>
   </g>
   <g id="patch_6">
    <path d="M 41.917054 26.88 
L 450 26.88 
" style="fill: none; stroke: #000000; stroke-width: 0.8; stroke-linejoin: miter; stroke-linecap: square"/>
   </g>
   <g id="text_14">
    <!-- model loss -->
    <g transform="translate(213.778839 20.88)scale(0.12 -0.12)">
     <defs>
      <path id="DejaVuSans-6d" d="M 3328 2828 
Q 3544 3216 3844 3400 
Q 4144 3584 4550 3584 
Q 5097 3584 5394 3201 
Q 5691 2819 5691 2113 
L 5691 0 
L 5113 0 
L 5113 2094 
Q 5113 2597 4934 2840 
Q 4756 3084 4391 3084 
Q 3944 3084 3684 2787 
Q 3425 2491 3425 1978 
L 3425 0 
L 2847 0 
L 2847 2094 
Q 2847 2600 2669 2842 
Q 2491 3084 2119 3084 
Q 1678 3084 1418 2786 
Q 1159 2488 1159 1978 
L 1159 0 
L 581 0 
L 581 3500 
L 1159 3500 
L 1159 2956 
Q 1356 3278 1631 3431 
Q 1906 3584 2284 3584 
Q 2666 3584 2933 3390 
Q 3200 3197 3328 2828 
z
" transform="scale(0.015625)"/>
      <path id="DejaVuSans-6f" d="M 1959 3097 
Q 1497 3097 1228 2736 
Q 959 2375 959 1747 
Q 959 1119 1226 758 
Q 1494 397 1959 397 
Q 2419 397 2687 759 
Q 2956 1122 2956 1747 
Q 2956 2369 2687 2733 
Q 2419 3097 1959 3097 
z
M 1959 3584 
Q 2709 3584 3137 3096 
Q 3566 2609 3566 1747 
Q 3566 888 3137 398 
Q 2709 -91 1959 -91 
Q 1206 -91 779 398 
Q 353 888 353 1747 
Q 353 2609 779 3096 
Q 1206 3584 1959 3584 
z
" transform="scale(0.015625)"/>
      <path id="DejaVuSans-64" d="M 2906 2969 
L 2906 4863 
L 3481 4863 
L 3481 0 
L 2906 0 
L 2906 525 
Q 2725 213 2448 61 
Q 2172 -91 1784 -91 
Q 1150 -91 751 415 
Q 353 922 353 1747 
Q 353 2572 751 3078 
Q 1150 3584 1784 3584 
Q 2172 3584 2448 3432 
Q 2725 3281 2906 2969 
z
M 947 1747 
Q 947 1113 1208 752 
Q 1469 391 1925 391 
Q 2381 391 2643 752 
Q 2906 1113 2906 1747 
Q 2906 2381 2643 2742 
Q 2381 3103 1925 3103 
Q 1469 3103 1208 2742 
Q 947 2381 947 1747 
z
" transform="scale(0.015625)"/>
      <path id="DejaVuSans-65" d="M 3597 1894 
L 3597 1613 
L 953 1613 
Q 991 1019 1311 708 
Q 1631 397 2203 397 
Q 2534 397 2845 478 
Q 3156 559 3463 722 
L 3463 178 
Q 3153 47 2828 -22 
Q 2503 -91 2169 -91 
Q 1331 -91 842 396 
Q 353 884 353 1716 
Q 353 2575 817 3079 
Q 1281 3584 2069 3584 
Q 2775 3584 3186 3129 
Q 3597 2675 3597 1894 
z
M 3022 2063 
Q 3016 2534 2758 2815 
Q 2500 3097 2075 3097 
Q 1594 3097 1305 2825 
Q 1016 2553 972 2059 
L 3022 2063 
z
" transform="scale(0.015625)"/>
      <path id="DejaVuSans-6c" d="M 603 4863 
L 1178 4863 
L 1178 0 
L 603 0 
L 603 4863 
z
" transform="scale(0.015625)"/>
      <path id="DejaVuSans-20" transform="scale(0.015625)"/>
      <path id="DejaVuSans-73" d="M 2834 3397 
L 2834 2853 
Q 2591 2978 2328 3040 
Q 2066 3103 1784 3103 
Q 1356 3103 1142 2972 
Q 928 2841 928 2578 
Q 928 2378 1081 2264 
Q 1234 2150 1697 2047 
L 1894 2003 
Q 2506 1872 2764 1633 
Q 3022 1394 3022 966 
Q 3022 478 2636 193 
Q 2250 -91 1575 -91 
Q 1294 -91 989 -36 
Q 684 19 347 128 
L 347 722 
Q 666 556 975 473 
Q 1284 391 1588 391 
Q 1994 391 2212 530 
Q 2431 669 2431 922 
Q 2431 1156 2273 1281 
Q 2116 1406 1581 1522 
L 1381 1569 
Q 847 1681 609 1914 
Q 372 2147 372 2553 
Q 372 3047 722 3315 
Q 1072 3584 1716 3584 
Q 2034 3584 2315 3537 
Q 2597 3491 2834 3397 
z
" transform="scale(0.015625)"/>
     </defs>
     <use xlink:href="#DejaVuSans-6d"/>
     <use xlink:href="#DejaVuSans-6f" x="97.412109"/>
     <use xlink:href="#DejaVuSans-64" x="158.59375"/>
     <use xlink:href="#DejaVuSans-65" x="222.070312"/>
     <use xlink:href="#DejaVuSans-6c" x="283.59375"/>
     <use xlink:href="#DejaVuSans-20" x="311.376953"/>
     <use xlink:href="#DejaVuSans-6c" x="343.164062"/>
     <use xlink:href="#DejaVuSans-6f" x="370.947266"/>
     <use xlink:href="#DejaVuSans-73" x="432.128906"/>
     <use xlink:href="#DejaVuSans-73" x="484.228516"/>
    </g>
   </g>
   <g id="legend_1">
    <g id="patch_7">
     <path d="M 365.23125 64.23625 
L 443 64.23625 
Q 445 64.23625 445 62.23625 
L 445 33.88 
Q 445 31.88 443 31.88 
L 365.23125 31.88 
Q 363.23125 31.88 363.23125 33.88 
L 363.23125 62.23625 
Q 363.23125 64.23625 365.23125 64.23625 
z
" style="fill: #ffffff; opacity: 0.8; stroke: #cccccc; stroke-linejoin: miter"/>
    </g>
    <g id="line2d_44">
     <path d="M 367.23125 39.978437 
L 377.23125 39.978437 
L 387.23125 39.978437 
" style="fill: none; stroke: #1f77b4; stroke-width: 1.5; stroke-linecap: square"/>
    </g>
    <g id="text_15">
     <!-- train loss -->
     <g transform="translate(395.23125 43.478437)scale(0.1 -0.1)">
      <defs>
       <path id="DejaVuSans-74" d="M 1172 4494 
L 1172 3500 
L 2356 3500 
L 2356 3053 
L 1172 3053 
L 1172 1153 
Q 1172 725 1289 603 
Q 1406 481 1766 481 
L 2356 481 
L 2356 0 
L 1766 0 
Q 1100 0 847 248 
Q 594 497 594 1153 
L 594 3053 
L 172 3053 
L 172 3500 
L 594 3500 
L 594 4494 
L 1172 4494 
z
" transform="scale(0.015625)"/>
       <path id="DejaVuSans-72" d="M 2631 2963 
Q 2534 3019 2420 3045 
Q 2306 3072 2169 3072 
Q 1681 3072 1420 2755 
Q 1159 2438 1159 1844 
L 1159 0 
L 581 0 
L 581 3500 
L 1159 3500 
L 1159 2956 
Q 1341 3275 1631 3429 
Q 1922 3584 2338 3584 
Q 2397 3584 2469 3576 
Q 2541 3569 2628 3553 
L 2631 2963 
z
" transform="scale(0.015625)"/>
       <path id="DejaVuSans-61" d="M 2194 1759 
Q 1497 1759 1228 1600 
Q 959 1441 959 1056 
Q 959 750 1161 570 
Q 1363 391 1709 391 
Q 2188 391 2477 730 
Q 2766 1069 2766 1631 
L 2766 1759 
L 2194 1759 
z
M 3341 1997 
L 3341 0 
L 2766 0 
L 2766 531 
Q 2569 213 2275 61 
Q 1981 -91 1556 -91 
Q 1019 -91 701 211 
Q 384 513 384 1019 
Q 384 1609 779 1909 
Q 1175 2209 1959 2209 
L 2766 2209 
L 2766 2266 
Q 2766 2663 2505 2880 
Q 2244 3097 1772 3097 
Q 1472 3097 1187 3025 
Q 903 2953 641 2809 
L 641 3341 
Q 956 3463 1253 3523 
Q 1550 3584 1831 3584 
Q 2591 3584 2966 3190 
Q 3341 2797 3341 1997 
z
" transform="scale(0.015625)"/>
       <path id="DejaVuSans-69" d="M 603 3500 
L 1178 3500 
L 1178 0 
L 603 0 
L 603 3500 
z
M 603 4863 
L 1178 4863 
L 1178 4134 
L 603 4134 
L 603 4863 
z
" transform="scale(0.015625)"/>
       <path id="DejaVuSans-6e" d="M 3513 2113 
L 3513 0 
L 2938 0 
L 2938 2094 
Q 2938 2591 2744 2837 
Q 2550 3084 2163 3084 
Q 1697 3084 1428 2787 
Q 1159 2491 1159 1978 
L 1159 0 
L 581 0 
L 581 3500 
L 1159 3500 
L 1159 2956 
Q 1366 3272 1645 3428 
Q 1925 3584 2291 3584 
Q 2894 3584 3203 3211 
Q 3513 2838 3513 2113 
z
" transform="scale(0.015625)"/>
      </defs>
      <use xlink:href="#DejaVuSans-74"/>
      <use xlink:href="#DejaVuSans-72" x="39.208984"/>
      <use xlink:href="#DejaVuSans-61" x="80.322266"/>
      <use xlink:href="#DejaVuSans-69" x="141.601562"/>
      <use xlink:href="#DejaVuSans-6e" x="169.384766"/>
      <use xlink:href="#DejaVuSans-20" x="232.763672"/>
      <use xlink:href="#DejaVuSans-6c" x="264.550781"/>
      <use xlink:href="#DejaVuSans-6f" x="292.333984"/>
      <use xlink:href="#DejaVuSans-73" x="353.515625"/>
      <use xlink:href="#DejaVuSans-73" x="405.615234"/>
     </g>
    </g>
    <g id="line2d_45">
     <path d="M 367.23125 54.656563 
L 377.23125 54.656563 
L 387.23125 54.656563 
" style="fill: none; stroke: #ff7f0e; stroke-width: 1.5; stroke-linecap: square"/>
    </g>
    <g id="text_16">
     <!-- val loss -->
     <g transform="translate(395.23125 58.156563)scale(0.1 -0.1)">
      <defs>
       <path id="DejaVuSans-76" d="M 191 3500 
L 800 3500 
L 1894 563 
L 2988 3500 
L 3597 3500 
L 2284 0 
L 1503 0 
L 191 3500 
z
" transform="scale(0.015625)"/>
      </defs>
      <use xlink:href="#DejaVuSans-76"/>
      <use xlink:href="#DejaVuSans-61" x="59.179688"/>
      <use xlink:href="#DejaVuSans-6c" x="120.458984"/>
      <use xlink:href="#DejaVuSans-20" x="148.242188"/>
      <use xlink:href="#DejaVuSans-6c" x="180.029297"/>
      <use xlink:href="#DejaVuSans-6f" x="207.8125"/>
      <use xlink:href="#DejaVuSans-73" x="268.994141"/>
      <use xlink:href="#DejaVuSans-73" x="321.09375"/>
     </g>
    </g>
   </g>
  </g>
  <g id="axes_2">
   <g id="patch_8">
    <path d="M 41.917054 317.72 
L 450 317.72 
L 450 194.28 
L 41.917054 194.28 
z
" style="fill: #ffffff"/>
   </g>
   <g id="matplotlib.axis_3">
    <g id="xtick_10">
     <g id="line2d_46">
      <g>
       <use xlink:href="#me842173352" x="60.466279" y="317.72" style="stroke: #000000; stroke-width: 0.8"/>
      </g>
     </g>
     <g id="text_17">
      <!-- 0 -->
      <g transform="translate(57.285029 332.318438)scale(0.1 -0.1)">
       <use xlink:href="#DejaVuSans-30"/>
      </g>
     </g>
    </g>
    <g id="xtick_11">
     <g id="line2d_47">
      <g>
       <use xlink:href="#me842173352" x="134.811869" y="317.72" style="stroke: #000000; stroke-width: 0.8"/>
      </g>
     </g>
     <g id="text_18">
      <!-- 100 -->
      <g transform="translate(125.268119 332.318438)scale(0.1 -0.1)">
       <use xlink:href="#DejaVuSans-31"/>
       <use xlink:href="#DejaVuSans-30" x="63.623047"/>
       <use xlink:href="#DejaVuSans-30" x="127.246094"/>
      </g>
     </g>
    </g>
    <g id="xtick_12">
     <g id="line2d_48">
      <g>
       <use xlink:href="#me842173352" x="209.15746" y="317.72" style="stroke: #000000; stroke-width: 0.8"/>
      </g>
     </g>
     <g id="text_19">
      <!-- 200 -->
      <g transform="translate(199.61371 332.318438)scale(0.1 -0.1)">
       <use xlink:href="#DejaVuSans-32"/>
       <use xlink:href="#DejaVuSans-30" x="63.623047"/>
       <use xlink:href="#DejaVuSans-30" x="127.246094"/>
      </g>
     </g>
    </g>
    <g id="xtick_13">
     <g id="line2d_49">
      <g>
       <use xlink:href="#me842173352" x="283.50305" y="317.72" style="stroke: #000000; stroke-width: 0.8"/>
      </g>
     </g>
     <g id="text_20">
      <!-- 300 -->
      <g transform="translate(273.9593 332.318438)scale(0.1 -0.1)">
       <use xlink:href="#DejaVuSans-33"/>
       <use xlink:href="#DejaVuSans-30" x="63.623047"/>
       <use xlink:href="#DejaVuSans-30" x="127.246094"/>
      </g>
     </g>
    </g>
    <g id="xtick_14">
     <g id="line2d_50">
      <g>
       <use xlink:href="#me842173352" x="357.848641" y="317.72" style="stroke: #000000; stroke-width: 0.8"/>
      </g>
     </g>
     <g id="text_21">
      <!-- 400 -->
      <g transform="translate(348.304891 332.318438)scale(0.1 -0.1)">
       <use xlink:href="#DejaVuSans-34"/>
       <use xlink:href="#DejaVuSans-30" x="63.623047"/>
       <use xlink:href="#DejaVuSans-30" x="127.246094"/>
      </g>
     </g>
    </g>
    <g id="xtick_15">
     <g id="line2d_51">
      <g>
       <use xlink:href="#me842173352" x="432.194231" y="317.72" style="stroke: #000000; stroke-width: 0.8"/>
      </g>
     </g>
     <g id="text_22">
      <!-- 500 -->
      <g transform="translate(422.650481 332.318438)scale(0.1 -0.1)">
       <use xlink:href="#DejaVuSans-35"/>
       <use xlink:href="#DejaVuSans-30" x="63.623047"/>
       <use xlink:href="#DejaVuSans-30" x="127.246094"/>
      </g>
     </g>
    </g>
   </g>
   <g id="matplotlib.axis_4">
    <g id="ytick_33">
     <g id="line2d_52">
      <g>
       <use xlink:href="#m9bda5c88d3" x="41.917054" y="302.918487" style="stroke: #000000; stroke-width: 0.8"/>
      </g>
     </g>
     <g id="text_23">
      <!-- $\mathdefault{10^{-4}}$ -->
      <g transform="translate(11.417054 306.717705)scale(0.1 -0.1)">
       <use xlink:href="#DejaVuSans-31" transform="translate(0 0.684375)"/>
       <use xlink:href="#DejaVuSans-30" transform="translate(63.623047 0.684375)"/>
       <use xlink:href="#DejaVuSans-2212" transform="translate(128.203125 38.965625)scale(0.7)"/>
       <use xlink:href="#DejaVuSans-34" transform="translate(186.855469 38.965625)scale(0.7)"/>
      </g>
     </g>
    </g>
    <g id="ytick_34">
     <g id="line2d_53">
      <g>
       <use xlink:href="#m9bda5c88d3" x="41.917054" y="277.379767" style="stroke: #000000; stroke-width: 0.8"/>
      </g>
     </g>
     <g id="text_24">
      <!-- $\mathdefault{10^{-3}}$ -->
      <g transform="translate(11.417054 281.178986)scale(0.1 -0.1)">
       <use xlink:href="#DejaVuSans-31" transform="translate(0 0.765625)"/>
       <use xlink:href="#DejaVuSans-30" transform="translate(63.623047 0.765625)"/>
       <use xlink:href="#DejaVuSans-2212" transform="translate(128.203125 39.046875)scale(0.7)"/>
       <use xlink:href="#DejaVuSans-33" transform="translate(186.855469 39.046875)scale(0.7)"/>
      </g>
     </g>
    </g>
    <g id="ytick_35">
     <g id="line2d_54">
      <g>
       <use xlink:href="#m9bda5c88d3" x="41.917054" y="251.841048" style="stroke: #000000; stroke-width: 0.8"/>
      </g>
     </g>
     <g id="text_25">
      <!-- $\mathdefault{10^{-2}}$ -->
      <g transform="translate(11.417054 255.640266)scale(0.1 -0.1)">
       <use xlink:href="#DejaVuSans-31" transform="translate(0 0.765625)"/>
       <use xlink:href="#DejaVuSans-30" transform="translate(63.623047 0.765625)"/>
       <use xlink:href="#DejaVuSans-2212" transform="translate(128.203125 39.046875)scale(0.7)"/>
       <use xlink:href="#DejaVuSans-32" transform="translate(186.855469 39.046875)scale(0.7)"/>
      </g>
     </g>
    </g>
    <g id="ytick_36">
     <g id="line2d_55">
      <g>
       <use xlink:href="#m9bda5c88d3" x="41.917054" y="226.302328" style="stroke: #000000; stroke-width: 0.8"/>
      </g>
     </g>
     <g id="text_26">
      <!-- $\mathdefault{10^{-1}}$ -->
      <g transform="translate(11.417054 230.101547)scale(0.1 -0.1)">
       <use xlink:href="#DejaVuSans-31" transform="translate(0 0.684375)"/>
       <use xlink:href="#DejaVuSans-30" transform="translate(63.623047 0.684375)"/>
       <use xlink:href="#DejaVuSans-2212" transform="translate(128.203125 38.965625)scale(0.7)"/>
       <use xlink:href="#DejaVuSans-31" transform="translate(186.855469 38.965625)scale(0.7)"/>
      </g>
     </g>
    </g>
    <g id="ytick_37">
     <g id="line2d_56">
      <g>
       <use xlink:href="#m9bda5c88d3" x="41.917054" y="200.763608" style="stroke: #000000; stroke-width: 0.8"/>
      </g>
     </g>
     <g id="text_27">
      <!-- $\mathdefault{10^{0}}$ -->
      <g transform="translate(17.317054 204.562827)scale(0.1 -0.1)">
       <use xlink:href="#DejaVuSans-31" transform="translate(0 0.765625)"/>
       <use xlink:href="#DejaVuSans-30" transform="translate(63.623047 0.765625)"/>
       <use xlink:href="#DejaVuSans-30" transform="translate(128.203125 39.046875)scale(0.7)"/>
      </g>
     </g>
    </g>
    <g id="ytick_38">
     <g id="line2d_57">
      <g>
       <use xlink:href="#md671c6f035" x="41.917054" y="316.27214" style="stroke: #000000; stroke-width: 0.6"/>
      </g>
     </g>
    </g>
    <g id="ytick_39">
     <g id="line2d_58">
      <g>
       <use xlink:href="#md671c6f035" x="41.917054" y="313.081365" style="stroke: #000000; stroke-width: 0.6"/>
      </g>
     </g>
    </g>
    <g id="ytick_40">
     <g id="line2d_59">
      <g>
       <use xlink:href="#md671c6f035" x="41.917054" y="310.606407" style="stroke: #000000; stroke-width: 0.6"/>
      </g>
     </g>
    </g>
    <g id="ytick_41">
     <g id="line2d_60">
      <g>
       <use xlink:href="#md671c6f035" x="41.917054" y="308.58422" style="stroke: #000000; stroke-width: 0.6"/>
      </g>
     </g>
    </g>
    <g id="ytick_42">
     <g id="line2d_61">
      <g>
       <use xlink:href="#md671c6f035" x="41.917054" y="306.874484" style="stroke: #000000; stroke-width: 0.6"/>
      </g>
     </g>
    </g>
    <g id="ytick_43">
     <g id="line2d_62">
      <g>
       <use xlink:href="#md671c6f035" x="41.917054" y="305.393444" style="stroke: #000000; stroke-width: 0.6"/>
      </g>
     </g>
    </g>
    <g id="ytick_44">
     <g id="line2d_63">
      <g>
       <use xlink:href="#md671c6f035" x="41.917054" y="304.087074" style="stroke: #000000; stroke-width: 0.6"/>
      </g>
     </g>
    </g>
    <g id="ytick_45">
     <g id="line2d_64">
      <g>
       <use xlink:href="#md671c6f035" x="41.917054" y="295.230566" style="stroke: #000000; stroke-width: 0.6"/>
      </g>
     </g>
    </g>
    <g id="ytick_46">
     <g id="line2d_65">
      <g>
       <use xlink:href="#md671c6f035" x="41.917054" y="290.733421" style="stroke: #000000; stroke-width: 0.6"/>
      </g>
     </g>
    </g>
    <g id="ytick_47">
     <g id="line2d_66">
      <g>
       <use xlink:href="#md671c6f035" x="41.917054" y="287.542645" style="stroke: #000000; stroke-width: 0.6"/>
      </g>
     </g>
    </g>
    <g id="ytick_48">
     <g id="line2d_67">
      <g>
       <use xlink:href="#md671c6f035" x="41.917054" y="285.067688" style="stroke: #000000; stroke-width: 0.6"/>
      </g>
     </g>
    </g>
    <g id="ytick_49">
     <g id="line2d_68">
      <g>
       <use xlink:href="#md671c6f035" x="41.917054" y="283.0455" style="stroke: #000000; stroke-width: 0.6"/>
      </g>
     </g>
    </g>
    <g id="ytick_50">
     <g id="line2d_69">
      <g>
       <use xlink:href="#md671c6f035" x="41.917054" y="281.335765" style="stroke: #000000; stroke-width: 0.6"/>
      </g>
     </g>
    </g>
    <g id="ytick_51">
     <g id="line2d_70">
      <g>
       <use xlink:href="#md671c6f035" x="41.917054" y="279.854725" style="stroke: #000000; stroke-width: 0.6"/>
      </g>
     </g>
    </g>
    <g id="ytick_52">
     <g id="line2d_71">
      <g>
       <use xlink:href="#md671c6f035" x="41.917054" y="278.548355" style="stroke: #000000; stroke-width: 0.6"/>
      </g>
     </g>
    </g>
    <g id="ytick_53">
     <g id="line2d_72">
      <g>
       <use xlink:href="#md671c6f035" x="41.917054" y="269.691846" style="stroke: #000000; stroke-width: 0.6"/>
      </g>
     </g>
    </g>
    <g id="ytick_54">
     <g id="line2d_73">
      <g>
       <use xlink:href="#md671c6f035" x="41.917054" y="265.194701" style="stroke: #000000; stroke-width: 0.6"/>
      </g>
     </g>
    </g>
    <g id="ytick_55">
     <g id="line2d_74">
      <g>
       <use xlink:href="#md671c6f035" x="41.917054" y="262.003926" style="stroke: #000000; stroke-width: 0.6"/>
      </g>
     </g>
    </g>
    <g id="ytick_56">
     <g id="line2d_75">
      <g>
       <use xlink:href="#md671c6f035" x="41.917054" y="259.528968" style="stroke: #000000; stroke-width: 0.6"/>
      </g>
     </g>
    </g>
    <g id="ytick_57">
     <g id="line2d_76">
      <g>
       <use xlink:href="#md671c6f035" x="41.917054" y="257.506781" style="stroke: #000000; stroke-width: 0.6"/>
      </g>
     </g>
    </g>
    <g id="ytick_58">
     <g id="line2d_77">
      <g>
       <use xlink:href="#md671c6f035" x="41.917054" y="255.797045" style="stroke: #000000; stroke-width: 0.6"/>
      </g>
     </g>
    </g>
    <g id="ytick_59">
     <g id="line2d_78">
      <g>
       <use xlink:href="#md671c6f035" x="41.917054" y="254.316005" style="stroke: #000000; stroke-width: 0.6"/>
      </g>
     </g>
    </g>
    <g id="ytick_60">
     <g id="line2d_79">
      <g>
       <use xlink:href="#md671c6f035" x="41.917054" y="253.009635" style="stroke: #000000; stroke-width: 0.6"/>
      </g>
     </g>
    </g>
    <g id="ytick_61">
     <g id="line2d_80">
      <g>
       <use xlink:href="#md671c6f035" x="41.917054" y="244.153127" style="stroke: #000000; stroke-width: 0.6"/>
      </g>
     </g>
    </g>
    <g id="ytick_62">
     <g id="line2d_81">
      <g>
       <use xlink:href="#md671c6f035" x="41.917054" y="239.655982" style="stroke: #000000; stroke-width: 0.6"/>
      </g>
     </g>
    </g>
    <g id="ytick_63">
     <g id="line2d_82">
      <g>
       <use xlink:href="#md671c6f035" x="41.917054" y="236.465206" style="stroke: #000000; stroke-width: 0.6"/>
      </g>
     </g>
    </g>
    <g id="ytick_64">
     <g id="line2d_83">
      <g>
       <use xlink:href="#md671c6f035" x="41.917054" y="233.990249" style="stroke: #000000; stroke-width: 0.6"/>
      </g>
     </g>
    </g>
    <g id="ytick_65">
     <g id="line2d_84">
      <g>
       <use xlink:href="#md671c6f035" x="41.917054" y="231.968061" style="stroke: #000000; stroke-width: 0.6"/>
      </g>
     </g>
    </g>
    <g id="ytick_66">
     <g id="line2d_85">
      <g>
       <use xlink:href="#md671c6f035" x="41.917054" y="230.258326" style="stroke: #000000; stroke-width: 0.6"/>
      </g>
     </g>
    </g>
    <g id="ytick_67">
     <g id="line2d_86">
      <g>
       <use xlink:href="#md671c6f035" x="41.917054" y="228.777286" style="stroke: #000000; stroke-width: 0.6"/>
      </g>
     </g>
    </g>
    <g id="ytick_68">
     <g id="line2d_87">
      <g>
       <use xlink:href="#md671c6f035" x="41.917054" y="227.470916" style="stroke: #000000; stroke-width: 0.6"/>
      </g>
     </g>
    </g>
    <g id="ytick_69">
     <g id="line2d_88">
      <g>
       <use xlink:href="#md671c6f035" x="41.917054" y="218.614407" style="stroke: #000000; stroke-width: 0.6"/>
      </g>
     </g>
    </g>
    <g id="ytick_70">
     <g id="line2d_89">
      <g>
       <use xlink:href="#md671c6f035" x="41.917054" y="214.117262" style="stroke: #000000; stroke-width: 0.6"/>
      </g>
     </g>
    </g>
    <g id="ytick_71">
     <g id="line2d_90">
      <g>
       <use xlink:href="#md671c6f035" x="41.917054" y="210.926487" style="stroke: #000000; stroke-width: 0.6"/>
      </g>
     </g>
    </g>
    <g id="ytick_72">
     <g id="line2d_91">
      <g>
       <use xlink:href="#md671c6f035" x="41.917054" y="208.451529" style="stroke: #000000; stroke-width: 0.6"/>
      </g>
     </g>
    </g>
    <g id="ytick_73">
     <g id="line2d_92">
      <g>
       <use xlink:href="#md671c6f035" x="41.917054" y="206.429341" style="stroke: #000000; stroke-width: 0.6"/>
      </g>
     </g>
    </g>
    <g id="ytick_74">
     <g id="line2d_93">
      <g>
       <use xlink:href="#md671c6f035" x="41.917054" y="204.719606" style="stroke: #000000; stroke-width: 0.6"/>
      </g>
     </g>
    </g>
    <g id="ytick_75">
     <g id="line2d_94">
      <g>
       <use xlink:href="#md671c6f035" x="41.917054" y="203.238566" style="stroke: #000000; stroke-width: 0.6"/>
      </g>
     </g>
    </g>
    <g id="ytick_76">
     <g id="line2d_95">
      <g>
       <use xlink:href="#md671c6f035" x="41.917054" y="201.932196" style="stroke: #000000; stroke-width: 0.6"/>
      </g>
     </g>
    </g>
   </g>
   <g id="line2d_96">
    <path d="M 60.466279 199.890909 
L 61.209735 226.504434 
L 61.953191 243.441091 
L 62.696646 252.206838 
L 63.440102 255.833397 
L 64.183558 257.588526 
L 64.927014 258.649237 
L 67.157382 260.36788 
L 67.900838 230.612731 
L 68.644294 241.503251 
L 69.38775 245.856362 
L 70.131205 252.151611 
L 70.874661 259.47924 
L 71.618117 262.196518 
L 73.105029 265.002767 
L 73.848485 265.565273 
L 74.591941 263.034773 
L 75.335397 269.68475 
L 76.078853 269.518938 
L 76.822309 270.713878 
L 77.565765 269.260837 
L 78.30922 271.594068 
L 79.052676 270.692131 
L 79.796132 274.986266 
L 80.539588 275.272127 
L 81.283044 273.696991 
L 82.0265 276.452822 
L 82.769956 277.484414 
L 83.513412 277.747486 
L 84.256868 278.975992 
L 85.000324 278.942027 
L 86.487235 279.993755 
L 87.974147 280.227649 
L 88.717603 280.785293 
L 89.461059 280.752255 
L 90.204515 283.140372 
L 90.947971 283.597631 
L 91.691427 283.250399 
L 92.434883 284.378159 
L 93.178339 284.214771 
L 93.921794 284.304562 
L 94.66525 284.592979 
L 95.408706 284.15407 
L 97.639074 285.786974 
L 98.38253 286.020592 
L 99.125986 285.860029 
L 99.869442 286.511722 
L 100.612898 286.482117 
L 101.356353 287.288924 
L 102.099809 286.575605 
L 102.843265 287.480112 
L 103.586721 287.51031 
L 104.330177 286.920235 
L 105.073633 287.657555 
L 105.817089 287.649822 
L 106.560545 288.524705 
L 108.047457 288.63503 
L 108.790913 288.930841 
L 109.534368 288.660795 
L 110.277824 289.19388 
L 111.02128 288.739283 
L 111.764736 288.854204 
L 112.508192 290.247581 
L 113.995104 290.928127 
L 114.73856 290.521995 
L 115.482016 291.826585 
L 116.225472 291.685486 
L 117.712383 291.821398 
L 118.455839 291.645915 
L 119.199295 292.128186 
L 119.942751 291.079436 
L 120.686207 291.737963 
L 121.429663 291.842372 
L 122.173119 292.265673 
L 122.916575 292.365612 
L 123.660031 292.32557 
L 124.403487 292.630179 
L 125.146942 292.450643 
L 125.890398 292.815403 
L 126.633854 292.373682 
L 127.37731 292.991273 
L 128.120766 292.693116 
L 128.864222 293.557009 
L 129.607678 293.959808 
L 130.351134 294.13817 
L 131.09459 293.992533 
L 131.838046 294.223719 
L 132.581501 294.084923 
L 133.324957 294.375092 
L 134.068413 293.578479 
L 134.811869 293.621066 
L 135.555325 294.443207 
L 137.785693 294.604282 
L 138.529149 294.865591 
L 140.016061 295.106602 
L 140.759516 294.851665 
L 141.502972 294.772665 
L 142.246428 295.023665 
L 142.989884 295.693728 
L 143.73334 295.512317 
L 144.476796 296.099098 
L 145.220252 295.096764 
L 145.963708 296.046442 
L 146.707164 296.311457 
L 147.45062 295.927206 
L 148.194075 295.901595 
L 148.937531 296.2092 
L 149.680987 296.287828 
L 150.424443 296.492313 
L 151.167899 297.220075 
L 151.911355 297.111032 
L 152.654811 297.449652 
L 153.398267 297.254252 
L 154.885179 297.235615 
L 155.628635 297.645199 
L 156.37209 297.593995 
L 157.115546 296.330731 
L 157.859002 296.627196 
L 158.602458 297.496214 
L 159.345914 297.236457 
L 160.832826 297.4639 
L 161.576282 297.194132 
L 162.319738 298.096058 
L 163.063194 296.759454 
L 163.806649 297.1859 
L 164.550105 297.774537 
L 165.293561 297.962744 
L 166.037017 299.090016 
L 166.780473 299.408164 
L 167.523929 299.286371 
L 168.267385 299.279465 
L 169.010841 299.435032 
L 169.754297 299.734423 
L 170.497753 299.524845 
L 171.241209 299.176939 
L 171.984664 297.453443 
L 173.471576 299.306497 
L 174.215032 298.887776 
L 174.958488 299.830379 
L 175.701944 298.593046 
L 177.188856 299.385477 
L 177.932312 299.469763 
L 178.675768 299.683111 
L 179.419223 298.758788 
L 180.162679 298.160104 
L 180.906135 299.64665 
L 181.649591 300.03013 
L 182.393047 299.360116 
L 183.136503 299.52743 
L 183.879959 299.571041 
L 184.623415 299.501371 
L 185.366871 301.099911 
L 186.110327 299.93295 
L 186.853783 299.257339 
L 187.597238 300.267454 
L 188.340694 300.193923 
L 189.08415 300.442123 
L 192.057974 300.557543 
L 192.80143 300.772865 
L 193.544886 300.758803 
L 194.288342 300.075559 
L 195.031797 300.837447 
L 195.775253 299.673678 
L 196.518709 300.870326 
L 197.262165 301.754293 
L 198.005621 301.166449 
L 198.749077 299.478234 
L 199.492533 300.34414 
L 200.979445 301.622685 
L 201.722901 299.896675 
L 202.466357 301.175592 
L 203.209812 301.127122 
L 203.953268 301.651195 
L 204.696724 301.425791 
L 205.44018 302.17587 
L 206.183636 301.639472 
L 206.927092 302.118447 
L 207.670548 302.149713 
L 208.414004 301.555052 
L 209.15746 300.659774 
L 209.900916 302.236377 
L 210.644371 301.430094 
L 211.387827 301.992974 
L 212.131283 301.932598 
L 212.874739 302.272806 
L 213.618195 302.245348 
L 214.361651 302.064956 
L 215.105107 302.074471 
L 215.848563 302.21973 
L 216.592019 300.420047 
L 217.335475 300.67931 
L 218.078931 301.826567 
L 218.822386 299.912611 
L 219.565842 301.892401 
L 220.309298 301.870641 
L 222.539666 301.210938 
L 223.283122 301.889553 
L 224.026578 301.247131 
L 224.770034 302.718691 
L 225.51349 302.015285 
L 226.256945 302.154025 
L 227.000401 302.045626 
L 228.487313 302.7494 
L 229.230769 303.147324 
L 229.974225 302.708743 
L 230.717681 302.870337 
L 231.461137 302.197811 
L 232.204593 303.826258 
L 233.691505 301.940835 
L 234.43496 302.904179 
L 235.921872 303.120514 
L 236.665328 303.130091 
L 237.408784 304.04387 
L 238.15224 302.2497 
L 238.895696 302.783894 
L 239.639152 301.57275 
L 240.382608 303.993622 
L 241.126064 303.456652 
L 243.356431 303.734953 
L 244.099887 303.637207 
L 244.843343 302.844219 
L 245.586799 303.741951 
L 246.330255 302.172423 
L 247.073711 301.949895 
L 248.560623 304.542681 
L 249.304079 301.899446 
L 250.047534 303.36982 
L 250.79099 304.019056 
L 251.534446 303.971056 
L 252.277902 303.735823 
L 253.021358 303.184815 
L 253.764814 302.174156 
L 254.50827 301.909052 
L 255.995182 304.507403 
L 256.738638 302.531601 
L 258.225549 302.52147 
L 258.969005 303.285127 
L 259.712461 303.405961 
L 260.455917 302.995819 
L 261.199373 304.47728 
L 262.686285 303.707592 
L 263.429741 303.827684 
L 264.173197 304.850387 
L 264.916653 303.701034 
L 265.660108 303.553664 
L 266.403564 304.558373 
L 267.890476 305.358553 
L 268.633932 303.32881 
L 269.377388 303.131175 
L 270.120844 303.802839 
L 270.8643 303.424761 
L 271.607756 304.430712 
L 272.351212 304.311557 
L 273.094667 304.801128 
L 276.068491 303.556299 
L 276.811947 302.99001 
L 277.555403 304.854282 
L 278.298859 304.664442 
L 279.042315 304.008952 
L 279.785771 304.647872 
L 280.529227 305.973355 
L 281.272682 304.645699 
L 282.016138 305.103856 
L 282.759594 304.463559 
L 283.50305 303.293289 
L 284.246506 303.470714 
L 284.989962 303.366422 
L 285.733418 304.401378 
L 286.476874 303.874546 
L 287.963786 304.977008 
L 288.707241 304.875593 
L 289.450697 305.223921 
L 290.194153 304.935956 
L 290.937609 304.047724 
L 291.681065 304.348568 
L 292.424521 305.483055 
L 293.167977 305.184576 
L 293.911433 303.944469 
L 294.654889 304.703307 
L 295.398345 305.963698 
L 296.141801 305.165991 
L 296.885256 305.698956 
L 297.628712 304.240079 
L 298.372168 304.603652 
L 299.85908 306.274967 
L 300.602536 305.40606 
L 301.345992 306.507976 
L 302.089448 307.013818 
L 302.832904 306.504851 
L 303.57636 306.640465 
L 304.319815 307.5233 
L 305.806727 304.476679 
L 306.550183 305.199972 
L 307.293639 305.157445 
L 308.037095 305.239956 
L 308.780551 305.489411 
L 309.524007 305.419616 
L 310.267463 304.662831 
L 311.010919 305.678071 
L 311.754375 306.17786 
L 312.49783 305.941924 
L 313.241286 305.02128 
L 314.728198 306.377497 
L 315.471654 306.150191 
L 316.21511 307.408907 
L 316.958566 305.763457 
L 317.702022 307.2301 
L 318.445478 306.881085 
L 319.188934 305.063723 
L 319.932389 304.694397 
L 320.675845 305.063746 
L 321.419301 306.194062 
L 322.162757 306.272642 
L 322.906213 305.764727 
L 323.649669 306.76729 
L 325.136581 306.757183 
L 325.880037 306.470071 
L 327.366949 307.023056 
L 328.110404 305.336322 
L 328.85386 305.977611 
L 329.597316 306.199583 
L 330.340772 305.63609 
L 331.084228 306.057891 
L 331.827684 305.462703 
L 332.57114 306.506164 
L 333.314596 305.23485 
L 334.058052 306.104635 
L 334.801508 306.251423 
L 335.544963 305.986379 
L 336.288419 306.221863 
L 337.031875 307.170174 
L 337.775331 306.494143 
L 338.518787 306.876613 
L 339.262243 306.816263 
L 340.005699 307.235814 
L 340.749155 306.925801 
L 341.492611 307.005524 
L 342.236067 307.254541 
L 342.979523 307.778748 
L 343.722978 309.281672 
L 344.466434 308.498537 
L 345.20989 308.728807 
L 345.953346 308.267022 
L 346.696802 308.269558 
L 347.440258 306.864523 
L 348.183714 308.787782 
L 348.92717 309.097068 
L 349.670626 308.048139 
L 350.414082 306.270833 
L 351.157537 307.195159 
L 352.644449 306.998818 
L 353.387905 306.235371 
L 354.131361 307.408281 
L 354.874817 307.922366 
L 355.618273 306.530982 
L 356.361729 308.79575 
L 357.105185 307.717394 
L 357.848641 305.845335 
L 358.592097 306.618228 
L 359.335552 306.39631 
L 360.079008 308.000238 
L 360.822464 307.043948 
L 361.56592 307.022196 
L 362.309376 307.362846 
L 363.052832 307.51531 
L 363.796288 307.060401 
L 364.539744 307.257472 
L 365.2832 307.03924 
L 366.026656 308.130217 
L 366.770111 307.27278 
L 367.513567 308.458345 
L 368.257023 307.913884 
L 369.000479 309.251465 
L 369.743935 309.480001 
L 370.487391 308.889285 
L 371.230847 306.990596 
L 371.974303 308.472559 
L 372.717759 307.043147 
L 373.461215 308.166918 
L 374.948126 308.403189 
L 375.691582 308.787872 
L 376.435038 307.247033 
L 377.178494 306.942688 
L 378.665406 308.474301 
L 379.408862 307.903797 
L 380.152318 308.242075 
L 380.895774 306.843966 
L 381.63923 307.920109 
L 382.382685 308.550588 
L 383.126141 307.503276 
L 383.869597 307.237785 
L 384.613053 307.170919 
L 385.356509 307.445371 
L 386.099965 308.304647 
L 387.586877 305.736669 
L 388.330333 305.740509 
L 389.073789 306.453048 
L 389.817245 306.613597 
L 390.5607 306.066115 
L 391.304156 307.360493 
L 392.047612 306.358109 
L 392.791068 306.289707 
L 393.534524 305.55608 
L 394.27798 306.219917 
L 395.021436 306.722607 
L 395.764892 307.966848 
L 396.508348 307.645949 
L 397.251804 307.154008 
L 397.995259 307.361454 
L 398.738715 307.688907 
L 399.482171 307.764819 
L 400.225627 307.460736 
L 400.969083 307.415716 
L 401.712539 308.481419 
L 402.455995 308.835028 
L 403.199451 307.467524 
L 403.942907 306.632735 
L 404.686363 307.43105 
L 405.429819 307.349364 
L 406.173274 308.004779 
L 406.91673 307.245584 
L 407.660186 306.751123 
L 408.403642 306.952967 
L 409.147098 308.279437 
L 409.890554 306.876256 
L 410.63401 307.950739 
L 411.377466 307.127856 
L 412.120922 306.5606 
L 412.864378 307.755001 
L 413.607833 306.672899 
L 414.351289 307.847642 
L 415.094745 307.690196 
L 415.838201 307.248085 
L 416.581657 308.079456 
L 417.325113 307.382079 
L 418.068569 307.783369 
L 418.812025 306.998398 
L 419.555481 307.254523 
L 420.298937 307.715851 
L 421.042393 306.92768 
L 421.785848 307.103511 
L 422.529304 306.862582 
L 423.27276 307.526083 
L 424.016216 307.980799 
L 424.759672 306.103384 
L 425.503128 306.328362 
L 426.246584 306.675317 
L 426.99004 307.701359 
L 427.733496 307.956772 
L 428.476952 306.713087 
L 429.220407 307.453656 
L 429.963863 307.402684 
L 431.450775 306.529972 
L 431.450775 306.529972 
" clip-path="url(#p8b9b5e329a)" style="fill: none; stroke: #1f77b4; stroke-width: 1.5; stroke-linecap: square"/>
   </g>
   <g id="line2d_97">
    <path d="M 60.466279 223.910169 
L 61.209735 239.830594 
L 61.953191 251.642487 
L 62.696646 256.460299 
L 63.440102 258.701899 
L 64.183558 260.578431 
L 64.927014 260.854683 
L 65.67047 260.805767 
L 66.413926 262.178921 
L 67.157382 262.821979 
L 67.900838 240.962859 
L 68.644294 248.332546 
L 70.131205 257.646594 
L 70.874661 264.114714 
L 71.618117 266.466454 
L 72.361573 266.721749 
L 73.105029 268.786937 
L 73.848485 269.019843 
L 74.591941 270.07507 
L 75.335397 254.329871 
L 76.078853 273.540793 
L 76.822309 270.273688 
L 77.565765 228.322181 
L 78.30922 276.564217 
L 79.052676 276.494327 
L 79.796132 277.9594 
L 80.539588 277.914697 
L 82.0265 279.585832 
L 82.769956 282.236316 
L 83.513412 279.781064 
L 84.256868 281.072535 
L 85.000324 283.322469 
L 85.743779 283.28411 
L 86.487235 283.749129 
L 87.230691 283.706767 
L 87.974147 284.221219 
L 88.717603 284.170886 
L 89.461059 281.87735 
L 90.204515 287.172506 
L 90.947971 287.485089 
L 91.691427 287.570936 
L 92.434883 287.794245 
L 93.178339 284.618747 
L 93.921794 287.667025 
L 94.66525 287.717064 
L 95.408706 286.953659 
L 96.152162 287.870142 
L 96.895618 287.860205 
L 97.639074 284.097261 
L 98.38253 289.382992 
L 99.125986 289.488844 
L 100.612898 289.374155 
L 101.356353 289.009104 
L 102.099809 289.110051 
L 102.843265 289.064046 
L 103.586721 287.637373 
L 104.330177 288.9444 
L 105.073633 290.925037 
L 105.817089 291.084131 
L 107.304001 291.012819 
L 109.534368 290.708618 
L 110.277824 290.123419 
L 111.02128 290.797009 
L 111.764736 290.912789 
L 112.508192 293.558631 
L 113.251648 291.276232 
L 113.995104 293.488055 
L 116.225472 293.463958 
L 116.968927 288.284797 
L 117.712383 293.350708 
L 118.455839 293.51741 
L 119.199295 292.434051 
L 119.942751 294.416934 
L 120.686207 293.949368 
L 122.173119 293.905302 
L 122.916575 293.111483 
L 123.660031 293.738776 
L 125.890398 293.765118 
L 126.633854 293.119442 
L 127.37731 295.984209 
L 128.120766 295.938926 
L 128.864222 295.267454 
L 129.607678 295.360197 
L 130.351134 295.039672 
L 131.09459 295.504909 
L 133.324957 295.549008 
L 134.068413 295.051008 
L 134.811869 297.106135 
L 135.555325 297.039455 
L 136.298781 297.245022 
L 137.042237 297.089099 
L 137.785693 296.790079 
L 138.529149 296.89532 
L 139.272605 297.187461 
L 140.016061 296.836598 
L 141.502972 297.178485 
L 142.246428 298.059459 
L 142.989884 297.322139 
L 143.73334 297.953486 
L 144.476796 297.557644 
L 145.220252 297.761101 
L 145.963708 297.490327 
L 146.707164 297.944288 
L 147.45062 297.655694 
L 148.194075 297.799553 
L 148.937531 297.602277 
L 149.680987 297.65087 
L 150.424443 295.540382 
L 151.167899 295.896628 
L 151.911355 296.869431 
L 152.654811 282.516494 
L 153.398267 296.735751 
L 154.141723 296.804125 
L 154.885179 296.475625 
L 155.628635 296.763882 
L 156.37209 296.394615 
L 157.115546 298.808268 
L 157.859002 295.004384 
L 158.602458 298.619159 
L 159.345914 298.648919 
L 160.08937 298.553228 
L 160.832826 290.743068 
L 161.576282 298.225674 
L 163.063194 298.644326 
L 163.806649 298.313931 
L 164.550105 300.688267 
L 165.293561 300.725927 
L 166.780473 300.440211 
L 168.267385 300.481043 
L 169.754297 300.00734 
L 170.497753 300.351797 
L 171.241209 300.511742 
L 171.984664 301.068916 
L 172.72812 300.526973 
L 173.471576 300.407676 
L 174.215032 300.095144 
L 174.958488 300.34515 
L 175.701944 300.080596 
L 176.4454 299.618257 
L 177.188856 299.985381 
L 177.932312 300.22103 
L 178.675768 300.220558 
L 179.419223 300.416686 
L 180.162679 299.754997 
L 180.906135 300.340114 
L 181.649591 299.774227 
L 182.393047 299.677333 
L 183.136503 299.712054 
L 183.879959 299.162742 
L 184.623415 299.843465 
L 185.366871 299.443804 
L 186.110327 299.959365 
L 186.853783 301.934982 
L 187.597238 301.51411 
L 188.340694 301.416711 
L 189.08415 300.964415 
L 189.827606 301.270933 
L 190.571062 300.996847 
L 192.057974 301.228833 
L 192.80143 301.212532 
L 193.544886 301.040065 
L 194.288342 301.270027 
L 195.775253 300.770786 
L 196.518709 300.791255 
L 197.262165 300.456702 
L 198.005621 298.152755 
L 198.749077 300.241879 
L 199.492533 299.988881 
L 200.235989 300.240985 
L 200.979445 300.309611 
L 201.722901 302.568367 
L 203.209812 302.587786 
L 203.953268 302.345308 
L 204.696724 302.315941 
L 205.44018 282.749853 
L 206.183636 302.349934 
L 206.927092 302.259203 
L 207.670548 286.634373 
L 208.414004 302.252156 
L 209.15746 304.096795 
L 209.900916 303.069773 
L 210.644371 303.714963 
L 212.131283 303.407458 
L 212.874739 303.030028 
L 213.618195 303.711286 
L 214.361651 303.516248 
L 216.592019 303.815143 
L 218.078931 302.597327 
L 218.822386 302.479081 
L 219.565842 302.843693 
L 220.309298 302.814737 
L 221.052754 302.546583 
L 221.79621 302.488137 
L 222.539666 294.968729 
L 223.283122 302.539585 
L 224.026578 304.140469 
L 224.770034 303.695571 
L 225.51349 304.130917 
L 226.256945 303.905223 
L 227.000401 303.918142 
L 227.743857 303.580264 
L 228.487313 303.536103 
L 229.230769 303.977583 
L 229.974225 303.556923 
L 230.717681 303.723306 
L 231.461137 305.524375 
L 232.204593 305.538836 
L 232.948049 305.398516 
L 234.43496 305.602321 
L 235.178416 304.833099 
L 235.921872 305.605758 
L 236.665328 305.440136 
L 237.408784 305.399552 
L 238.895696 305.720605 
L 239.639152 302.410969 
L 240.382608 305.309641 
L 241.869519 304.888441 
L 242.612975 304.970856 
L 243.356431 304.790716 
L 244.099887 304.982088 
L 244.843343 304.955193 
L 245.586799 304.134199 
L 246.330255 305.036571 
L 247.073711 304.525006 
L 247.817167 304.330096 
L 248.560623 304.285786 
L 249.304079 303.911486 
L 250.047534 302.961541 
L 250.79099 304.034515 
L 251.534446 303.166601 
L 252.277902 304.113449 
L 253.021358 304.117342 
L 253.764814 306.049111 
L 255.251726 305.986081 
L 255.995182 305.814655 
L 256.738638 306.026609 
L 257.482093 303.237615 
L 258.225549 305.839193 
L 258.969005 305.971501 
L 259.712461 303.851016 
L 260.455917 305.759091 
L 261.199373 306.834856 
L 262.686285 306.189598 
L 263.429741 306.250653 
L 264.173197 297.890304 
L 264.916653 306.240077 
L 265.660108 306.047481 
L 266.403564 306.39913 
L 267.14702 306.605273 
L 267.890476 304.996584 
L 268.633932 306.413677 
L 270.120844 305.941588 
L 270.8643 306.045467 
L 271.607756 305.569258 
L 272.351212 305.612796 
L 273.094667 305.80711 
L 273.838123 305.827401 
L 274.581579 301.491892 
L 275.325035 305.813799 
L 276.068491 302.951485 
L 276.811947 304.78552 
L 277.555403 307.171221 
L 282.759594 307.036729 
L 283.50305 308.056496 
L 285.733418 308.019582 
L 287.963786 307.664059 
L 288.707241 307.793684 
L 290.194153 307.617067 
L 290.937609 308.265061 
L 292.424521 308.213814 
L 294.654889 307.909282 
L 295.398345 307.932956 
L 297.628712 307.689525 
L 298.372168 308.469868 
L 299.115624 308.546127 
L 299.85908 308.429941 
L 300.602536 308.436468 
L 301.345992 308.297784 
L 302.089448 308.274953 
L 302.832904 308.092472 
L 305.063271 307.908743 
L 305.806727 308.559548 
L 308.037095 308.582471 
L 308.780551 308.570323 
L 311.010919 308.173949 
L 312.49783 308.320637 
L 313.241286 308.878553 
L 313.984742 308.936252 
L 314.728198 308.854206 
L 315.471654 308.960604 
L 316.958566 308.886327 
L 321.419301 308.929793 
L 322.906213 308.366804 
L 323.649669 308.328951 
L 325.880037 307.728742 
L 326.623493 307.773239 
L 327.366949 307.537119 
L 328.110404 308.519199 
L 331.827684 308.454703 
L 332.57114 308.247085 
L 333.314596 308.344102 
L 334.058052 308.256884 
L 334.801508 308.366414 
L 335.544963 309.06681 
L 338.518787 309.019585 
L 339.262243 308.872736 
L 340.005699 308.936868 
L 342.236067 308.75134 
L 342.979523 310.001605 
L 343.722978 310.215829 
L 347.440258 310.398125 
L 349.670626 310.421291 
L 350.414082 310.855074 
L 351.157537 310.981368 
L 351.900993 310.944133 
L 352.644449 310.709416 
L 353.387905 310.738289 
L 354.131361 310.538785 
L 354.874817 310.649543 
L 355.618273 310.473736 
L 356.361729 310.598874 
L 357.105185 310.49046 
L 357.848641 310.564887 
L 359.335552 310.584998 
L 363.796288 310.416323 
L 364.539744 310.249687 
L 365.2832 311.109897 
L 366.026656 311.024097 
L 367.513567 311.10208 
L 371.974303 311.006129 
L 372.717759 311.529476 
L 377.92195 311.123528 
L 378.665406 310.812729 
L 379.408862 311.071594 
L 380.152318 311.10193 
L 380.895774 311.278362 
L 382.382685 311.014648 
L 383.126141 311.148309 
L 383.869597 311.004835 
L 386.099965 310.927192 
L 388.330333 310.677519 
L 389.073789 310.856385 
L 394.27798 310.838975 
L 395.021436 311.352472 
L 397.251804 311.548305 
L 401.712539 311.626646 
L 402.455995 311.958001 
L 413.607833 311.9704 
L 418.812025 311.645261 
L 431.450775 311.646351 
L 431.450775 311.646351 
" clip-path="url(#p8b9b5e329a)" style="fill: none; stroke: #ff7f0e; stroke-width: 1.5; stroke-linecap: square"/>
   </g>
   <g id="patch_9">
    <path d="M 41.917054 317.72 
L 41.917054 194.28 
" style="fill: none; stroke: #000000; stroke-width: 0.8; stroke-linejoin: miter; stroke-linecap: square"/>
   </g>
   <g id="patch_10">
    <path d="M 450 317.72 
L 450 194.28 
" style="fill: none; stroke: #000000; stroke-width: 0.8; stroke-linejoin: miter; stroke-linecap: square"/>
   </g>
   <g id="patch_11">
    <path d="M 41.917054 317.72 
L 450 317.72 
" style="fill: none; stroke: #000000; stroke-width: 0.8; stroke-linejoin: miter; stroke-linecap: square"/>
   </g>
   <g id="patch_12">
    <path d="M 41.917054 194.28 
L 450 194.28 
" style="fill: none; stroke: #000000; stroke-width: 0.8; stroke-linejoin: miter; stroke-linecap: square"/>
   </g>
   <g id="text_28">
    <!-- adjoint model loss -->
    <g transform="translate(191.226339 188.28)scale(0.12 -0.12)">
     <defs>
      <path id="DejaVuSans-6a" d="M 603 3500 
L 1178 3500 
L 1178 -63 
Q 1178 -731 923 -1031 
Q 669 -1331 103 -1331 
L -116 -1331 
L -116 -844 
L 38 -844 
Q 366 -844 484 -692 
Q 603 -541 603 -63 
L 603 3500 
z
M 603 4863 
L 1178 4863 
L 1178 4134 
L 603 4134 
L 603 4863 
z
" transform="scale(0.015625)"/>
     </defs>
     <use xlink:href="#DejaVuSans-61"/>
     <use xlink:href="#DejaVuSans-64" x="61.279297"/>
     <use xlink:href="#DejaVuSans-6a" x="124.755859"/>
     <use xlink:href="#DejaVuSans-6f" x="152.539062"/>
     <use xlink:href="#DejaVuSans-69" x="213.720703"/>
     <use xlink:href="#DejaVuSans-6e" x="241.503906"/>
     <use xlink:href="#DejaVuSans-74" x="304.882812"/>
     <use xlink:href="#DejaVuSans-20" x="344.091797"/>
     <use xlink:href="#DejaVuSans-6d" x="375.878906"/>
     <use xlink:href="#DejaVuSans-6f" x="473.291016"/>
     <use xlink:href="#DejaVuSans-64" x="534.472656"/>
     <use xlink:href="#DejaVuSans-65" x="597.949219"/>
     <use xlink:href="#DejaVuSans-6c" x="659.472656"/>
     <use xlink:href="#DejaVuSans-20" x="687.255859"/>
     <use xlink:href="#DejaVuSans-6c" x="719.042969"/>
     <use xlink:href="#DejaVuSans-6f" x="746.826172"/>
     <use xlink:href="#DejaVuSans-73" x="808.007812"/>
     <use xlink:href="#DejaVuSans-73" x="860.107422"/>
    </g>
   </g>
   <g id="legend_2">
    <g id="patch_13">
     <path d="M 365.23125 231.63625 
L 443 231.63625 
Q 445 231.63625 445 229.63625 
L 445 201.28 
Q 445 199.28 443 199.28 
L 365.23125 199.28 
Q 363.23125 199.28 363.23125 201.28 
L 363.23125 229.63625 
Q 363.23125 231.63625 365.23125 231.63625 
z
" style="fill: #ffffff; opacity: 0.8; stroke: #cccccc; stroke-linejoin: miter"/>
    </g>
    <g id="line2d_98">
     <path d="M 367.23125 207.378438 
L 377.23125 207.378438 
L 387.23125 207.378438 
" style="fill: none; stroke: #1f77b4; stroke-width: 1.5; stroke-linecap: square"/>
    </g>
    <g id="text_29">
     <!-- train loss -->
     <g transform="translate(395.23125 210.878438)scale(0.1 -0.1)">
      <use xlink:href="#DejaVuSans-74"/>
      <use xlink:href="#DejaVuSans-72" x="39.208984"/>
      <use xlink:href="#DejaVuSans-61" x="80.322266"/>
      <use xlink:href="#DejaVuSans-69" x="141.601562"/>
      <use xlink:href="#DejaVuSans-6e" x="169.384766"/>
      <use xlink:href="#DejaVuSans-20" x="232.763672"/>
      <use xlink:href="#DejaVuSans-6c" x="264.550781"/>
      <use xlink:href="#DejaVuSans-6f" x="292.333984"/>
      <use xlink:href="#DejaVuSans-73" x="353.515625"/>
      <use xlink:href="#DejaVuSans-73" x="405.615234"/>
     </g>
    </g>
    <g id="line2d_99">
     <path d="M 367.23125 222.056563 
L 377.23125 222.056563 
L 387.23125 222.056563 
" style="fill: none; stroke: #ff7f0e; stroke-width: 1.5; stroke-linecap: square"/>
    </g>
    <g id="text_30">
     <!-- val loss -->
     <g transform="translate(395.23125 225.556563)scale(0.1 -0.1)">
      <use xlink:href="#DejaVuSans-76"/>
      <use xlink:href="#DejaVuSans-61" x="59.179688"/>
      <use xlink:href="#DejaVuSans-6c" x="120.458984"/>
      <use xlink:href="#DejaVuSans-20" x="148.242188"/>
      <use xlink:href="#DejaVuSans-6c" x="180.029297"/>
      <use xlink:href="#DejaVuSans-6f" x="207.8125"/>
      <use xlink:href="#DejaVuSans-73" x="268.994141"/>
      <use xlink:href="#DejaVuSans-73" x="321.09375"/>
     </g>
    </g>
   </g>
  </g>
 </g>
 <defs>
  <clipPath id="pd8d029736c">
   <rect x="41.917054" y="26.88" width="408.082946" height="123.44"/>
  </clipPath>
  <clipPath id="p8b9b5e329a">
   <rect x="41.917054" y="194.28" width="408.082946" height="123.44"/>
  </clipPath>
 </defs>
</svg>
