<?xml version="1.0" encoding="utf-8" standalone="no"?>
<!DOCTYPE svg PUBLIC "-//W3C//DTD SVG 1.1//EN"
  "http://www.w3.org/Graphics/SVG/1.1/DTD/svg11.dtd">
<svg xmlns:xlink="http://www.w3.org/1999/xlink" width="460.8pt" height="345.6pt" viewBox="0 0 460.8 345.6" xmlns="http://www.w3.org/2000/svg" version="1.1">
 <metadata>
  <rdf:RDF xmlns:dc="http://purl.org/dc/elements/1.1/" xmlns:cc="http://creativecommons.org/ns#" xmlns:rdf="http://www.w3.org/1999/02/22-rdf-syntax-ns#">
   <cc:Work>
    <dc:type rdf:resource="http://purl.org/dc/dcmitype/StillImage"/>
    <dc:date>2022-08-25T09:47:58.285732</dc:date>
    <dc:format>image/svg+xml</dc:format>
    <dc:creator>
     <cc:Agent>
      <dc:title>Matplotlib v3.5.1, https://matplotlib.org/</dc:title>
     </cc:Agent>
    </dc:creator>
   </cc:Work>
  </rdf:RDF>
 </metadata>
 <defs>
  <style type="text/css">*{stroke-linejoin: round; stroke-linecap: butt}</style>
 </defs>
 <g id="figure_1">
  <g id="patch_1">
   <path d="M 0 345.6 
L 460.8 345.6 
L 460.8 0 
L 0 0 
z
" style="fill: #ffffff"/>
  </g>
  <g id="axes_1">
   <g id="patch_2">
    <path d="M 41.917054 150.32 
L 450 150.32 
L 450 26.88 
L 41.917054 26.88 
z
" style="fill: #ffffff"/>
   </g>
   <g id="matplotlib.axis_1">
    <g id="xtick_1">
     <g id="line2d_1">
      <defs>
       <path id="m45dab2f196" d="M 0 0 
L 0 3.5 
" style="stroke: #000000; stroke-width: 0.8"/>
      </defs>
      <g>
       <use xlink:href="#m45dab2f196" x="60.466279" y="150.32" style="stroke: #000000; stroke-width: 0.8"/>
      </g>
     </g>
     <g id="text_1">
      <!-- 0 -->
      <g transform="translate(57.285029 164.918437)scale(0.1 -0.1)">
       <defs>
        <path id="DejaVuSans-30" d="M 2034 4250 
Q 1547 4250 1301 3770 
Q 1056 3291 1056 2328 
Q 1056 1369 1301 889 
Q 1547 409 2034 409 
Q 2525 409 2770 889 
Q 3016 1369 3016 2328 
Q 3016 3291 2770 3770 
Q 2525 4250 2034 4250 
z
M 2034 4750 
Q 2819 4750 3233 4129 
Q 3647 3509 3647 2328 
Q 3647 1150 3233 529 
Q 2819 -91 2034 -91 
Q 1250 -91 836 529 
Q 422 1150 422 2328 
Q 422 3509 836 4129 
Q 1250 4750 2034 4750 
z
" transform="scale(0.015625)"/>
       </defs>
       <use xlink:href="#DejaVuSans-30"/>
      </g>
     </g>
    </g>
    <g id="xtick_2">
     <g id="line2d_2">
      <g>
       <use xlink:href="#m45dab2f196" x="106.955564" y="150.32" style="stroke: #000000; stroke-width: 0.8"/>
      </g>
     </g>
     <g id="text_2">
      <!-- 50 -->
      <g transform="translate(100.593064 164.918437)scale(0.1 -0.1)">
       <defs>
        <path id="DejaVuSans-35" d="M 691 4666 
L 3169 4666 
L 3169 4134 
L 1269 4134 
L 1269 2991 
Q 1406 3038 1543 3061 
Q 1681 3084 1819 3084 
Q 2600 3084 3056 2656 
Q 3513 2228 3513 1497 
Q 3513 744 3044 326 
Q 2575 -91 1722 -91 
Q 1428 -91 1123 -41 
Q 819 9 494 109 
L 494 744 
Q 775 591 1075 516 
Q 1375 441 1709 441 
Q 2250 441 2565 725 
Q 2881 1009 2881 1497 
Q 2881 1984 2565 2268 
Q 2250 2553 1709 2553 
Q 1456 2553 1204 2497 
Q 953 2441 691 2322 
L 691 4666 
z
" transform="scale(0.015625)"/>
       </defs>
       <use xlink:href="#DejaVuSans-35"/>
       <use xlink:href="#DejaVuSans-30" x="63.623047"/>
      </g>
     </g>
    </g>
    <g id="xtick_3">
     <g id="line2d_3">
      <g>
       <use xlink:href="#m45dab2f196" x="153.444849" y="150.32" style="stroke: #000000; stroke-width: 0.8"/>
      </g>
     </g>
     <g id="text_3">
      <!-- 100 -->
      <g transform="translate(143.901099 164.918437)scale(0.1 -0.1)">
       <defs>
        <path id="DejaVuSans-31" d="M 794 531 
L 1825 531 
L 1825 4091 
L 703 3866 
L 703 4441 
L 1819 4666 
L 2450 4666 
L 2450 531 
L 3481 531 
L 3481 0 
L 794 0 
L 794 531 
z
" transform="scale(0.015625)"/>
       </defs>
       <use xlink:href="#DejaVuSans-31"/>
       <use xlink:href="#DejaVuSans-30" x="63.623047"/>
       <use xlink:href="#DejaVuSans-30" x="127.246094"/>
      </g>
     </g>
    </g>
    <g id="xtick_4">
     <g id="line2d_4">
      <g>
       <use xlink:href="#m45dab2f196" x="199.934135" y="150.32" style="stroke: #000000; stroke-width: 0.8"/>
      </g>
     </g>
     <g id="text_4">
      <!-- 150 -->
      <g transform="translate(190.390385 164.918437)scale(0.1 -0.1)">
       <use xlink:href="#DejaVuSans-31"/>
       <use xlink:href="#DejaVuSans-35" x="63.623047"/>
       <use xlink:href="#DejaVuSans-30" x="127.246094"/>
      </g>
     </g>
    </g>
    <g id="xtick_5">
     <g id="line2d_5">
      <g>
       <use xlink:href="#m45dab2f196" x="246.42342" y="150.32" style="stroke: #000000; stroke-width: 0.8"/>
      </g>
     </g>
     <g id="text_5">
      <!-- 200 -->
      <g transform="translate(236.87967 164.918437)scale(0.1 -0.1)">
       <defs>
        <path id="DejaVuSans-32" d="M 1228 531 
L 3431 531 
L 3431 0 
L 469 0 
L 469 531 
Q 828 903 1448 1529 
Q 2069 2156 2228 2338 
Q 2531 2678 2651 2914 
Q 2772 3150 2772 3378 
Q 2772 3750 2511 3984 
Q 2250 4219 1831 4219 
Q 1534 4219 1204 4116 
Q 875 4013 500 3803 
L 500 4441 
Q 881 4594 1212 4672 
Q 1544 4750 1819 4750 
Q 2544 4750 2975 4387 
Q 3406 4025 3406 3419 
Q 3406 3131 3298 2873 
Q 3191 2616 2906 2266 
Q 2828 2175 2409 1742 
Q 1991 1309 1228 531 
z
" transform="scale(0.015625)"/>
       </defs>
       <use xlink:href="#DejaVuSans-32"/>
       <use xlink:href="#DejaVuSans-30" x="63.623047"/>
       <use xlink:href="#DejaVuSans-30" x="127.246094"/>
      </g>
     </g>
    </g>
    <g id="xtick_6">
     <g id="line2d_6">
      <g>
       <use xlink:href="#m45dab2f196" x="292.912705" y="150.32" style="stroke: #000000; stroke-width: 0.8"/>
      </g>
     </g>
     <g id="text_6">
      <!-- 250 -->
      <g transform="translate(283.368955 164.918437)scale(0.1 -0.1)">
       <use xlink:href="#DejaVuSans-32"/>
       <use xlink:href="#DejaVuSans-35" x="63.623047"/>
       <use xlink:href="#DejaVuSans-30" x="127.246094"/>
      </g>
     </g>
    </g>
    <g id="xtick_7">
     <g id="line2d_7">
      <g>
       <use xlink:href="#m45dab2f196" x="339.40199" y="150.32" style="stroke: #000000; stroke-width: 0.8"/>
      </g>
     </g>
     <g id="text_7">
      <!-- 300 -->
      <g transform="translate(329.85824 164.918437)scale(0.1 -0.1)">
       <defs>
        <path id="DejaVuSans-33" d="M 2597 2516 
Q 3050 2419 3304 2112 
Q 3559 1806 3559 1356 
Q 3559 666 3084 287 
Q 2609 -91 1734 -91 
Q 1441 -91 1130 -33 
Q 819 25 488 141 
L 488 750 
Q 750 597 1062 519 
Q 1375 441 1716 441 
Q 2309 441 2620 675 
Q 2931 909 2931 1356 
Q 2931 1769 2642 2001 
Q 2353 2234 1838 2234 
L 1294 2234 
L 1294 2753 
L 1863 2753 
Q 2328 2753 2575 2939 
Q 2822 3125 2822 3475 
Q 2822 3834 2567 4026 
Q 2313 4219 1838 4219 
Q 1578 4219 1281 4162 
Q 984 4106 628 3988 
L 628 4550 
Q 988 4650 1302 4700 
Q 1616 4750 1894 4750 
Q 2613 4750 3031 4423 
Q 3450 4097 3450 3541 
Q 3450 3153 3228 2886 
Q 3006 2619 2597 2516 
z
" transform="scale(0.015625)"/>
       </defs>
       <use xlink:href="#DejaVuSans-33"/>
       <use xlink:href="#DejaVuSans-30" x="63.623047"/>
       <use xlink:href="#DejaVuSans-30" x="127.246094"/>
      </g>
     </g>
    </g>
    <g id="xtick_8">
     <g id="line2d_8">
      <g>
       <use xlink:href="#m45dab2f196" x="385.891276" y="150.32" style="stroke: #000000; stroke-width: 0.8"/>
      </g>
     </g>
     <g id="text_8">
      <!-- 350 -->
      <g transform="translate(376.347526 164.918437)scale(0.1 -0.1)">
       <use xlink:href="#DejaVuSans-33"/>
       <use xlink:href="#DejaVuSans-35" x="63.623047"/>
       <use xlink:href="#DejaVuSans-30" x="127.246094"/>
      </g>
     </g>
    </g>
    <g id="xtick_9">
     <g id="line2d_9">
      <g>
       <use xlink:href="#m45dab2f196" x="432.380561" y="150.32" style="stroke: #000000; stroke-width: 0.8"/>
      </g>
     </g>
     <g id="text_9">
      <!-- 400 -->
      <g transform="translate(422.836811 164.918437)scale(0.1 -0.1)">
       <defs>
        <path id="DejaVuSans-34" d="M 2419 4116 
L 825 1625 
L 2419 1625 
L 2419 4116 
z
M 2253 4666 
L 3047 4666 
L 3047 1625 
L 3713 1625 
L 3713 1100 
L 3047 1100 
L 3047 0 
L 2419 0 
L 2419 1100 
L 313 1100 
L 313 1709 
L 2253 4666 
z
" transform="scale(0.015625)"/>
       </defs>
       <use xlink:href="#DejaVuSans-34"/>
       <use xlink:href="#DejaVuSans-30" x="63.623047"/>
       <use xlink:href="#DejaVuSans-30" x="127.246094"/>
      </g>
     </g>
    </g>
   </g>
   <g id="matplotlib.axis_2">
    <g id="ytick_1">
     <g id="line2d_10">
      <defs>
       <path id="m8302fc541e" d="M 0 0 
L -3.5 0 
" style="stroke: #000000; stroke-width: 0.8"/>
      </defs>
      <g>
       <use xlink:href="#m8302fc541e" x="41.917054" y="141.758379" style="stroke: #000000; stroke-width: 0.8"/>
      </g>
     </g>
     <g id="text_10">
      <!-- $\mathdefault{10^{-4}}$ -->
      <g transform="translate(11.417054 145.557598)scale(0.1 -0.1)">
       <defs>
        <path id="DejaVuSans-2212" d="M 678 2272 
L 4684 2272 
L 4684 1741 
L 678 1741 
L 678 2272 
z
" transform="scale(0.015625)"/>
       </defs>
       <use xlink:href="#DejaVuSans-31" transform="translate(0 0.684375)"/>
       <use xlink:href="#DejaVuSans-30" transform="translate(63.623047 0.684375)"/>
       <use xlink:href="#DejaVuSans-2212" transform="translate(128.203125 38.965625)scale(0.7)"/>
       <use xlink:href="#DejaVuSans-34" transform="translate(186.855469 38.965625)scale(0.7)"/>
      </g>
     </g>
    </g>
    <g id="ytick_2">
     <g id="line2d_11">
      <g>
       <use xlink:href="#m8302fc541e" x="41.917054" y="110.101403" style="stroke: #000000; stroke-width: 0.8"/>
      </g>
     </g>
     <g id="text_11">
      <!-- $\mathdefault{10^{-3}}$ -->
      <g transform="translate(11.417054 113.900622)scale(0.1 -0.1)">
       <use xlink:href="#DejaVuSans-31" transform="translate(0 0.765625)"/>
       <use xlink:href="#DejaVuSans-30" transform="translate(63.623047 0.765625)"/>
       <use xlink:href="#DejaVuSans-2212" transform="translate(128.203125 39.046875)scale(0.7)"/>
       <use xlink:href="#DejaVuSans-33" transform="translate(186.855469 39.046875)scale(0.7)"/>
      </g>
     </g>
    </g>
    <g id="ytick_3">
     <g id="line2d_12">
      <g>
       <use xlink:href="#m8302fc541e" x="41.917054" y="78.444427" style="stroke: #000000; stroke-width: 0.8"/>
      </g>
     </g>
     <g id="text_12">
      <!-- $\mathdefault{10^{-2}}$ -->
      <g transform="translate(11.417054 82.243646)scale(0.1 -0.1)">
       <use xlink:href="#DejaVuSans-31" transform="translate(0 0.765625)"/>
       <use xlink:href="#DejaVuSans-30" transform="translate(63.623047 0.765625)"/>
       <use xlink:href="#DejaVuSans-2212" transform="translate(128.203125 39.046875)scale(0.7)"/>
       <use xlink:href="#DejaVuSans-32" transform="translate(186.855469 39.046875)scale(0.7)"/>
      </g>
     </g>
    </g>
    <g id="ytick_4">
     <g id="line2d_13">
      <g>
       <use xlink:href="#m8302fc541e" x="41.917054" y="46.787451" style="stroke: #000000; stroke-width: 0.8"/>
      </g>
     </g>
     <g id="text_13">
      <!-- $\mathdefault{10^{-1}}$ -->
      <g transform="translate(11.417054 50.58667)scale(0.1 -0.1)">
       <use xlink:href="#DejaVuSans-31" transform="translate(0 0.684375)"/>
       <use xlink:href="#DejaVuSans-30" transform="translate(63.623047 0.684375)"/>
       <use xlink:href="#DejaVuSans-2212" transform="translate(128.203125 38.965625)scale(0.7)"/>
       <use xlink:href="#DejaVuSans-31" transform="translate(186.855469 38.965625)scale(0.7)"/>
      </g>
     </g>
    </g>
    <g id="ytick_5">
     <g id="line2d_14">
      <defs>
       <path id="mdde49e7443" d="M 0 0 
L -2 0 
" style="stroke: #000000; stroke-width: 0.6"/>
      </defs>
      <g>
       <use xlink:href="#mdde49e7443" x="41.917054" y="148.78144" style="stroke: #000000; stroke-width: 0.6"/>
      </g>
     </g>
    </g>
    <g id="ytick_6">
     <g id="line2d_15">
      <g>
       <use xlink:href="#mdde49e7443" x="41.917054" y="146.662107" style="stroke: #000000; stroke-width: 0.6"/>
      </g>
     </g>
    </g>
    <g id="ytick_7">
     <g id="line2d_16">
      <g>
       <use xlink:href="#mdde49e7443" x="41.917054" y="144.826257" style="stroke: #000000; stroke-width: 0.6"/>
      </g>
     </g>
    </g>
    <g id="ytick_8">
     <g id="line2d_17">
      <g>
       <use xlink:href="#mdde49e7443" x="41.917054" y="143.206923" style="stroke: #000000; stroke-width: 0.6"/>
      </g>
     </g>
    </g>
    <g id="ytick_9">
     <g id="line2d_18">
      <g>
       <use xlink:href="#mdde49e7443" x="41.917054" y="132.22868" style="stroke: #000000; stroke-width: 0.6"/>
      </g>
     </g>
    </g>
    <g id="ytick_10">
     <g id="line2d_19">
      <g>
       <use xlink:href="#mdde49e7443" x="41.917054" y="126.654163" style="stroke: #000000; stroke-width: 0.6"/>
      </g>
     </g>
    </g>
    <g id="ytick_11">
     <g id="line2d_20">
      <g>
       <use xlink:href="#mdde49e7443" x="41.917054" y="122.69898" style="stroke: #000000; stroke-width: 0.6"/>
      </g>
     </g>
    </g>
    <g id="ytick_12">
     <g id="line2d_21">
      <g>
       <use xlink:href="#mdde49e7443" x="41.917054" y="119.631102" style="stroke: #000000; stroke-width: 0.6"/>
      </g>
     </g>
    </g>
    <g id="ytick_13">
     <g id="line2d_22">
      <g>
       <use xlink:href="#mdde49e7443" x="41.917054" y="117.124464" style="stroke: #000000; stroke-width: 0.6"/>
      </g>
     </g>
    </g>
    <g id="ytick_14">
     <g id="line2d_23">
      <g>
       <use xlink:href="#mdde49e7443" x="41.917054" y="115.005131" style="stroke: #000000; stroke-width: 0.6"/>
      </g>
     </g>
    </g>
    <g id="ytick_15">
     <g id="line2d_24">
      <g>
       <use xlink:href="#mdde49e7443" x="41.917054" y="113.169281" style="stroke: #000000; stroke-width: 0.6"/>
      </g>
     </g>
    </g>
    <g id="ytick_16">
     <g id="line2d_25">
      <g>
       <use xlink:href="#mdde49e7443" x="41.917054" y="111.549947" style="stroke: #000000; stroke-width: 0.6"/>
      </g>
     </g>
    </g>
    <g id="ytick_17">
     <g id="line2d_26">
      <g>
       <use xlink:href="#mdde49e7443" x="41.917054" y="100.571704" style="stroke: #000000; stroke-width: 0.6"/>
      </g>
     </g>
    </g>
    <g id="ytick_18">
     <g id="line2d_27">
      <g>
       <use xlink:href="#mdde49e7443" x="41.917054" y="94.997187" style="stroke: #000000; stroke-width: 0.6"/>
      </g>
     </g>
    </g>
    <g id="ytick_19">
     <g id="line2d_28">
      <g>
       <use xlink:href="#mdde49e7443" x="41.917054" y="91.042004" style="stroke: #000000; stroke-width: 0.6"/>
      </g>
     </g>
    </g>
    <g id="ytick_20">
     <g id="line2d_29">
      <g>
       <use xlink:href="#mdde49e7443" x="41.917054" y="87.974126" style="stroke: #000000; stroke-width: 0.6"/>
      </g>
     </g>
    </g>
    <g id="ytick_21">
     <g id="line2d_30">
      <g>
       <use xlink:href="#mdde49e7443" x="41.917054" y="85.467488" style="stroke: #000000; stroke-width: 0.6"/>
      </g>
     </g>
    </g>
    <g id="ytick_22">
     <g id="line2d_31">
      <g>
       <use xlink:href="#mdde49e7443" x="41.917054" y="83.348155" style="stroke: #000000; stroke-width: 0.6"/>
      </g>
     </g>
    </g>
    <g id="ytick_23">
     <g id="line2d_32">
      <g>
       <use xlink:href="#mdde49e7443" x="41.917054" y="81.512305" style="stroke: #000000; stroke-width: 0.6"/>
      </g>
     </g>
    </g>
    <g id="ytick_24">
     <g id="line2d_33">
      <g>
       <use xlink:href="#mdde49e7443" x="41.917054" y="79.892971" style="stroke: #000000; stroke-width: 0.6"/>
      </g>
     </g>
    </g>
    <g id="ytick_25">
     <g id="line2d_34">
      <g>
       <use xlink:href="#mdde49e7443" x="41.917054" y="68.914728" style="stroke: #000000; stroke-width: 0.6"/>
      </g>
     </g>
    </g>
    <g id="ytick_26">
     <g id="line2d_35">
      <g>
       <use xlink:href="#mdde49e7443" x="41.917054" y="63.340211" style="stroke: #000000; stroke-width: 0.6"/>
      </g>
     </g>
    </g>
    <g id="ytick_27">
     <g id="line2d_36">
      <g>
       <use xlink:href="#mdde49e7443" x="41.917054" y="59.385028" style="stroke: #000000; stroke-width: 0.6"/>
      </g>
     </g>
    </g>
    <g id="ytick_28">
     <g id="line2d_37">
      <g>
       <use xlink:href="#mdde49e7443" x="41.917054" y="56.31715" style="stroke: #000000; stroke-width: 0.6"/>
      </g>
     </g>
    </g>
    <g id="ytick_29">
     <g id="line2d_38">
      <g>
       <use xlink:href="#mdde49e7443" x="41.917054" y="53.810512" style="stroke: #000000; stroke-width: 0.6"/>
      </g>
     </g>
    </g>
    <g id="ytick_30">
     <g id="line2d_39">
      <g>
       <use xlink:href="#mdde49e7443" x="41.917054" y="51.691179" style="stroke: #000000; stroke-width: 0.6"/>
      </g>
     </g>
    </g>
    <g id="ytick_31">
     <g id="line2d_40">
      <g>
       <use xlink:href="#mdde49e7443" x="41.917054" y="49.855329" style="stroke: #000000; stroke-width: 0.6"/>
      </g>
     </g>
    </g>
    <g id="ytick_32">
     <g id="line2d_41">
      <g>
       <use xlink:href="#mdde49e7443" x="41.917054" y="48.235995" style="stroke: #000000; stroke-width: 0.6"/>
      </g>
     </g>
    </g>
    <g id="ytick_33">
     <g id="line2d_42">
      <g>
       <use xlink:href="#mdde49e7443" x="41.917054" y="37.257752" style="stroke: #000000; stroke-width: 0.6"/>
      </g>
     </g>
    </g>
    <g id="ytick_34">
     <g id="line2d_43">
      <g>
       <use xlink:href="#mdde49e7443" x="41.917054" y="31.683235" style="stroke: #000000; stroke-width: 0.6"/>
      </g>
     </g>
    </g>
    <g id="ytick_35">
     <g id="line2d_44">
      <g>
       <use xlink:href="#mdde49e7443" x="41.917054" y="27.728052" style="stroke: #000000; stroke-width: 0.6"/>
      </g>
     </g>
    </g>
   </g>
   <g id="line2d_45">
    <path d="M 60.466279 32.490909 
L 61.396064 73.009107 
L 62.32585 79.138938 
L 63.255636 90.14658 
L 64.185422 97.568076 
L 66.044993 103.194274 
L 66.974779 105.800631 
L 67.904564 105.119094 
L 68.83435 109.881801 
L 70.693921 114.004637 
L 72.553493 117.211403 
L 74.413064 119.953479 
L 75.34285 124.712845 
L 76.272636 126.866914 
L 77.202421 128.502583 
L 79.061993 130.292176 
L 79.991779 130.755036 
L 81.85135 131.33904 
L 82.781136 134.065036 
L 83.710921 134.375036 
L 87.430064 135.011303 
L 89.289636 135.140808 
L 90.219421 133.295895 
L 93.008778 133.424821 
L 96.727921 133.562038 
L 97.657707 136.511075 
L 103.236421 136.644224 
L 104.166207 136.659844 
L 105.095993 134.684966 
L 111.604493 134.733265 
L 112.534278 136.522026 
L 118.112992 136.567449 
L 119.042778 136.597134 
L 119.972564 135.6849 
L 126.481064 135.720233 
L 127.41085 134.687885 
L 133.919349 134.753309 
L 134.849135 138.193973 
L 138.568278 138.288282 
L 141.357635 138.323199 
L 142.287421 137.853612 
L 143.217207 137.965702 
L 146.006564 137.920049 
L 147.866135 138.036263 
L 148.795921 137.973027 
L 149.725706 137.157936 
L 150.655492 136.975692 
L 151.585278 137.141139 
L 152.515064 136.975606 
L 154.374635 137.041081 
L 155.304421 137.098441 
L 156.234206 136.985683 
L 157.163992 135.920804 
L 158.093778 136.168259 
L 159.023563 136.064801 
L 163.672492 136.316555 
L 164.602278 134.986492 
L 169.251206 135.038613 
L 170.180992 135.221912 
L 171.110778 135.106392 
L 172.040563 135.971029 
L 174.82992 136.162803 
L 175.759706 135.906095 
L 176.689492 136.191977 
L 178.549063 136.074543 
L 179.478849 137.075368 
L 180.408635 136.969256 
L 181.33842 137.028623 
L 182.268206 136.963675 
L 183.197992 137.263231 
L 184.127778 137.026067 
L 185.057563 136.968899 
L 185.987349 137.025908 
L 186.917135 138.24499 
L 189.706492 138.516016 
L 192.495849 138.31615 
L 193.425635 138.468769 
L 194.35542 139.66494 
L 195.285206 139.832787 
L 197.144777 139.842841 
L 198.074563 139.639773 
L 199.004349 139.90199 
L 199.934135 139.716039 
L 200.86392 139.855209 
L 201.793706 136.987735 
L 203.653277 137.366203 
L 204.583063 137.320816 
L 205.512849 136.959011 
L 206.442634 137.030175 
L 207.37242 137.325387 
L 208.302206 137.247231 
L 210.161777 137.452335 
L 211.091563 137.387294 
L 212.021349 137.517784 
L 212.951134 137.463594 
L 213.88092 137.653049 
L 214.810706 137.495032 
L 215.740492 137.560884 
L 216.670277 136.756701 
L 220.38942 136.881412 
L 221.319206 136.770889 
L 222.248991 137.072777 
L 224.108563 136.760362 
L 225.038349 136.889946 
L 225.968134 136.68443 
L 226.89792 137.017743 
L 227.827706 136.791213 
L 230.617063 136.699432 
L 231.546849 134.889129 
L 232.476634 134.784695 
L 233.40642 134.988423 
L 236.195777 134.917475 
L 237.125563 134.975598 
L 238.055348 134.906436 
L 238.985134 134.581232 
L 239.91492 134.622316 
L 240.844706 134.874633 
L 241.774491 134.675241 
L 242.704277 134.680608 
L 244.563848 134.541784 
L 245.493634 134.803076 
L 246.42342 135.7366 
L 247.353206 136.044991 
L 250.142563 136.006423 
L 251.072348 136.008652 
L 252.002134 136.169369 
L 252.93192 135.856902 
L 253.861705 135.359852 
L 254.791491 135.138363 
L 255.721277 135.211935 
L 257.580848 135.059002 
L 260.370205 135.210873 
L 261.299991 136.088427 
L 263.159563 136.238133 
L 264.089348 136.046854 
L 265.94892 136.079789 
L 266.878705 135.928319 
L 267.808491 136.053777 
L 268.738277 134.99251 
L 271.527634 135.012915 
L 272.45742 134.792419 
L 273.387205 134.964996 
L 274.316991 134.954417 
L 275.246777 135.064535 
L 276.176562 133.862837 
L 277.106348 133.928513 
L 278.965919 133.770415 
L 279.895705 133.94789 
L 282.685062 133.855131 
L 283.614848 134.99327 
L 284.544634 135.01029 
L 285.474419 134.874856 
L 287.333991 135.063738 
L 289.193562 135.061864 
L 290.123348 134.962415 
L 291.053134 135.548231 
L 291.982919 135.38817 
L 292.912705 135.351303 
L 293.842491 135.492301 
L 294.772276 135.310485 
L 296.631848 135.257134 
L 297.561634 135.427945 
L 298.491419 134.732881 
L 299.421205 134.87106 
L 300.350991 134.876232 
L 301.280776 134.674523 
L 302.210562 134.874456 
L 303.140348 134.607454 
L 304.070134 134.799035 
L 304.999919 134.716107 
L 305.929705 136.406372 
L 306.859491 136.649218 
L 307.789276 136.470792 
L 308.719062 136.6524 
L 313.367991 136.725842 
L 315.227562 136.951883 
L 316.157348 136.742818 
L 318.016919 136.944687 
L 318.946705 136.791228 
L 319.876491 136.897874 
L 320.806276 136.12696 
L 322.665848 136.10499 
L 324.525419 136.405017 
L 325.455205 136.033603 
L 327.314776 136.192872 
L 328.244562 133.259531 
L 329.174348 133.22381 
L 330.104133 133.426497 
L 332.89349 133.192539 
L 334.753062 133.295722 
L 335.682848 132.406311 
L 336.612633 132.197601 
L 337.542419 132.363306 
L 339.40199 132.37324 
L 340.331776 132.452518 
L 341.261562 132.40769 
L 342.191347 132.488439 
L 343.121133 135.268211 
L 344.050919 135.474087 
L 345.91049 135.395954 
L 346.840276 135.459963 
L 347.770062 135.394194 
L 348.699847 135.54361 
L 349.629633 135.496335 
L 350.559419 134.035061 
L 351.489205 134.167985 
L 352.41899 134.010362 
L 353.348776 134.189003 
L 356.138133 133.911517 
L 357.067919 134.035395 
L 357.997704 134.620523 
L 358.92749 134.823897 
L 359.857276 134.653246 
L 360.787062 134.864008 
L 361.716847 134.616405 
L 362.646633 134.857447 
L 364.506204 134.870885 
L 365.43599 132.722959 
L 366.365776 132.667316 
L 367.295562 132.472164 
L 368.225347 132.599882 
L 370.084919 132.480432 
L 371.014704 132.76099 
L 371.94449 132.711239 
L 372.874276 135.568348 
L 373.804061 135.617328 
L 374.733847 135.503144 
L 375.663633 135.628033 
L 376.593419 135.540194 
L 377.523204 135.863882 
L 378.45299 135.695256 
L 379.382776 135.663846 
L 380.312561 133.559458 
L 382.172133 133.596772 
L 383.101918 133.495756 
L 386.821061 133.725961 
L 387.750847 131.702616 
L 389.610418 131.799803 
L 391.46999 131.850065 
L 392.399776 131.691698 
L 394.259347 131.919698 
L 395.189133 131.269577 
L 397.048704 131.284071 
L 399.838061 131.071778 
L 400.767847 131.207044 
L 401.697633 131.096477 
L 402.627418 133.242924 
L 404.48699 133.325819 
L 407.276347 133.429709 
L 408.206133 133.122336 
L 409.135918 133.407963 
L 410.065704 134.24892 
L 410.99549 134.122371 
L 412.855061 134.319631 
L 414.714632 134.237085 
L 415.644418 134.464561 
L 416.574204 134.231245 
L 417.50399 132.926978 
L 418.433775 132.859125 
L 419.363561 132.905573 
L 420.293347 132.838896 
L 421.223132 133.035121 
L 422.152918 132.888621 
L 423.082704 133.149811 
L 424.01249 133.038455 
L 424.942275 134.0862 
L 428.661418 134.263212 
L 430.520989 134.152668 
L 431.450775 134.267186 
L 431.450775 134.267186 
" clip-path="url(#pd0c4d14a26)" style="fill: none; stroke: #1f77b4; stroke-width: 1.5; stroke-linecap: square"/>
   </g>
   <g id="line2d_46">
    <path d="M 60.466279 74.189459 
L 61.396064 78.94626 
L 63.255636 98.107985 
L 65.115207 104.06417 
L 66.044993 104.999722 
L 66.974779 107.607217 
L 67.904564 107.589386 
L 68.83435 113.835291 
L 69.764136 115.708541 
L 70.693921 118.326871 
L 71.623707 120.528581 
L 72.553493 120.871105 
L 73.483279 120.732896 
L 74.413064 125.78123 
L 75.34285 129.88972 
L 76.272636 132.560978 
L 77.202421 133.31064 
L 78.132207 135.769487 
L 79.061993 136.097479 
L 79.991779 137.268413 
L 81.85135 138.136984 
L 82.781136 139.441961 
L 83.710921 140.232577 
L 85.570493 140.197215 
L 86.500278 140.831411 
L 87.430064 140.870689 
L 88.35985 141.159699 
L 89.289636 141.144008 
L 90.219421 142.344094 
L 91.149207 142.066783 
L 92.078993 142.448707 
L 93.008778 142.680478 
L 93.938564 142.638642 
L 94.86835 142.776598 
L 96.727921 142.826499 
L 97.657707 143.372527 
L 98.587493 143.48958 
L 100.447064 143.550108 
L 101.37685 143.341484 
L 102.306635 143.544306 
L 103.236421 143.624311 
L 104.166207 143.549463 
L 105.095993 144.151087 
L 106.955564 144.153779 
L 113.464064 144.323045 
L 114.39385 144.501419 
L 133.919349 144.64947 
L 134.849135 144.483648 
L 141.357635 144.468422 
L 142.287421 144.04002 
L 143.217207 144.689464 
L 148.795921 144.709091 
L 149.725706 143.687343 
L 150.655492 144.586659 
L 156.234206 144.582908 
L 157.163992 144.38551 
L 161.812921 144.411497 
L 164.602278 144.309223 
L 165.532063 144.137461 
L 166.461849 144.314478 
L 167.391635 144.213994 
L 169.251206 144.30806 
L 171.110778 144.309328 
L 172.040563 144.165869 
L 178.549063 144.175893 
L 179.478849 143.822681 
L 180.408635 143.7931 
L 181.33842 143.613939 
L 184.127778 143.705187 
L 188.776706 143.497683 
L 193.425635 143.55898 
L 194.35542 143.807271 
L 196.214992 143.915393 
L 200.86392 143.939542 
L 201.793706 143.796875 
L 208.302206 143.796544 
L 209.231992 143.451533 
L 215.740492 143.296552 
L 216.670277 143.65068 
L 220.38942 143.703282 
L 223.178777 143.705185 
L 224.108563 143.253386 
L 230.617063 143.256136 
L 231.546849 142.917591 
L 252.93192 142.962611 
L 253.861705 142.537794 
L 267.808491 142.586484 
L 268.738277 142.309496 
L 275.246777 142.308793 
L 276.176562 142.702176 
L 282.685062 142.696439 
L 283.614848 141.971551 
L 290.123348 141.967046 
L 291.053134 142.094648 
L 297.561634 142.101775 
L 298.491419 142.466449 
L 304.999919 142.468352 
L 305.929705 141.494969 
L 312.438205 141.49974 
L 313.367991 141.738524 
L 320.806276 141.652912 
L 327.314776 141.654474 
L 328.244562 141.507773 
L 334.753062 141.503908 
L 335.682848 141.18258 
L 343.121133 141.116736 
L 346.840276 141.176044 
L 349.629633 141.179931 
L 350.559419 140.978183 
L 357.067919 140.982163 
L 357.997704 140.661091 
L 366.365776 140.571435 
L 371.94449 140.486889 
L 373.804061 140.604447 
L 386.821061 140.765246 
L 387.750847 140.554245 
L 394.259347 140.552403 
L 395.189133 140.411771 
L 401.697633 140.388358 
L 402.627418 139.998039 
L 409.135918 140.017682 
L 410.065704 140.254891 
L 417.50399 140.207909 
L 423.082704 140.239794 
L 424.01249 140.240402 
L 424.942275 139.86445 
L 431.450775 139.870854 
L 431.450775 139.870854 
" clip-path="url(#pd0c4d14a26)" style="fill: none; stroke: #ff7f0e; stroke-width: 1.5; stroke-linecap: square"/>
   </g>
   <g id="patch_3">
    <path d="M 41.917054 150.32 
L 41.917054 26.88 
" style="fill: none; stroke: #000000; stroke-width: 0.8; stroke-linejoin: miter; stroke-linecap: square"/>
   </g>
   <g id="patch_4">
    <path d="M 450 150.32 
L 450 26.88 
" style="fill: none; stroke: #000000; stroke-width: 0.8; stroke-linejoin: miter; stroke-linecap: square"/>
   </g>
   <g id="patch_5">
    <path d="M 41.917054 150.32 
L 450 150.32 
" style="fill: none; stroke: #000000; stroke-width: 0.8; stroke-linejoin: miter; stroke-linecap: square"/>
   </g>
   <g id="patch_6">
    <path d="M 41.917054 26.88 
L 450 26.88 
" style="fill: none; stroke: #000000; stroke-width: 0.8; stroke-linejoin: miter; stroke-linecap: square"/>
   </g>
   <g id="text_14">
    <!-- model loss -->
    <g transform="translate(213.778839 20.88)scale(0.12 -0.12)">
     <defs>
      <path id="DejaVuSans-6d" d="M 3328 2828 
Q 3544 3216 3844 3400 
Q 4144 3584 4550 3584 
Q 5097 3584 5394 3201 
Q 5691 2819 5691 2113 
L 5691 0 
L 5113 0 
L 5113 2094 
Q 5113 2597 4934 2840 
Q 4756 3084 4391 3084 
Q 3944 3084 3684 2787 
Q 3425 2491 3425 1978 
L 3425 0 
L 2847 0 
L 2847 2094 
Q 2847 2600 2669 2842 
Q 2491 3084 2119 3084 
Q 1678 3084 1418 2786 
Q 1159 2488 1159 1978 
L 1159 0 
L 581 0 
L 581 3500 
L 1159 3500 
L 1159 2956 
Q 1356 3278 1631 3431 
Q 1906 3584 2284 3584 
Q 2666 3584 2933 3390 
Q 3200 3197 3328 2828 
z
" transform="scale(0.015625)"/>
      <path id="DejaVuSans-6f" d="M 1959 3097 
Q 1497 3097 1228 2736 
Q 959 2375 959 1747 
Q 959 1119 1226 758 
Q 1494 397 1959 397 
Q 2419 397 2687 759 
Q 2956 1122 2956 1747 
Q 2956 2369 2687 2733 
Q 2419 3097 1959 3097 
z
M 1959 3584 
Q 2709 3584 3137 3096 
Q 3566 2609 3566 1747 
Q 3566 888 3137 398 
Q 2709 -91 1959 -91 
Q 1206 -91 779 398 
Q 353 888 353 1747 
Q 353 2609 779 3096 
Q 1206 3584 1959 3584 
z
" transform="scale(0.015625)"/>
      <path id="DejaVuSans-64" d="M 2906 2969 
L 2906 4863 
L 3481 4863 
L 3481 0 
L 2906 0 
L 2906 525 
Q 2725 213 2448 61 
Q 2172 -91 1784 -91 
Q 1150 -91 751 415 
Q 353 922 353 1747 
Q 353 2572 751 3078 
Q 1150 3584 1784 3584 
Q 2172 3584 2448 3432 
Q 2725 3281 2906 2969 
z
M 947 1747 
Q 947 1113 1208 752 
Q 1469 391 1925 391 
Q 2381 391 2643 752 
Q 2906 1113 2906 1747 
Q 2906 2381 2643 2742 
Q 2381 3103 1925 3103 
Q 1469 3103 1208 2742 
Q 947 2381 947 1747 
z
" transform="scale(0.015625)"/>
      <path id="DejaVuSans-65" d="M 3597 1894 
L 3597 1613 
L 953 1613 
Q 991 1019 1311 708 
Q 1631 397 2203 397 
Q 2534 397 2845 478 
Q 3156 559 3463 722 
L 3463 178 
Q 3153 47 2828 -22 
Q 2503 -91 2169 -91 
Q 1331 -91 842 396 
Q 353 884 353 1716 
Q 353 2575 817 3079 
Q 1281 3584 2069 3584 
Q 2775 3584 3186 3129 
Q 3597 2675 3597 1894 
z
M 3022 2063 
Q 3016 2534 2758 2815 
Q 2500 3097 2075 3097 
Q 1594 3097 1305 2825 
Q 1016 2553 972 2059 
L 3022 2063 
z
" transform="scale(0.015625)"/>
      <path id="DejaVuSans-6c" d="M 603 4863 
L 1178 4863 
L 1178 0 
L 603 0 
L 603 4863 
z
" transform="scale(0.015625)"/>
      <path id="DejaVuSans-20" transform="scale(0.015625)"/>
      <path id="DejaVuSans-73" d="M 2834 3397 
L 2834 2853 
Q 2591 2978 2328 3040 
Q 2066 3103 1784 3103 
Q 1356 3103 1142 2972 
Q 928 2841 928 2578 
Q 928 2378 1081 2264 
Q 1234 2150 1697 2047 
L 1894 2003 
Q 2506 1872 2764 1633 
Q 3022 1394 3022 966 
Q 3022 478 2636 193 
Q 2250 -91 1575 -91 
Q 1294 -91 989 -36 
Q 684 19 347 128 
L 347 722 
Q 666 556 975 473 
Q 1284 391 1588 391 
Q 1994 391 2212 530 
Q 2431 669 2431 922 
Q 2431 1156 2273 1281 
Q 2116 1406 1581 1522 
L 1381 1569 
Q 847 1681 609 1914 
Q 372 2147 372 2553 
Q 372 3047 722 3315 
Q 1072 3584 1716 3584 
Q 2034 3584 2315 3537 
Q 2597 3491 2834 3397 
z
" transform="scale(0.015625)"/>
     </defs>
     <use xlink:href="#DejaVuSans-6d"/>
     <use xlink:href="#DejaVuSans-6f" x="97.412109"/>
     <use xlink:href="#DejaVuSans-64" x="158.59375"/>
     <use xlink:href="#DejaVuSans-65" x="222.070312"/>
     <use xlink:href="#DejaVuSans-6c" x="283.59375"/>
     <use xlink:href="#DejaVuSans-20" x="311.376953"/>
     <use xlink:href="#DejaVuSans-6c" x="343.164062"/>
     <use xlink:href="#DejaVuSans-6f" x="370.947266"/>
     <use xlink:href="#DejaVuSans-73" x="432.128906"/>
     <use xlink:href="#DejaVuSans-73" x="484.228516"/>
    </g>
   </g>
   <g id="legend_1">
    <g id="patch_7">
     <path d="M 365.23125 64.23625 
L 443 64.23625 
Q 445 64.23625 445 62.23625 
L 445 33.88 
Q 445 31.88 443 31.88 
L 365.23125 31.88 
Q 363.23125 31.88 363.23125 33.88 
L 363.23125 62.23625 
Q 363.23125 64.23625 365.23125 64.23625 
z
" style="fill: #ffffff; opacity: 0.8; stroke: #cccccc; stroke-linejoin: miter"/>
    </g>
    <g id="line2d_47">
     <path d="M 367.23125 39.978437 
L 377.23125 39.978437 
L 387.23125 39.978437 
" style="fill: none; stroke: #1f77b4; stroke-width: 1.5; stroke-linecap: square"/>
    </g>
    <g id="text_15">
     <!-- train loss -->
     <g transform="translate(395.23125 43.478437)scale(0.1 -0.1)">
      <defs>
       <path id="DejaVuSans-74" d="M 1172 4494 
L 1172 3500 
L 2356 3500 
L 2356 3053 
L 1172 3053 
L 1172 1153 
Q 1172 725 1289 603 
Q 1406 481 1766 481 
L 2356 481 
L 2356 0 
L 1766 0 
Q 1100 0 847 248 
Q 594 497 594 1153 
L 594 3053 
L 172 3053 
L 172 3500 
L 594 3500 
L 594 4494 
L 1172 4494 
z
" transform="scale(0.015625)"/>
       <path id="DejaVuSans-72" d="M 2631 2963 
Q 2534 3019 2420 3045 
Q 2306 3072 2169 3072 
Q 1681 3072 1420 2755 
Q 1159 2438 1159 1844 
L 1159 0 
L 581 0 
L 581 3500 
L 1159 3500 
L 1159 2956 
Q 1341 3275 1631 3429 
Q 1922 3584 2338 3584 
Q 2397 3584 2469 3576 
Q 2541 3569 2628 3553 
L 2631 2963 
z
" transform="scale(0.015625)"/>
       <path id="DejaVuSans-61" d="M 2194 1759 
Q 1497 1759 1228 1600 
Q 959 1441 959 1056 
Q 959 750 1161 570 
Q 1363 391 1709 391 
Q 2188 391 2477 730 
Q 2766 1069 2766 1631 
L 2766 1759 
L 2194 1759 
z
M 3341 1997 
L 3341 0 
L 2766 0 
L 2766 531 
Q 2569 213 2275 61 
Q 1981 -91 1556 -91 
Q 1019 -91 701 211 
Q 384 513 384 1019 
Q 384 1609 779 1909 
Q 1175 2209 1959 2209 
L 2766 2209 
L 2766 2266 
Q 2766 2663 2505 2880 
Q 2244 3097 1772 3097 
Q 1472 3097 1187 3025 
Q 903 2953 641 2809 
L 641 3341 
Q 956 3463 1253 3523 
Q 1550 3584 1831 3584 
Q 2591 3584 2966 3190 
Q 3341 2797 3341 1997 
z
" transform="scale(0.015625)"/>
       <path id="DejaVuSans-69" d="M 603 3500 
L 1178 3500 
L 1178 0 
L 603 0 
L 603 3500 
z
M 603 4863 
L 1178 4863 
L 1178 4134 
L 603 4134 
L 603 4863 
z
" transform="scale(0.015625)"/>
       <path id="DejaVuSans-6e" d="M 3513 2113 
L 3513 0 
L 2938 0 
L 2938 2094 
Q 2938 2591 2744 2837 
Q 2550 3084 2163 3084 
Q 1697 3084 1428 2787 
Q 1159 2491 1159 1978 
L 1159 0 
L 581 0 
L 581 3500 
L 1159 3500 
L 1159 2956 
Q 1366 3272 1645 3428 
Q 1925 3584 2291 3584 
Q 2894 3584 3203 3211 
Q 3513 2838 3513 2113 
z
" transform="scale(0.015625)"/>
      </defs>
      <use xlink:href="#DejaVuSans-74"/>
      <use xlink:href="#DejaVuSans-72" x="39.208984"/>
      <use xlink:href="#DejaVuSans-61" x="80.322266"/>
      <use xlink:href="#DejaVuSans-69" x="141.601562"/>
      <use xlink:href="#DejaVuSans-6e" x="169.384766"/>
      <use xlink:href="#DejaVuSans-20" x="232.763672"/>
      <use xlink:href="#DejaVuSans-6c" x="264.550781"/>
      <use xlink:href="#DejaVuSans-6f" x="292.333984"/>
      <use xlink:href="#DejaVuSans-73" x="353.515625"/>
      <use xlink:href="#DejaVuSans-73" x="405.615234"/>
     </g>
    </g>
    <g id="line2d_48">
     <path d="M 367.23125 54.656563 
L 377.23125 54.656563 
L 387.23125 54.656563 
" style="fill: none; stroke: #ff7f0e; stroke-width: 1.5; stroke-linecap: square"/>
    </g>
    <g id="text_16">
     <!-- val loss -->
     <g transform="translate(395.23125 58.156563)scale(0.1 -0.1)">
      <defs>
       <path id="DejaVuSans-76" d="M 191 3500 
L 800 3500 
L 1894 563 
L 2988 3500 
L 3597 3500 
L 2284 0 
L 1503 0 
L 191 3500 
z
" transform="scale(0.015625)"/>
      </defs>
      <use xlink:href="#DejaVuSans-76"/>
      <use xlink:href="#DejaVuSans-61" x="59.179688"/>
      <use xlink:href="#DejaVuSans-6c" x="120.458984"/>
      <use xlink:href="#DejaVuSans-20" x="148.242188"/>
      <use xlink:href="#DejaVuSans-6c" x="180.029297"/>
      <use xlink:href="#DejaVuSans-6f" x="207.8125"/>
      <use xlink:href="#DejaVuSans-73" x="268.994141"/>
      <use xlink:href="#DejaVuSans-73" x="321.09375"/>
     </g>
    </g>
   </g>
  </g>
  <g id="axes_2">
   <g id="patch_8">
    <path d="M 41.917054 317.72 
L 450 317.72 
L 450 194.28 
L 41.917054 194.28 
z
" style="fill: #ffffff"/>
   </g>
   <g id="matplotlib.axis_3">
    <g id="xtick_10">
     <g id="line2d_49">
      <g>
       <use xlink:href="#m45dab2f196" x="60.466279" y="317.72" style="stroke: #000000; stroke-width: 0.8"/>
      </g>
     </g>
     <g id="text_17">
      <!-- 0 -->
      <g transform="translate(57.285029 332.318438)scale(0.1 -0.1)">
       <use xlink:href="#DejaVuSans-30"/>
      </g>
     </g>
    </g>
    <g id="xtick_11">
     <g id="line2d_50">
      <g>
       <use xlink:href="#m45dab2f196" x="134.811869" y="317.72" style="stroke: #000000; stroke-width: 0.8"/>
      </g>
     </g>
     <g id="text_18">
      <!-- 100 -->
      <g transform="translate(125.268119 332.318438)scale(0.1 -0.1)">
       <use xlink:href="#DejaVuSans-31"/>
       <use xlink:href="#DejaVuSans-30" x="63.623047"/>
       <use xlink:href="#DejaVuSans-30" x="127.246094"/>
      </g>
     </g>
    </g>
    <g id="xtick_12">
     <g id="line2d_51">
      <g>
       <use xlink:href="#m45dab2f196" x="209.15746" y="317.72" style="stroke: #000000; stroke-width: 0.8"/>
      </g>
     </g>
     <g id="text_19">
      <!-- 200 -->
      <g transform="translate(199.61371 332.318438)scale(0.1 -0.1)">
       <use xlink:href="#DejaVuSans-32"/>
       <use xlink:href="#DejaVuSans-30" x="63.623047"/>
       <use xlink:href="#DejaVuSans-30" x="127.246094"/>
      </g>
     </g>
    </g>
    <g id="xtick_13">
     <g id="line2d_52">
      <g>
       <use xlink:href="#m45dab2f196" x="283.50305" y="317.72" style="stroke: #000000; stroke-width: 0.8"/>
      </g>
     </g>
     <g id="text_20">
      <!-- 300 -->
      <g transform="translate(273.9593 332.318438)scale(0.1 -0.1)">
       <use xlink:href="#DejaVuSans-33"/>
       <use xlink:href="#DejaVuSans-30" x="63.623047"/>
       <use xlink:href="#DejaVuSans-30" x="127.246094"/>
      </g>
     </g>
    </g>
    <g id="xtick_14">
     <g id="line2d_53">
      <g>
       <use xlink:href="#m45dab2f196" x="357.848641" y="317.72" style="stroke: #000000; stroke-width: 0.8"/>
      </g>
     </g>
     <g id="text_21">
      <!-- 400 -->
      <g transform="translate(348.304891 332.318438)scale(0.1 -0.1)">
       <use xlink:href="#DejaVuSans-34"/>
       <use xlink:href="#DejaVuSans-30" x="63.623047"/>
       <use xlink:href="#DejaVuSans-30" x="127.246094"/>
      </g>
     </g>
    </g>
    <g id="xtick_15">
     <g id="line2d_54">
      <g>
       <use xlink:href="#m45dab2f196" x="432.194231" y="317.72" style="stroke: #000000; stroke-width: 0.8"/>
      </g>
     </g>
     <g id="text_22">
      <!-- 500 -->
      <g transform="translate(422.650481 332.318438)scale(0.1 -0.1)">
       <use xlink:href="#DejaVuSans-35"/>
       <use xlink:href="#DejaVuSans-30" x="63.623047"/>
       <use xlink:href="#DejaVuSans-30" x="127.246094"/>
      </g>
     </g>
    </g>
   </g>
   <g id="matplotlib.axis_4">
    <g id="ytick_36">
     <g id="line2d_55">
      <g>
       <use xlink:href="#m8302fc541e" x="41.917054" y="303.44208" style="stroke: #000000; stroke-width: 0.8"/>
      </g>
     </g>
     <g id="text_23">
      <!-- $\mathdefault{10^{-4}}$ -->
      <g transform="translate(11.417054 307.241298)scale(0.1 -0.1)">
       <use xlink:href="#DejaVuSans-31" transform="translate(0 0.684375)"/>
       <use xlink:href="#DejaVuSans-30" transform="translate(63.623047 0.684375)"/>
       <use xlink:href="#DejaVuSans-2212" transform="translate(128.203125 38.965625)scale(0.7)"/>
       <use xlink:href="#DejaVuSans-34" transform="translate(186.855469 38.965625)scale(0.7)"/>
      </g>
     </g>
    </g>
    <g id="ytick_37">
     <g id="line2d_56">
      <g>
       <use xlink:href="#m8302fc541e" x="41.917054" y="278.499961" style="stroke: #000000; stroke-width: 0.8"/>
      </g>
     </g>
     <g id="text_24">
      <!-- $\mathdefault{10^{-3}}$ -->
      <g transform="translate(11.417054 282.29918)scale(0.1 -0.1)">
       <use xlink:href="#DejaVuSans-31" transform="translate(0 0.765625)"/>
       <use xlink:href="#DejaVuSans-30" transform="translate(63.623047 0.765625)"/>
       <use xlink:href="#DejaVuSans-2212" transform="translate(128.203125 39.046875)scale(0.7)"/>
       <use xlink:href="#DejaVuSans-33" transform="translate(186.855469 39.046875)scale(0.7)"/>
      </g>
     </g>
    </g>
    <g id="ytick_38">
     <g id="line2d_57">
      <g>
       <use xlink:href="#m8302fc541e" x="41.917054" y="253.557843" style="stroke: #000000; stroke-width: 0.8"/>
      </g>
     </g>
     <g id="text_25">
      <!-- $\mathdefault{10^{-2}}$ -->
      <g transform="translate(11.417054 257.357062)scale(0.1 -0.1)">
       <use xlink:href="#DejaVuSans-31" transform="translate(0 0.765625)"/>
       <use xlink:href="#DejaVuSans-30" transform="translate(63.623047 0.765625)"/>
       <use xlink:href="#DejaVuSans-2212" transform="translate(128.203125 39.046875)scale(0.7)"/>
       <use xlink:href="#DejaVuSans-32" transform="translate(186.855469 39.046875)scale(0.7)"/>
      </g>
     </g>
    </g>
    <g id="ytick_39">
     <g id="line2d_58">
      <g>
       <use xlink:href="#m8302fc541e" x="41.917054" y="228.615725" style="stroke: #000000; stroke-width: 0.8"/>
      </g>
     </g>
     <g id="text_26">
      <!-- $\mathdefault{10^{-1}}$ -->
      <g transform="translate(11.417054 232.414944)scale(0.1 -0.1)">
       <use xlink:href="#DejaVuSans-31" transform="translate(0 0.684375)"/>
       <use xlink:href="#DejaVuSans-30" transform="translate(63.623047 0.684375)"/>
       <use xlink:href="#DejaVuSans-2212" transform="translate(128.203125 38.965625)scale(0.7)"/>
       <use xlink:href="#DejaVuSans-31" transform="translate(186.855469 38.965625)scale(0.7)"/>
      </g>
     </g>
    </g>
    <g id="ytick_40">
     <g id="line2d_59">
      <g>
       <use xlink:href="#m8302fc541e" x="41.917054" y="203.673607" style="stroke: #000000; stroke-width: 0.8"/>
      </g>
     </g>
     <g id="text_27">
      <!-- $\mathdefault{10^{0}}$ -->
      <g transform="translate(17.317054 207.472826)scale(0.1 -0.1)">
       <use xlink:href="#DejaVuSans-31" transform="translate(0 0.765625)"/>
       <use xlink:href="#DejaVuSans-30" transform="translate(63.623047 0.765625)"/>
       <use xlink:href="#DejaVuSans-30" transform="translate(128.203125 39.046875)scale(0.7)"/>
      </g>
     </g>
    </g>
    <g id="ytick_41">
     <g id="line2d_60">
      <g>
       <use xlink:href="#mdde49e7443" x="41.917054" y="316.483783" style="stroke: #000000; stroke-width: 0.6"/>
      </g>
     </g>
    </g>
    <g id="ytick_42">
     <g id="line2d_61">
      <g>
       <use xlink:href="#mdde49e7443" x="41.917054" y="313.367546" style="stroke: #000000; stroke-width: 0.6"/>
      </g>
     </g>
    </g>
    <g id="ytick_43">
     <g id="line2d_62">
      <g>
       <use xlink:href="#mdde49e7443" x="41.917054" y="310.950405" style="stroke: #000000; stroke-width: 0.6"/>
      </g>
     </g>
    </g>
    <g id="ytick_44">
     <g id="line2d_63">
      <g>
       <use xlink:href="#mdde49e7443" x="41.917054" y="308.975457" style="stroke: #000000; stroke-width: 0.6"/>
      </g>
     </g>
    </g>
    <g id="ytick_45">
     <g id="line2d_64">
      <g>
       <use xlink:href="#mdde49e7443" x="41.917054" y="307.305663" style="stroke: #000000; stroke-width: 0.6"/>
      </g>
     </g>
    </g>
    <g id="ytick_46">
     <g id="line2d_65">
      <g>
       <use xlink:href="#mdde49e7443" x="41.917054" y="305.859221" style="stroke: #000000; stroke-width: 0.6"/>
      </g>
     </g>
    </g>
    <g id="ytick_47">
     <g id="line2d_66">
      <g>
       <use xlink:href="#mdde49e7443" x="41.917054" y="304.583368" style="stroke: #000000; stroke-width: 0.6"/>
      </g>
     </g>
    </g>
    <g id="ytick_48">
     <g id="line2d_67">
      <g>
       <use xlink:href="#mdde49e7443" x="41.917054" y="295.933754" style="stroke: #000000; stroke-width: 0.6"/>
      </g>
     </g>
    </g>
    <g id="ytick_49">
     <g id="line2d_68">
      <g>
       <use xlink:href="#mdde49e7443" x="41.917054" y="291.541665" style="stroke: #000000; stroke-width: 0.6"/>
      </g>
     </g>
    </g>
    <g id="ytick_50">
     <g id="line2d_69">
      <g>
       <use xlink:href="#mdde49e7443" x="41.917054" y="288.425428" style="stroke: #000000; stroke-width: 0.6"/>
      </g>
     </g>
    </g>
    <g id="ytick_51">
     <g id="line2d_70">
      <g>
       <use xlink:href="#mdde49e7443" x="41.917054" y="286.008287" style="stroke: #000000; stroke-width: 0.6"/>
      </g>
     </g>
    </g>
    <g id="ytick_52">
     <g id="line2d_71">
      <g>
       <use xlink:href="#mdde49e7443" x="41.917054" y="284.033339" style="stroke: #000000; stroke-width: 0.6"/>
      </g>
     </g>
    </g>
    <g id="ytick_53">
     <g id="line2d_72">
      <g>
       <use xlink:href="#mdde49e7443" x="41.917054" y="282.363544" style="stroke: #000000; stroke-width: 0.6"/>
      </g>
     </g>
    </g>
    <g id="ytick_54">
     <g id="line2d_73">
      <g>
       <use xlink:href="#mdde49e7443" x="41.917054" y="280.917102" style="stroke: #000000; stroke-width: 0.6"/>
      </g>
     </g>
    </g>
    <g id="ytick_55">
     <g id="line2d_74">
      <g>
       <use xlink:href="#mdde49e7443" x="41.917054" y="279.64125" style="stroke: #000000; stroke-width: 0.6"/>
      </g>
     </g>
    </g>
    <g id="ytick_56">
     <g id="line2d_75">
      <g>
       <use xlink:href="#mdde49e7443" x="41.917054" y="270.991636" style="stroke: #000000; stroke-width: 0.6"/>
      </g>
     </g>
    </g>
    <g id="ytick_57">
     <g id="line2d_76">
      <g>
       <use xlink:href="#mdde49e7443" x="41.917054" y="266.599547" style="stroke: #000000; stroke-width: 0.6"/>
      </g>
     </g>
    </g>
    <g id="ytick_58">
     <g id="line2d_77">
      <g>
       <use xlink:href="#mdde49e7443" x="41.917054" y="263.48331" style="stroke: #000000; stroke-width: 0.6"/>
      </g>
     </g>
    </g>
    <g id="ytick_59">
     <g id="line2d_78">
      <g>
       <use xlink:href="#mdde49e7443" x="41.917054" y="261.066169" style="stroke: #000000; stroke-width: 0.6"/>
      </g>
     </g>
    </g>
    <g id="ytick_60">
     <g id="line2d_79">
      <g>
       <use xlink:href="#mdde49e7443" x="41.917054" y="259.091221" style="stroke: #000000; stroke-width: 0.6"/>
      </g>
     </g>
    </g>
    <g id="ytick_61">
     <g id="line2d_80">
      <g>
       <use xlink:href="#mdde49e7443" x="41.917054" y="257.421426" style="stroke: #000000; stroke-width: 0.6"/>
      </g>
     </g>
    </g>
    <g id="ytick_62">
     <g id="line2d_81">
      <g>
       <use xlink:href="#mdde49e7443" x="41.917054" y="255.974984" style="stroke: #000000; stroke-width: 0.6"/>
      </g>
     </g>
    </g>
    <g id="ytick_63">
     <g id="line2d_82">
      <g>
       <use xlink:href="#mdde49e7443" x="41.917054" y="254.699132" style="stroke: #000000; stroke-width: 0.6"/>
      </g>
     </g>
    </g>
    <g id="ytick_64">
     <g id="line2d_83">
      <g>
       <use xlink:href="#mdde49e7443" x="41.917054" y="246.049518" style="stroke: #000000; stroke-width: 0.6"/>
      </g>
     </g>
    </g>
    <g id="ytick_65">
     <g id="line2d_84">
      <g>
       <use xlink:href="#mdde49e7443" x="41.917054" y="241.657429" style="stroke: #000000; stroke-width: 0.6"/>
      </g>
     </g>
    </g>
    <g id="ytick_66">
     <g id="line2d_85">
      <g>
       <use xlink:href="#mdde49e7443" x="41.917054" y="238.541192" style="stroke: #000000; stroke-width: 0.6"/>
      </g>
     </g>
    </g>
    <g id="ytick_67">
     <g id="line2d_86">
      <g>
       <use xlink:href="#mdde49e7443" x="41.917054" y="236.124051" style="stroke: #000000; stroke-width: 0.6"/>
      </g>
     </g>
    </g>
    <g id="ytick_68">
     <g id="line2d_87">
      <g>
       <use xlink:href="#mdde49e7443" x="41.917054" y="234.149103" style="stroke: #000000; stroke-width: 0.6"/>
      </g>
     </g>
    </g>
    <g id="ytick_69">
     <g id="line2d_88">
      <g>
       <use xlink:href="#mdde49e7443" x="41.917054" y="232.479308" style="stroke: #000000; stroke-width: 0.6"/>
      </g>
     </g>
    </g>
    <g id="ytick_70">
     <g id="line2d_89">
      <g>
       <use xlink:href="#mdde49e7443" x="41.917054" y="231.032866" style="stroke: #000000; stroke-width: 0.6"/>
      </g>
     </g>
    </g>
    <g id="ytick_71">
     <g id="line2d_90">
      <g>
       <use xlink:href="#mdde49e7443" x="41.917054" y="229.757014" style="stroke: #000000; stroke-width: 0.6"/>
      </g>
     </g>
    </g>
    <g id="ytick_72">
     <g id="line2d_91">
      <g>
       <use xlink:href="#mdde49e7443" x="41.917054" y="221.107399" style="stroke: #000000; stroke-width: 0.6"/>
      </g>
     </g>
    </g>
    <g id="ytick_73">
     <g id="line2d_92">
      <g>
       <use xlink:href="#mdde49e7443" x="41.917054" y="216.71531" style="stroke: #000000; stroke-width: 0.6"/>
      </g>
     </g>
    </g>
    <g id="ytick_74">
     <g id="line2d_93">
      <g>
       <use xlink:href="#mdde49e7443" x="41.917054" y="213.599074" style="stroke: #000000; stroke-width: 0.6"/>
      </g>
     </g>
    </g>
    <g id="ytick_75">
     <g id="line2d_94">
      <g>
       <use xlink:href="#mdde49e7443" x="41.917054" y="211.181933" style="stroke: #000000; stroke-width: 0.6"/>
      </g>
     </g>
    </g>
    <g id="ytick_76">
     <g id="line2d_95">
      <g>
       <use xlink:href="#mdde49e7443" x="41.917054" y="209.206985" style="stroke: #000000; stroke-width: 0.6"/>
      </g>
     </g>
    </g>
    <g id="ytick_77">
     <g id="line2d_96">
      <g>
       <use xlink:href="#mdde49e7443" x="41.917054" y="207.53719" style="stroke: #000000; stroke-width: 0.6"/>
      </g>
     </g>
    </g>
    <g id="ytick_78">
     <g id="line2d_97">
      <g>
       <use xlink:href="#mdde49e7443" x="41.917054" y="206.090748" style="stroke: #000000; stroke-width: 0.6"/>
      </g>
     </g>
    </g>
    <g id="ytick_79">
     <g id="line2d_98">
      <g>
       <use xlink:href="#mdde49e7443" x="41.917054" y="204.814896" style="stroke: #000000; stroke-width: 0.6"/>
      </g>
     </g>
    </g>
    <g id="ytick_80">
     <g id="line2d_99">
      <g>
       <use xlink:href="#mdde49e7443" x="41.917054" y="196.165281" style="stroke: #000000; stroke-width: 0.6"/>
      </g>
     </g>
    </g>
   </g>
   <g id="line2d_100">
    <path d="M 60.466279 199.890909 
L 61.209735 228.650333 
L 61.953191 240.698975 
L 62.696646 248.83317 
L 63.440102 254.462446 
L 64.183558 257.478783 
L 64.927014 259.122682 
L 65.67047 260.299356 
L 67.157382 262.014515 
L 67.900838 259.292812 
L 68.644294 264.008264 
L 69.38775 267.166372 
L 70.131205 269.335273 
L 70.874661 270.620202 
L 71.618117 271.46852 
L 72.361573 272.000645 
L 73.105029 272.888077 
L 73.848485 273.099244 
L 74.591941 273.640089 
L 75.335397 275.53303 
L 76.078853 276.539185 
L 76.822309 275.893087 
L 77.565765 276.629144 
L 78.30922 278.13001 
L 79.052676 278.121481 
L 79.796132 276.027235 
L 80.539588 279.055885 
L 81.283044 278.968096 
L 82.0265 279.157189 
L 82.769956 281.946163 
L 84.256868 282.550193 
L 85.000324 281.346962 
L 85.743779 282.929842 
L 86.487235 281.599803 
L 87.230691 283.69848 
L 87.974147 283.292504 
L 88.717603 283.361543 
L 90.204515 284.467395 
L 90.947971 285.384724 
L 91.691427 285.349335 
L 92.434883 285.513334 
L 93.178339 285.336309 
L 93.921794 286.234568 
L 94.66525 286.355276 
L 95.408706 286.300069 
L 96.152162 286.718042 
L 96.895618 286.51332 
L 97.639074 286.883115 
L 98.38253 286.719947 
L 99.125986 287.478046 
L 99.869442 287.261818 
L 100.612898 288.076318 
L 101.356353 286.838589 
L 102.099809 288.046931 
L 102.843265 287.595427 
L 104.330177 288.080016 
L 105.073633 288.508304 
L 105.817089 288.513216 
L 106.560545 288.924103 
L 107.304001 288.627758 
L 108.047457 289.438436 
L 108.790913 289.357837 
L 109.534368 289.781691 
L 111.764736 289.809149 
L 112.508192 290.995145 
L 113.251648 291.547664 
L 114.73856 291.967822 
L 115.482016 291.803857 
L 116.968927 292.033239 
L 117.712383 291.726314 
L 118.455839 292.183643 
L 119.199295 292.386938 
L 119.942751 292.32955 
L 120.686207 292.101712 
L 121.429663 293.062985 
L 122.173119 293.151498 
L 122.916575 293.071743 
L 123.660031 293.198895 
L 124.403487 293.458422 
L 125.890398 293.358898 
L 126.633854 293.073611 
L 128.120766 293.176498 
L 128.864222 293.776616 
L 129.607678 293.759783 
L 131.09459 294.166068 
L 131.838046 293.86508 
L 132.581501 294.286438 
L 133.324957 293.937917 
L 134.811869 294.438999 
L 135.555325 296.040467 
L 136.298781 295.825217 
L 137.042237 296.212618 
L 138.529149 295.835586 
L 139.272605 296.313622 
L 140.016061 296.577479 
L 140.759516 296.604 
L 141.502972 295.732289 
L 142.246428 295.694404 
L 142.989884 296.16484 
L 143.73334 296.497072 
L 144.476796 295.773981 
L 145.220252 296.608906 
L 145.963708 296.540533 
L 146.707164 296.759949 
L 147.45062 296.544539 
L 148.194075 296.748733 
L 148.937531 297.081626 
L 149.680987 296.664491 
L 150.424443 297.435073 
L 151.167899 297.85704 
L 152.654811 298.057819 
L 153.398267 297.846473 
L 154.141723 298.102328 
L 154.885179 297.781081 
L 155.628635 297.992023 
L 156.37209 298.747764 
L 157.115546 298.136359 
L 157.859002 297.980405 
L 158.602458 298.403175 
L 159.345914 298.680763 
L 160.08937 298.747898 
L 160.832826 298.498376 
L 161.576282 299.564759 
L 162.319738 299.010485 
L 163.806649 298.744447 
L 164.550105 298.020912 
L 165.293561 297.772961 
L 166.037017 298.614239 
L 166.780473 298.37528 
L 169.010841 298.246921 
L 169.754297 299.071059 
L 170.497753 298.868432 
L 171.241209 299.284977 
L 172.72812 299.00857 
L 173.471576 299.522979 
L 174.215032 299.900409 
L 174.958488 298.818847 
L 175.701944 299.716447 
L 177.188856 300.349953 
L 177.932312 299.417889 
L 178.675768 299.778831 
L 179.419223 298.26964 
L 180.162679 298.841487 
L 180.906135 298.947335 
L 182.393047 299.60424 
L 183.136503 298.823056 
L 183.879959 299.599843 
L 184.623415 299.478608 
L 185.366871 298.585892 
L 186.110327 300.179061 
L 186.853783 299.52943 
L 188.340694 300.298795 
L 189.08415 299.833486 
L 189.827606 300.346135 
L 190.571062 300.613371 
L 191.314518 300.161893 
L 192.057974 301.001757 
L 193.544886 300.423156 
L 194.288342 301.604438 
L 195.031797 301.930462 
L 195.775253 302.925482 
L 196.518709 302.57768 
L 198.005621 302.459331 
L 198.749077 303.081471 
L 199.492533 302.587579 
L 200.235989 302.347288 
L 200.979445 302.355118 
L 201.722901 301.478455 
L 202.466357 302.462798 
L 203.209812 302.444545 
L 203.953268 303.108703 
L 204.696724 301.966196 
L 205.44018 303.057124 
L 206.183636 301.819056 
L 206.927092 303.257433 
L 208.414004 302.174823 
L 209.15746 300.198211 
L 209.900916 302.212719 
L 211.387827 301.612506 
L 212.131283 301.441327 
L 212.874739 301.905193 
L 213.618195 301.998064 
L 215.105107 301.77752 
L 215.848563 301.82463 
L 216.592019 301.053297 
L 217.335475 301.702419 
L 218.078931 303.897417 
L 218.822386 302.953966 
L 220.309298 303.232994 
L 221.052754 303.42486 
L 221.79621 303.773251 
L 222.539666 303.10577 
L 223.283122 302.635775 
L 224.026578 301.62873 
L 224.770034 302.862725 
L 225.51349 301.573615 
L 226.256945 302.746734 
L 227.743857 303.151281 
L 228.487313 303.499909 
L 229.230769 303.35095 
L 229.974225 302.831291 
L 230.717681 303.40012 
L 231.461137 302.592013 
L 232.204593 303.296113 
L 232.948049 303.074711 
L 233.691505 303.396215 
L 234.43496 302.87702 
L 235.921872 302.75842 
L 236.665328 303.05062 
L 237.408784 303.130205 
L 238.15224 303.538626 
L 239.639152 303.722676 
L 240.382608 302.702644 
L 241.126064 303.758951 
L 243.356431 303.599608 
L 244.099887 304.72686 
L 244.843343 303.907684 
L 245.586799 303.582352 
L 246.330255 303.040582 
L 247.817167 305.238667 
L 248.560623 303.660457 
L 249.304079 304.091662 
L 250.047534 304.358101 
L 250.79099 303.116907 
L 251.534446 304.727355 
L 252.277902 303.31974 
L 253.021358 304.312374 
L 253.764814 303.877377 
L 255.251726 303.732333 
L 255.995182 303.084549 
L 256.738638 304.428597 
L 257.482093 304.313708 
L 258.225549 304.773331 
L 258.969005 304.099952 
L 259.712461 304.220947 
L 260.455917 304.968838 
L 261.199373 303.922826 
L 261.942829 304.778144 
L 262.686285 304.907532 
L 263.429741 305.995462 
L 264.916653 304.741079 
L 265.660108 305.119551 
L 266.403564 305.764373 
L 267.14702 305.61753 
L 268.633932 303.076653 
L 270.120844 305.058412 
L 270.8643 304.211893 
L 271.607756 305.391764 
L 272.351212 303.65327 
L 273.094667 303.98975 
L 273.838123 304.859019 
L 274.581579 304.539541 
L 275.325035 305.528762 
L 276.068491 303.684022 
L 276.811947 305.024668 
L 277.555403 304.484911 
L 278.298859 305.061835 
L 279.042315 306.208765 
L 279.785771 305.525559 
L 280.529227 305.679075 
L 281.272682 304.695201 
L 282.016138 305.474191 
L 283.50305 305.076865 
L 284.246506 305.35084 
L 284.989962 304.949547 
L 285.733418 305.308447 
L 286.476874 306.614159 
L 287.22033 305.38871 
L 287.963786 305.277789 
L 288.707241 306.730674 
L 289.450697 305.395823 
L 290.194153 306.592491 
L 290.937609 304.410087 
L 291.681065 306.187672 
L 292.424521 306.586217 
L 293.167977 305.475902 
L 293.911433 305.412526 
L 294.654889 306.108663 
L 295.398345 305.01358 
L 296.141801 306.825593 
L 296.885256 305.624248 
L 297.628712 306.211609 
L 298.372168 305.271498 
L 299.115624 305.437708 
L 299.85908 306.453261 
L 301.345992 307.141121 
L 302.089448 306.336583 
L 302.832904 306.618266 
L 303.57636 307.128601 
L 304.319815 307.008788 
L 305.063271 306.000497 
L 305.806727 305.82758 
L 306.550183 306.857855 
L 307.293639 308.11008 
L 308.037095 306.828546 
L 308.780551 307.369506 
L 309.524007 308.288511 
L 310.267463 306.216579 
L 311.010919 307.184397 
L 311.754375 306.608975 
L 312.49783 307.812909 
L 313.241286 307.215067 
L 313.984742 306.834724 
L 314.728198 307.076811 
L 315.471654 306.420716 
L 316.21511 307.369809 
L 316.958566 306.912901 
L 318.445478 307.74762 
L 319.188934 306.237743 
L 319.932389 308.370589 
L 320.675845 305.03675 
L 321.419301 306.614694 
L 322.162757 306.805327 
L 322.906213 307.225741 
L 323.649669 307.23531 
L 324.393125 306.615178 
L 325.136581 306.913481 
L 325.880037 307.639535 
L 326.623493 306.514711 
L 327.366949 306.845968 
L 328.110404 305.617387 
L 328.85386 306.286773 
L 329.597316 305.944102 
L 330.340772 306.398039 
L 331.084228 305.356645 
L 331.827684 306.007678 
L 332.57114 305.672911 
L 333.314596 306.922806 
L 334.058052 305.861769 
L 334.801508 307.522258 
L 335.544963 304.514792 
L 336.288419 304.16479 
L 337.031875 305.720455 
L 337.775331 305.454062 
L 338.518787 306.0335 
L 339.262243 305.732933 
L 340.005699 305.669815 
L 340.749155 306.110343 
L 341.492611 305.423408 
L 342.236067 304.55673 
L 342.979523 307.041739 
L 343.722978 306.857686 
L 344.466434 307.169942 
L 346.696802 307.254795 
L 347.440258 308.516628 
L 348.183714 307.940436 
L 349.670626 308.390787 
L 350.414082 307.475149 
L 351.157537 308.233769 
L 352.644449 306.763372 
L 353.387905 307.202255 
L 354.131361 307.469615 
L 354.874817 307.156782 
L 355.618273 307.540571 
L 356.361729 307.160137 
L 357.105185 307.407034 
L 357.848641 308.583022 
L 359.335552 306.850832 
L 360.079008 308.37736 
L 360.822464 307.503977 
L 362.309376 309.566789 
L 363.052832 307.711899 
L 363.796288 307.511794 
L 364.539744 308.514594 
L 365.2832 306.572765 
L 366.026656 306.717754 
L 366.770111 306.455096 
L 367.513567 306.405996 
L 368.257023 307.63249 
L 369.000479 306.539807 
L 369.743935 306.85569 
L 370.487391 306.137777 
L 371.230847 307.749203 
L 371.974303 307.921958 
L 372.717759 306.762641 
L 373.461215 307.371142 
L 374.204671 307.193972 
L 374.948126 307.994324 
L 375.691582 307.097643 
L 376.435038 307.811425 
L 377.178494 308.777736 
L 377.92195 308.876001 
L 378.665406 308.449208 
L 379.408862 307.637616 
L 380.152318 307.000627 
L 380.895774 307.819607 
L 381.63923 307.979774 
L 382.382685 307.259264 
L 383.126141 307.43009 
L 383.869597 308.386782 
L 384.613053 307.936455 
L 385.356509 308.119407 
L 386.099965 308.577197 
L 386.843421 308.903447 
L 387.586877 305.758477 
L 388.330333 305.771054 
L 389.073789 306.909804 
L 389.817245 306.944474 
L 390.5607 306.490318 
L 392.047612 306.061002 
L 392.791068 306.016485 
L 393.534524 306.864878 
L 394.27798 306.978895 
L 395.021436 306.681795 
L 395.764892 308.140881 
L 396.508348 307.316145 
L 397.251804 306.664152 
L 397.995259 307.444743 
L 398.738715 306.577537 
L 399.482171 306.666901 
L 400.225627 307.565311 
L 400.969083 306.773251 
L 401.712539 307.181376 
L 402.455995 307.244352 
L 403.199451 306.542495 
L 403.942907 307.223486 
L 404.686363 307.695063 
L 405.429819 306.849151 
L 406.173274 307.337058 
L 406.91673 306.993625 
L 407.660186 306.044584 
L 408.403642 306.277003 
L 409.147098 307.452116 
L 409.890554 306.399643 
L 410.63401 308.006163 
L 411.377466 307.40337 
L 412.120922 307.154587 
L 412.864378 307.743352 
L 413.607833 307.579592 
L 414.351289 308.681586 
L 415.094745 307.727435 
L 415.838201 307.451094 
L 416.581657 308.292307 
L 417.325113 307.731872 
L 418.068569 307.449896 
L 418.812025 307.381522 
L 419.555481 308.000572 
L 421.042393 307.055303 
L 421.785848 306.965435 
L 422.529304 309.617749 
L 423.27276 307.279782 
L 424.016216 306.557885 
L 424.759672 307.190766 
L 425.503128 308.420303 
L 426.246584 308.628806 
L 426.99004 308.69955 
L 427.733496 307.560566 
L 428.476952 308.856054 
L 429.963863 307.849661 
L 431.450775 308.092152 
L 431.450775 308.092152 
" clip-path="url(#p2db25f3919)" style="fill: none; stroke: #1f77b4; stroke-width: 1.5; stroke-linecap: square"/>
   </g>
   <g id="line2d_101">
    <path d="M 60.466279 224.795738 
L 61.209735 238.178865 
L 61.953191 247.415977 
L 62.696646 254.386455 
L 63.440102 258.003862 
L 64.183558 260.097184 
L 64.927014 261.677012 
L 65.67047 262.930559 
L 66.413926 263.838077 
L 67.157382 264.52997 
L 69.38775 271.37028 
L 70.131205 269.196916 
L 70.874661 273.545686 
L 71.618117 275.308793 
L 72.361573 276.026853 
L 73.105029 276.419683 
L 74.591941 277.373996 
L 75.335397 279.596884 
L 76.078853 280.198116 
L 76.822309 280.364142 
L 78.30922 281.302846 
L 79.052676 278.671384 
L 79.796132 281.765424 
L 80.539588 281.875081 
L 81.283044 281.068556 
L 82.769956 283.474872 
L 83.513412 285.168658 
L 85.000324 285.684361 
L 85.743779 283.629562 
L 86.487235 285.553804 
L 87.230691 285.592836 
L 87.974147 285.829886 
L 88.717603 286.19878 
L 89.461059 286.139372 
L 90.204515 288.584256 
L 90.947971 288.459235 
L 91.691427 288.674145 
L 93.178339 288.506167 
L 93.921794 288.194435 
L 94.66525 286.263458 
L 95.408706 288.58335 
L 96.152162 288.494129 
L 96.895618 279.919702 
L 97.639074 290.800674 
L 99.869442 290.783988 
L 100.612898 290.670508 
L 101.356353 290.906856 
L 102.099809 290.96376 
L 102.843265 290.843959 
L 103.586721 290.533008 
L 104.330177 290.920649 
L 105.073633 292.48641 
L 105.817089 291.4088 
L 106.560545 292.148007 
L 107.304001 291.999822 
L 108.047457 289.27008 
L 108.790913 291.866377 
L 109.534368 291.848075 
L 110.277824 291.633725 
L 111.02128 291.685356 
L 111.764736 291.621566 
L 112.508192 293.757399 
L 113.251648 293.079624 
L 113.995104 293.355488 
L 115.482016 293.388064 
L 116.968927 293.20499 
L 117.712383 293.361716 
L 118.455839 293.269321 
L 119.199295 291.657947 
L 119.942751 295.170792 
L 121.429663 294.759408 
L 122.173119 293.949341 
L 122.916575 294.738572 
L 123.660031 294.761237 
L 124.403487 294.634621 
L 125.146942 293.342219 
L 125.890398 294.500125 
L 126.633854 294.463932 
L 127.37731 296.341582 
L 128.864222 295.903144 
L 129.607678 296.193745 
L 130.351134 296.096222 
L 131.09459 295.328204 
L 131.838046 296.004413 
L 132.581501 281.367497 
L 133.324957 296.104447 
L 134.068413 295.952555 
L 134.811869 297.801073 
L 135.555325 297.597359 
L 136.298781 297.62364 
L 137.042237 297.287305 
L 137.785693 296.345419 
L 138.529149 297.381067 
L 139.272605 297.234517 
L 140.016061 297.390879 
L 140.759516 296.963561 
L 141.502972 297.319353 
L 142.246428 298.481345 
L 142.989884 298.714746 
L 144.476796 298.385845 
L 145.220252 297.938342 
L 145.963708 298.527404 
L 146.707164 298.494891 
L 147.45062 297.605388 
L 148.194075 298.408912 
L 148.937531 298.405767 
L 149.680987 297.686195 
L 150.424443 299.111359 
L 152.654811 298.89633 
L 153.398267 298.993984 
L 155.628635 298.956654 
L 156.37209 299.004992 
L 157.115546 297.326702 
L 157.859002 299.529514 
L 158.602458 299.412033 
L 159.345914 292.74728 
L 160.08937 299.410836 
L 160.832826 298.913589 
L 161.576282 298.080814 
L 162.319738 298.736199 
L 163.063194 295.610887 
L 163.806649 299.244811 
L 164.550105 300.230395 
L 165.293561 300.014311 
L 166.037017 300.069028 
L 166.780473 299.973242 
L 167.523929 299.001815 
L 168.267385 299.88794 
L 169.010841 298.88019 
L 169.754297 299.353169 
L 170.497753 299.596644 
L 171.241209 299.480636 
L 171.984664 300.637304 
L 172.72812 300.239829 
L 173.471576 300.095396 
L 174.215032 300.303295 
L 175.701944 299.890925 
L 176.4454 299.97597 
L 177.188856 300.212401 
L 177.932312 300.217077 
L 178.675768 299.891273 
L 179.419223 301.929934 
L 180.162679 301.64675 
L 180.906135 301.816141 
L 181.649591 301.863426 
L 183.136503 301.180635 
L 183.879959 301.450913 
L 184.623415 301.396359 
L 185.366871 301.600294 
L 186.110327 301.569605 
L 186.853783 303.148262 
L 187.597238 294.558534 
L 188.340694 302.789316 
L 189.08415 302.88003 
L 189.827606 302.371616 
L 190.571062 299.321002 
L 191.314518 300.212349 
L 192.057974 302.068088 
L 192.80143 302.92349 
L 193.544886 302.741033 
L 195.031797 303.687635 
L 198.005621 303.592237 
L 198.749077 303.913577 
L 200.235989 303.2402 
L 201.722901 304.028081 
L 202.466357 300.387407 
L 203.209812 302.748775 
L 203.953268 303.162932 
L 205.44018 303.350556 
L 206.183636 303.388979 
L 206.927092 303.289176 
L 207.670548 303.375172 
L 208.414004 303.096744 
L 209.15746 304.762692 
L 209.900916 304.840032 
L 211.387827 304.324623 
L 212.131283 304.581239 
L 212.874739 303.674611 
L 213.618195 301.793088 
L 214.361651 304.411654 
L 215.105107 304.2579 
L 215.848563 300.122438 
L 216.592019 304.540144 
L 217.335475 304.116828 
L 218.078931 303.924092 
L 218.822386 304.095743 
L 219.565842 303.895189 
L 220.309298 303.956607 
L 221.052754 303.023984 
L 221.79621 303.866243 
L 222.539666 303.766206 
L 223.283122 303.920244 
L 224.026578 305.327644 
L 224.770034 303.577447 
L 225.51349 304.749703 
L 226.256945 304.790457 
L 227.743857 304.582072 
L 228.487313 304.471721 
L 229.230769 304.670229 
L 229.974225 302.643035 
L 230.717681 303.465806 
L 231.461137 305.48757 
L 232.204593 304.883587 
L 232.948049 304.98369 
L 233.691505 301.333375 
L 235.178416 304.863931 
L 235.921872 304.331463 
L 236.665328 304.842378 
L 237.408784 304.675432 
L 238.15224 304.782031 
L 238.895696 305.301446 
L 240.382608 305.262431 
L 241.126064 304.934811 
L 244.099887 304.65168 
L 244.843343 305.06803 
L 245.586799 305.252094 
L 246.330255 300.546693 
L 247.073711 305.788563 
L 248.560623 305.702343 
L 249.304079 304.54575 
L 250.047534 305.773935 
L 250.79099 305.490026 
L 252.277902 305.393699 
L 253.021358 305.004792 
L 253.764814 306.680193 
L 254.50827 304.352662 
L 255.251726 306.332084 
L 255.995182 306.348674 
L 256.738638 304.379205 
L 257.482093 305.802078 
L 258.969005 305.413776 
L 259.712461 306.13263 
L 260.455917 306.17475 
L 261.199373 307.273899 
L 261.942829 306.991906 
L 262.686285 305.515163 
L 263.429741 306.782469 
L 264.173197 306.89132 
L 264.916653 306.740581 
L 267.14702 306.594025 
L 267.890476 306.465743 
L 268.633932 306.80454 
L 269.377388 307.294935 
L 270.120844 307.001366 
L 270.8643 307.200205 
L 271.607756 307.01717 
L 272.351212 306.403685 
L 273.094667 306.955644 
L 273.838123 306.575323 
L 275.325035 306.712243 
L 276.068491 307.482225 
L 276.811947 306.417212 
L 277.555403 306.565503 
L 279.785771 306.399861 
L 280.529227 306.488895 
L 281.272682 305.089439 
L 282.016138 306.100157 
L 282.759594 305.441432 
L 283.50305 307.991667 
L 284.246506 307.795557 
L 284.989962 307.891348 
L 285.733418 307.533097 
L 286.476874 307.817952 
L 287.22033 307.70103 
L 287.963786 306.475742 
L 288.707241 307.738096 
L 289.450697 307.742176 
L 290.194153 307.379703 
L 290.937609 305.715652 
L 291.681065 307.029815 
L 292.424521 307.834279 
L 293.167977 308.089351 
L 293.911433 306.866684 
L 294.654889 305.150314 
L 295.398345 298.701574 
L 296.141801 307.580928 
L 296.885256 307.795798 
L 298.372168 303.95129 
L 299.115624 304.924189 
L 299.85908 307.167111 
L 300.602536 306.112754 
L 301.345992 306.904544 
L 302.089448 307.347525 
L 302.832904 307.41344 
L 305.063271 307.131104 
L 305.806727 309.392143 
L 308.037095 309.589257 
L 308.780551 309.422149 
L 309.524007 309.602417 
L 311.010919 309.605791 
L 312.49783 309.337997 
L 313.241286 309.796682 
L 313.984742 309.311003 
L 314.728198 309.259128 
L 315.471654 303.548424 
L 316.21511 307.440275 
L 316.958566 307.91213 
L 317.702022 307.278043 
L 318.445478 308.657947 
L 319.188934 309.014716 
L 319.932389 308.895543 
L 320.675845 309.799529 
L 321.419301 309.240869 
L 322.162757 308.198403 
L 323.649669 309.256094 
L 324.393125 308.827895 
L 325.136581 309.256198 
L 325.880037 308.977387 
L 326.623493 309.162639 
L 327.366949 308.760479 
L 328.110404 309.306837 
L 328.85386 308.587615 
L 329.597316 308.586822 
L 330.340772 308.412965 
L 331.084228 307.941359 
L 331.827684 308.339121 
L 332.57114 308.241243 
L 333.314596 307.917606 
L 334.058052 308.243114 
L 334.801508 308.277118 
L 335.544963 307.015718 
L 336.288419 309.313734 
L 337.031875 309.425456 
L 337.775331 309.404989 
L 338.518787 309.263777 
L 342.236067 309.236398 
L 342.979523 310.215277 
L 343.722978 310.389523 
L 344.466434 310.412151 
L 345.20989 310.285213 
L 345.953346 310.350249 
L 349.670626 310.067002 
L 350.414082 310.662037 
L 351.900993 310.610659 
L 353.387905 310.359082 
L 354.131361 310.326185 
L 354.874817 310.006402 
L 357.105185 309.992983 
L 357.848641 310.555526 
L 358.592097 310.676055 
L 360.079008 310.598613 
L 360.822464 310.587005 
L 361.56592 310.405913 
L 362.309376 310.49883 
L 363.052832 310.404543 
L 363.796288 310.447573 
L 364.539744 310.362176 
L 365.2832 310.875076 
L 371.230847 310.300746 
L 371.974303 310.379655 
L 372.717759 311.220504 
L 374.948126 311.384568 
L 377.178494 311.451396 
L 378.665406 311.414249 
L 379.408862 311.469499 
L 380.152318 311.654731 
L 380.895774 311.649448 
L 383.126141 311.133302 
L 385.356509 310.978237 
L 386.099965 310.772791 
L 386.843421 310.765772 
L 387.586877 311.291444 
L 388.330333 311.323649 
L 389.073789 311.194847 
L 389.817245 311.258521 
L 394.27798 310.893148 
L 395.021436 310.451929 
L 395.764892 310.978036 
L 397.251804 310.830217 
L 400.969083 310.731246 
L 401.712539 310.697768 
L 402.455995 310.958065 
L 405.429819 311.218749 
L 407.660186 311.295285 
L 409.147098 311.34419 
L 409.890554 311.746464 
L 415.838201 311.897527 
L 424.016216 311.771737 
L 424.759672 311.990795 
L 429.220407 312.106255 
L 431.450775 312.109091 
L 431.450775 312.109091 
" clip-path="url(#p2db25f3919)" style="fill: none; stroke: #ff7f0e; stroke-width: 1.5; stroke-linecap: square"/>
   </g>
   <g id="patch_9">
    <path d="M 41.917054 317.72 
L 41.917054 194.28 
" style="fill: none; stroke: #000000; stroke-width: 0.8; stroke-linejoin: miter; stroke-linecap: square"/>
   </g>
   <g id="patch_10">
    <path d="M 450 317.72 
L 450 194.28 
" style="fill: none; stroke: #000000; stroke-width: 0.8; stroke-linejoin: miter; stroke-linecap: square"/>
   </g>
   <g id="patch_11">
    <path d="M 41.917054 317.72 
L 450 317.72 
" style="fill: none; stroke: #000000; stroke-width: 0.8; stroke-linejoin: miter; stroke-linecap: square"/>
   </g>
   <g id="patch_12">
    <path d="M 41.917054 194.28 
L 450 194.28 
" style="fill: none; stroke: #000000; stroke-width: 0.8; stroke-linejoin: miter; stroke-linecap: square"/>
   </g>
   <g id="text_28">
    <!-- adjoint model loss -->
    <g transform="translate(191.226339 188.28)scale(0.12 -0.12)">
     <defs>
      <path id="DejaVuSans-6a" d="M 603 3500 
L 1178 3500 
L 1178 -63 
Q 1178 -731 923 -1031 
Q 669 -1331 103 -1331 
L -116 -1331 
L -116 -844 
L 38 -844 
Q 366 -844 484 -692 
Q 603 -541 603 -63 
L 603 3500 
z
M 603 4863 
L 1178 4863 
L 1178 4134 
L 603 4134 
L 603 4863 
z
" transform="scale(0.015625)"/>
     </defs>
     <use xlink:href="#DejaVuSans-61"/>
     <use xlink:href="#DejaVuSans-64" x="61.279297"/>
     <use xlink:href="#DejaVuSans-6a" x="124.755859"/>
     <use xlink:href="#DejaVuSans-6f" x="152.539062"/>
     <use xlink:href="#DejaVuSans-69" x="213.720703"/>
     <use xlink:href="#DejaVuSans-6e" x="241.503906"/>
     <use xlink:href="#DejaVuSans-74" x="304.882812"/>
     <use xlink:href="#DejaVuSans-20" x="344.091797"/>
     <use xlink:href="#DejaVuSans-6d" x="375.878906"/>
     <use xlink:href="#DejaVuSans-6f" x="473.291016"/>
     <use xlink:href="#DejaVuSans-64" x="534.472656"/>
     <use xlink:href="#DejaVuSans-65" x="597.949219"/>
     <use xlink:href="#DejaVuSans-6c" x="659.472656"/>
     <use xlink:href="#DejaVuSans-20" x="687.255859"/>
     <use xlink:href="#DejaVuSans-6c" x="719.042969"/>
     <use xlink:href="#DejaVuSans-6f" x="746.826172"/>
     <use xlink:href="#DejaVuSans-73" x="808.007812"/>
     <use xlink:href="#DejaVuSans-73" x="860.107422"/>
    </g>
   </g>
   <g id="legend_2">
    <g id="patch_13">
     <path d="M 365.23125 231.63625 
L 443 231.63625 
Q 445 231.63625 445 229.63625 
L 445 201.28 
Q 445 199.28 443 199.28 
L 365.23125 199.28 
Q 363.23125 199.28 363.23125 201.28 
L 363.23125 229.63625 
Q 363.23125 231.63625 365.23125 231.63625 
z
" style="fill: #ffffff; opacity: 0.8; stroke: #cccccc; stroke-linejoin: miter"/>
    </g>
    <g id="line2d_102">
     <path d="M 367.23125 207.378438 
L 377.23125 207.378438 
L 387.23125 207.378438 
" style="fill: none; stroke: #1f77b4; stroke-width: 1.5; stroke-linecap: square"/>
    </g>
    <g id="text_29">
     <!-- train loss -->
     <g transform="translate(395.23125 210.878438)scale(0.1 -0.1)">
      <use xlink:href="#DejaVuSans-74"/>
      <use xlink:href="#DejaVuSans-72" x="39.208984"/>
      <use xlink:href="#DejaVuSans-61" x="80.322266"/>
      <use xlink:href="#DejaVuSans-69" x="141.601562"/>
      <use xlink:href="#DejaVuSans-6e" x="169.384766"/>
      <use xlink:href="#DejaVuSans-20" x="232.763672"/>
      <use xlink:href="#DejaVuSans-6c" x="264.550781"/>
      <use xlink:href="#DejaVuSans-6f" x="292.333984"/>
      <use xlink:href="#DejaVuSans-73" x="353.515625"/>
      <use xlink:href="#DejaVuSans-73" x="405.615234"/>
     </g>
    </g>
    <g id="line2d_103">
     <path d="M 367.23125 222.056563 
L 377.23125 222.056563 
L 387.23125 222.056563 
" style="fill: none; stroke: #ff7f0e; stroke-width: 1.5; stroke-linecap: square"/>
    </g>
    <g id="text_30">
     <!-- val loss -->
     <g transform="translate(395.23125 225.556563)scale(0.1 -0.1)">
      <use xlink:href="#DejaVuSans-76"/>
      <use xlink:href="#DejaVuSans-61" x="59.179688"/>
      <use xlink:href="#DejaVuSans-6c" x="120.458984"/>
      <use xlink:href="#DejaVuSans-20" x="148.242188"/>
      <use xlink:href="#DejaVuSans-6c" x="180.029297"/>
      <use xlink:href="#DejaVuSans-6f" x="207.8125"/>
      <use xlink:href="#DejaVuSans-73" x="268.994141"/>
      <use xlink:href="#DejaVuSans-73" x="321.09375"/>
     </g>
    </g>
   </g>
  </g>
 </g>
 <defs>
  <clipPath id="pd0c4d14a26">
   <rect x="41.917054" y="26.88" width="408.082946" height="123.44"/>
  </clipPath>
  <clipPath id="p2db25f3919">
   <rect x="41.917054" y="194.28" width="408.082946" height="123.44"/>
  </clipPath>
 </defs>
</svg>
