<?xml version="1.0" encoding="utf-8" standalone="no"?>
<!DOCTYPE svg PUBLIC "-//W3C//DTD SVG 1.1//EN"
  "http://www.w3.org/Graphics/SVG/1.1/DTD/svg11.dtd">
<svg xmlns:xlink="http://www.w3.org/1999/xlink" width="460.8pt" height="345.6pt" viewBox="0 0 460.8 345.6" xmlns="http://www.w3.org/2000/svg" version="1.1">
 <metadata>
  <rdf:RDF xmlns:dc="http://purl.org/dc/elements/1.1/" xmlns:cc="http://creativecommons.org/ns#" xmlns:rdf="http://www.w3.org/1999/02/22-rdf-syntax-ns#">
   <cc:Work>
    <dc:type rdf:resource="http://purl.org/dc/dcmitype/StillImage"/>
    <dc:date>2022-08-23T14:10:53.711565</dc:date>
    <dc:format>image/svg+xml</dc:format>
    <dc:creator>
     <cc:Agent>
      <dc:title>Matplotlib v3.5.1, https://matplotlib.org/</dc:title>
     </cc:Agent>
    </dc:creator>
   </cc:Work>
  </rdf:RDF>
 </metadata>
 <defs>
  <style type="text/css">*{stroke-linejoin: round; stroke-linecap: butt}</style>
 </defs>
 <g id="figure_1">
  <g id="patch_1">
   <path d="M 0 345.6 
L 460.8 345.6 
L 460.8 0 
L 0 0 
z
" style="fill: #ffffff"/>
  </g>
  <g id="axes_1">
   <g id="patch_2">
    <path d="M 41.917054 150.32 
L 450 150.32 
L 450 26.88 
L 41.917054 26.88 
z
" style="fill: #ffffff"/>
   </g>
   <g id="matplotlib.axis_1">
    <g id="xtick_1">
     <g id="line2d_1">
      <defs>
       <path id="m795c911025" d="M 0 0 
L 0 3.5 
" style="stroke: #000000; stroke-width: 0.8"/>
      </defs>
      <g>
       <use xlink:href="#m795c911025" x="60.466279" y="150.32" style="stroke: #000000; stroke-width: 0.8"/>
      </g>
     </g>
     <g id="text_1">
      <!-- 0 -->
      <g transform="translate(57.285029 164.918437)scale(0.1 -0.1)">
       <defs>
        <path id="DejaVuSans-30" d="M 2034 4250 
Q 1547 4250 1301 3770 
Q 1056 3291 1056 2328 
Q 1056 1369 1301 889 
Q 1547 409 2034 409 
Q 2525 409 2770 889 
Q 3016 1369 3016 2328 
Q 3016 3291 2770 3770 
Q 2525 4250 2034 4250 
z
M 2034 4750 
Q 2819 4750 3233 4129 
Q 3647 3509 3647 2328 
Q 3647 1150 3233 529 
Q 2819 -91 2034 -91 
Q 1250 -91 836 529 
Q 422 1150 422 2328 
Q 422 3509 836 4129 
Q 1250 4750 2034 4750 
z
" transform="scale(0.015625)"/>
       </defs>
       <use xlink:href="#DejaVuSans-30"/>
      </g>
     </g>
    </g>
    <g id="xtick_2">
     <g id="line2d_2">
      <g>
       <use xlink:href="#m795c911025" x="106.955564" y="150.32" style="stroke: #000000; stroke-width: 0.8"/>
      </g>
     </g>
     <g id="text_2">
      <!-- 50 -->
      <g transform="translate(100.593064 164.918437)scale(0.1 -0.1)">
       <defs>
        <path id="DejaVuSans-35" d="M 691 4666 
L 3169 4666 
L 3169 4134 
L 1269 4134 
L 1269 2991 
Q 1406 3038 1543 3061 
Q 1681 3084 1819 3084 
Q 2600 3084 3056 2656 
Q 3513 2228 3513 1497 
Q 3513 744 3044 326 
Q 2575 -91 1722 -91 
Q 1428 -91 1123 -41 
Q 819 9 494 109 
L 494 744 
Q 775 591 1075 516 
Q 1375 441 1709 441 
Q 2250 441 2565 725 
Q 2881 1009 2881 1497 
Q 2881 1984 2565 2268 
Q 2250 2553 1709 2553 
Q 1456 2553 1204 2497 
Q 953 2441 691 2322 
L 691 4666 
z
" transform="scale(0.015625)"/>
       </defs>
       <use xlink:href="#DejaVuSans-35"/>
       <use xlink:href="#DejaVuSans-30" x="63.623047"/>
      </g>
     </g>
    </g>
    <g id="xtick_3">
     <g id="line2d_3">
      <g>
       <use xlink:href="#m795c911025" x="153.444849" y="150.32" style="stroke: #000000; stroke-width: 0.8"/>
      </g>
     </g>
     <g id="text_3">
      <!-- 100 -->
      <g transform="translate(143.901099 164.918437)scale(0.1 -0.1)">
       <defs>
        <path id="DejaVuSans-31" d="M 794 531 
L 1825 531 
L 1825 4091 
L 703 3866 
L 703 4441 
L 1819 4666 
L 2450 4666 
L 2450 531 
L 3481 531 
L 3481 0 
L 794 0 
L 794 531 
z
" transform="scale(0.015625)"/>
       </defs>
       <use xlink:href="#DejaVuSans-31"/>
       <use xlink:href="#DejaVuSans-30" x="63.623047"/>
       <use xlink:href="#DejaVuSans-30" x="127.246094"/>
      </g>
     </g>
    </g>
    <g id="xtick_4">
     <g id="line2d_4">
      <g>
       <use xlink:href="#m795c911025" x="199.934135" y="150.32" style="stroke: #000000; stroke-width: 0.8"/>
      </g>
     </g>
     <g id="text_4">
      <!-- 150 -->
      <g transform="translate(190.390385 164.918437)scale(0.1 -0.1)">
       <use xlink:href="#DejaVuSans-31"/>
       <use xlink:href="#DejaVuSans-35" x="63.623047"/>
       <use xlink:href="#DejaVuSans-30" x="127.246094"/>
      </g>
     </g>
    </g>
    <g id="xtick_5">
     <g id="line2d_5">
      <g>
       <use xlink:href="#m795c911025" x="246.42342" y="150.32" style="stroke: #000000; stroke-width: 0.8"/>
      </g>
     </g>
     <g id="text_5">
      <!-- 200 -->
      <g transform="translate(236.87967 164.918437)scale(0.1 -0.1)">
       <defs>
        <path id="DejaVuSans-32" d="M 1228 531 
L 3431 531 
L 3431 0 
L 469 0 
L 469 531 
Q 828 903 1448 1529 
Q 2069 2156 2228 2338 
Q 2531 2678 2651 2914 
Q 2772 3150 2772 3378 
Q 2772 3750 2511 3984 
Q 2250 4219 1831 4219 
Q 1534 4219 1204 4116 
Q 875 4013 500 3803 
L 500 4441 
Q 881 4594 1212 4672 
Q 1544 4750 1819 4750 
Q 2544 4750 2975 4387 
Q 3406 4025 3406 3419 
Q 3406 3131 3298 2873 
Q 3191 2616 2906 2266 
Q 2828 2175 2409 1742 
Q 1991 1309 1228 531 
z
" transform="scale(0.015625)"/>
       </defs>
       <use xlink:href="#DejaVuSans-32"/>
       <use xlink:href="#DejaVuSans-30" x="63.623047"/>
       <use xlink:href="#DejaVuSans-30" x="127.246094"/>
      </g>
     </g>
    </g>
    <g id="xtick_6">
     <g id="line2d_6">
      <g>
       <use xlink:href="#m795c911025" x="292.912705" y="150.32" style="stroke: #000000; stroke-width: 0.8"/>
      </g>
     </g>
     <g id="text_6">
      <!-- 250 -->
      <g transform="translate(283.368955 164.918437)scale(0.1 -0.1)">
       <use xlink:href="#DejaVuSans-32"/>
       <use xlink:href="#DejaVuSans-35" x="63.623047"/>
       <use xlink:href="#DejaVuSans-30" x="127.246094"/>
      </g>
     </g>
    </g>
    <g id="xtick_7">
     <g id="line2d_7">
      <g>
       <use xlink:href="#m795c911025" x="339.40199" y="150.32" style="stroke: #000000; stroke-width: 0.8"/>
      </g>
     </g>
     <g id="text_7">
      <!-- 300 -->
      <g transform="translate(329.85824 164.918437)scale(0.1 -0.1)">
       <defs>
        <path id="DejaVuSans-33" d="M 2597 2516 
Q 3050 2419 3304 2112 
Q 3559 1806 3559 1356 
Q 3559 666 3084 287 
Q 2609 -91 1734 -91 
Q 1441 -91 1130 -33 
Q 819 25 488 141 
L 488 750 
Q 750 597 1062 519 
Q 1375 441 1716 441 
Q 2309 441 2620 675 
Q 2931 909 2931 1356 
Q 2931 1769 2642 2001 
Q 2353 2234 1838 2234 
L 1294 2234 
L 1294 2753 
L 1863 2753 
Q 2328 2753 2575 2939 
Q 2822 3125 2822 3475 
Q 2822 3834 2567 4026 
Q 2313 4219 1838 4219 
Q 1578 4219 1281 4162 
Q 984 4106 628 3988 
L 628 4550 
Q 988 4650 1302 4700 
Q 1616 4750 1894 4750 
Q 2613 4750 3031 4423 
Q 3450 4097 3450 3541 
Q 3450 3153 3228 2886 
Q 3006 2619 2597 2516 
z
" transform="scale(0.015625)"/>
       </defs>
       <use xlink:href="#DejaVuSans-33"/>
       <use xlink:href="#DejaVuSans-30" x="63.623047"/>
       <use xlink:href="#DejaVuSans-30" x="127.246094"/>
      </g>
     </g>
    </g>
    <g id="xtick_8">
     <g id="line2d_8">
      <g>
       <use xlink:href="#m795c911025" x="385.891276" y="150.32" style="stroke: #000000; stroke-width: 0.8"/>
      </g>
     </g>
     <g id="text_8">
      <!-- 350 -->
      <g transform="translate(376.347526 164.918437)scale(0.1 -0.1)">
       <use xlink:href="#DejaVuSans-33"/>
       <use xlink:href="#DejaVuSans-35" x="63.623047"/>
       <use xlink:href="#DejaVuSans-30" x="127.246094"/>
      </g>
     </g>
    </g>
    <g id="xtick_9">
     <g id="line2d_9">
      <g>
       <use xlink:href="#m795c911025" x="432.380561" y="150.32" style="stroke: #000000; stroke-width: 0.8"/>
      </g>
     </g>
     <g id="text_9">
      <!-- 400 -->
      <g transform="translate(422.836811 164.918437)scale(0.1 -0.1)">
       <defs>
        <path id="DejaVuSans-34" d="M 2419 4116 
L 825 1625 
L 2419 1625 
L 2419 4116 
z
M 2253 4666 
L 3047 4666 
L 3047 1625 
L 3713 1625 
L 3713 1100 
L 3047 1100 
L 3047 0 
L 2419 0 
L 2419 1100 
L 313 1100 
L 313 1709 
L 2253 4666 
z
" transform="scale(0.015625)"/>
       </defs>
       <use xlink:href="#DejaVuSans-34"/>
       <use xlink:href="#DejaVuSans-30" x="63.623047"/>
       <use xlink:href="#DejaVuSans-30" x="127.246094"/>
      </g>
     </g>
    </g>
   </g>
   <g id="matplotlib.axis_2">
    <g id="ytick_1">
     <g id="line2d_10">
      <defs>
       <path id="m0ec8512a9a" d="M 0 0 
L -3.5 0 
" style="stroke: #000000; stroke-width: 0.8"/>
      </defs>
      <g>
       <use xlink:href="#m0ec8512a9a" x="41.917054" y="141.563505" style="stroke: #000000; stroke-width: 0.8"/>
      </g>
     </g>
     <g id="text_10">
      <!-- $\mathdefault{10^{-4}}$ -->
      <g transform="translate(11.417054 145.362724)scale(0.1 -0.1)">
       <defs>
        <path id="DejaVuSans-2212" d="M 678 2272 
L 4684 2272 
L 4684 1741 
L 678 1741 
L 678 2272 
z
" transform="scale(0.015625)"/>
       </defs>
       <use xlink:href="#DejaVuSans-31" transform="translate(0 0.684375)"/>
       <use xlink:href="#DejaVuSans-30" transform="translate(63.623047 0.684375)"/>
       <use xlink:href="#DejaVuSans-2212" transform="translate(128.203125 38.965625)scale(0.7)"/>
       <use xlink:href="#DejaVuSans-34" transform="translate(186.855469 38.965625)scale(0.7)"/>
      </g>
     </g>
    </g>
    <g id="ytick_2">
     <g id="line2d_11">
      <g>
       <use xlink:href="#m0ec8512a9a" x="41.917054" y="108.424584" style="stroke: #000000; stroke-width: 0.8"/>
      </g>
     </g>
     <g id="text_11">
      <!-- $\mathdefault{10^{-3}}$ -->
      <g transform="translate(11.417054 112.223803)scale(0.1 -0.1)">
       <use xlink:href="#DejaVuSans-31" transform="translate(0 0.765625)"/>
       <use xlink:href="#DejaVuSans-30" transform="translate(63.623047 0.765625)"/>
       <use xlink:href="#DejaVuSans-2212" transform="translate(128.203125 39.046875)scale(0.7)"/>
       <use xlink:href="#DejaVuSans-33" transform="translate(186.855469 39.046875)scale(0.7)"/>
      </g>
     </g>
    </g>
    <g id="ytick_3">
     <g id="line2d_12">
      <g>
       <use xlink:href="#m0ec8512a9a" x="41.917054" y="75.285663" style="stroke: #000000; stroke-width: 0.8"/>
      </g>
     </g>
     <g id="text_12">
      <!-- $\mathdefault{10^{-2}}$ -->
      <g transform="translate(11.417054 79.084882)scale(0.1 -0.1)">
       <use xlink:href="#DejaVuSans-31" transform="translate(0 0.765625)"/>
       <use xlink:href="#DejaVuSans-30" transform="translate(63.623047 0.765625)"/>
       <use xlink:href="#DejaVuSans-2212" transform="translate(128.203125 39.046875)scale(0.7)"/>
       <use xlink:href="#DejaVuSans-32" transform="translate(186.855469 39.046875)scale(0.7)"/>
      </g>
     </g>
    </g>
    <g id="ytick_4">
     <g id="line2d_13">
      <g>
       <use xlink:href="#m0ec8512a9a" x="41.917054" y="42.146742" style="stroke: #000000; stroke-width: 0.8"/>
      </g>
     </g>
     <g id="text_13">
      <!-- $\mathdefault{10^{-1}}$ -->
      <g transform="translate(11.417054 45.945961)scale(0.1 -0.1)">
       <use xlink:href="#DejaVuSans-31" transform="translate(0 0.684375)"/>
       <use xlink:href="#DejaVuSans-30" transform="translate(63.623047 0.684375)"/>
       <use xlink:href="#DejaVuSans-2212" transform="translate(128.203125 38.965625)scale(0.7)"/>
       <use xlink:href="#DejaVuSans-31" transform="translate(186.855469 38.965625)scale(0.7)"/>
      </g>
     </g>
    </g>
    <g id="ytick_5">
     <g id="line2d_14">
      <defs>
       <path id="mb266019c56" d="M 0 0 
L -2 0 
" style="stroke: #000000; stroke-width: 0.6"/>
      </defs>
      <g>
       <use xlink:href="#mb266019c56" x="41.917054" y="148.915333" style="stroke: #000000; stroke-width: 0.6"/>
      </g>
     </g>
    </g>
    <g id="ytick_6">
     <g id="line2d_15">
      <g>
       <use xlink:href="#mb266019c56" x="41.917054" y="146.696789" style="stroke: #000000; stroke-width: 0.6"/>
      </g>
     </g>
    </g>
    <g id="ytick_7">
     <g id="line2d_16">
      <g>
       <use xlink:href="#mb266019c56" x="41.917054" y="144.774999" style="stroke: #000000; stroke-width: 0.6"/>
      </g>
     </g>
    </g>
    <g id="ytick_8">
     <g id="line2d_17">
      <g>
       <use xlink:href="#mb266019c56" x="41.917054" y="143.079859" style="stroke: #000000; stroke-width: 0.6"/>
      </g>
     </g>
    </g>
    <g id="ytick_9">
     <g id="line2d_18">
      <g>
       <use xlink:href="#mb266019c56" x="41.917054" y="131.587696" style="stroke: #000000; stroke-width: 0.6"/>
      </g>
     </g>
    </g>
    <g id="ytick_10">
     <g id="line2d_19">
      <g>
       <use xlink:href="#mb266019c56" x="41.917054" y="125.752222" style="stroke: #000000; stroke-width: 0.6"/>
      </g>
     </g>
    </g>
    <g id="ytick_11">
     <g id="line2d_20">
      <g>
       <use xlink:href="#mb266019c56" x="41.917054" y="121.611887" style="stroke: #000000; stroke-width: 0.6"/>
      </g>
     </g>
    </g>
    <g id="ytick_12">
     <g id="line2d_21">
      <g>
       <use xlink:href="#mb266019c56" x="41.917054" y="118.400394" style="stroke: #000000; stroke-width: 0.6"/>
      </g>
     </g>
    </g>
    <g id="ytick_13">
     <g id="line2d_22">
      <g>
       <use xlink:href="#mb266019c56" x="41.917054" y="115.776413" style="stroke: #000000; stroke-width: 0.6"/>
      </g>
     </g>
    </g>
    <g id="ytick_14">
     <g id="line2d_23">
      <g>
       <use xlink:href="#mb266019c56" x="41.917054" y="113.557868" style="stroke: #000000; stroke-width: 0.6"/>
      </g>
     </g>
    </g>
    <g id="ytick_15">
     <g id="line2d_24">
      <g>
       <use xlink:href="#mb266019c56" x="41.917054" y="111.636078" style="stroke: #000000; stroke-width: 0.6"/>
      </g>
     </g>
    </g>
    <g id="ytick_16">
     <g id="line2d_25">
      <g>
       <use xlink:href="#mb266019c56" x="41.917054" y="109.940938" style="stroke: #000000; stroke-width: 0.6"/>
      </g>
     </g>
    </g>
    <g id="ytick_17">
     <g id="line2d_26">
      <g>
       <use xlink:href="#mb266019c56" x="41.917054" y="98.448775" style="stroke: #000000; stroke-width: 0.6"/>
      </g>
     </g>
    </g>
    <g id="ytick_18">
     <g id="line2d_27">
      <g>
       <use xlink:href="#mb266019c56" x="41.917054" y="92.613301" style="stroke: #000000; stroke-width: 0.6"/>
      </g>
     </g>
    </g>
    <g id="ytick_19">
     <g id="line2d_28">
      <g>
       <use xlink:href="#mb266019c56" x="41.917054" y="88.472966" style="stroke: #000000; stroke-width: 0.6"/>
      </g>
     </g>
    </g>
    <g id="ytick_20">
     <g id="line2d_29">
      <g>
       <use xlink:href="#mb266019c56" x="41.917054" y="85.261473" style="stroke: #000000; stroke-width: 0.6"/>
      </g>
     </g>
    </g>
    <g id="ytick_21">
     <g id="line2d_30">
      <g>
       <use xlink:href="#mb266019c56" x="41.917054" y="82.637492" style="stroke: #000000; stroke-width: 0.6"/>
      </g>
     </g>
    </g>
    <g id="ytick_22">
     <g id="line2d_31">
      <g>
       <use xlink:href="#mb266019c56" x="41.917054" y="80.418947" style="stroke: #000000; stroke-width: 0.6"/>
      </g>
     </g>
    </g>
    <g id="ytick_23">
     <g id="line2d_32">
      <g>
       <use xlink:href="#mb266019c56" x="41.917054" y="78.497157" style="stroke: #000000; stroke-width: 0.6"/>
      </g>
     </g>
    </g>
    <g id="ytick_24">
     <g id="line2d_33">
      <g>
       <use xlink:href="#mb266019c56" x="41.917054" y="76.802017" style="stroke: #000000; stroke-width: 0.6"/>
      </g>
     </g>
    </g>
    <g id="ytick_25">
     <g id="line2d_34">
      <g>
       <use xlink:href="#mb266019c56" x="41.917054" y="65.309854" style="stroke: #000000; stroke-width: 0.6"/>
      </g>
     </g>
    </g>
    <g id="ytick_26">
     <g id="line2d_35">
      <g>
       <use xlink:href="#mb266019c56" x="41.917054" y="59.47438" style="stroke: #000000; stroke-width: 0.6"/>
      </g>
     </g>
    </g>
    <g id="ytick_27">
     <g id="line2d_36">
      <g>
       <use xlink:href="#mb266019c56" x="41.917054" y="55.334045" style="stroke: #000000; stroke-width: 0.6"/>
      </g>
     </g>
    </g>
    <g id="ytick_28">
     <g id="line2d_37">
      <g>
       <use xlink:href="#mb266019c56" x="41.917054" y="52.122552" style="stroke: #000000; stroke-width: 0.6"/>
      </g>
     </g>
    </g>
    <g id="ytick_29">
     <g id="line2d_38">
      <g>
       <use xlink:href="#mb266019c56" x="41.917054" y="49.498571" style="stroke: #000000; stroke-width: 0.6"/>
      </g>
     </g>
    </g>
    <g id="ytick_30">
     <g id="line2d_39">
      <g>
       <use xlink:href="#mb266019c56" x="41.917054" y="47.280026" style="stroke: #000000; stroke-width: 0.6"/>
      </g>
     </g>
    </g>
    <g id="ytick_31">
     <g id="line2d_40">
      <g>
       <use xlink:href="#mb266019c56" x="41.917054" y="45.358236" style="stroke: #000000; stroke-width: 0.6"/>
      </g>
     </g>
    </g>
    <g id="ytick_32">
     <g id="line2d_41">
      <g>
       <use xlink:href="#mb266019c56" x="41.917054" y="43.663096" style="stroke: #000000; stroke-width: 0.6"/>
      </g>
     </g>
    </g>
    <g id="ytick_33">
     <g id="line2d_42">
      <g>
       <use xlink:href="#mb266019c56" x="41.917054" y="32.170933" style="stroke: #000000; stroke-width: 0.6"/>
      </g>
     </g>
    </g>
   </g>
   <g id="line2d_43">
    <path d="M 60.466279 32.490909 
L 61.396064 73.574476 
L 62.32585 77.263837 
L 63.255636 83.593604 
L 64.185422 92.906949 
L 65.115207 100.631226 
L 66.044993 105.50388 
L 66.974779 108.385695 
L 67.904564 114.488172 
L 68.83435 119.117335 
L 69.764136 121.599692 
L 70.693921 123.436875 
L 71.623707 124.769821 
L 72.553493 125.52703 
L 73.483279 126.023679 
L 74.413064 126.241795 
L 75.34285 129.799042 
L 76.272636 129.889693 
L 77.202421 130.193466 
L 80.921564 130.628575 
L 81.85135 130.570587 
L 82.781136 130.971471 
L 87.430064 131.172212 
L 89.289636 131.157132 
L 90.219421 133.869892 
L 92.078993 133.903906 
L 95.798136 134.033076 
L 96.727921 134.005839 
L 97.657707 132.591792 
L 101.37685 132.752627 
L 104.166207 132.820064 
L 105.095993 135.402895 
L 108.815135 135.531067 
L 111.604493 135.516455 
L 112.534278 137.26504 
L 119.042778 137.385877 
L 119.972564 134.340171 
L 122.761921 134.476264 
L 126.481064 134.539939 
L 127.41085 137.273223 
L 130.200207 137.380314 
L 133.919349 137.42475 
L 134.849135 137.530522 
L 135.778921 137.403591 
L 137.638492 137.403515 
L 138.568278 137.344747 
L 140.427849 137.612827 
L 141.357635 137.504932 
L 142.287421 136.125677 
L 145.076778 136.294391 
L 146.006564 136.104916 
L 146.936349 136.204135 
L 147.866135 136.466771 
L 148.795921 136.279423 
L 149.725706 135.101332 
L 151.585278 135.431582 
L 154.374635 135.282719 
L 155.304421 135.263225 
L 156.234206 135.378496 
L 157.163992 136.101484 
L 159.953349 136.116388 
L 160.883135 135.967755 
L 163.672492 136.082007 
L 164.602278 137.12387 
L 165.532063 137.380489 
L 166.461849 137.232202 
L 167.391635 137.270745 
L 168.321421 137.14482 
L 169.251206 137.267332 
L 171.110778 137.190824 
L 172.040563 134.220993 
L 172.970349 134.129391 
L 173.900135 134.193293 
L 174.82992 134.042549 
L 176.689492 134.19192 
L 178.549063 133.991849 
L 179.478849 136.786219 
L 180.408635 136.45102 
L 184.127778 136.735322 
L 185.057563 136.466498 
L 185.987349 136.565271 
L 186.917135 136.201701 
L 193.425635 135.926763 
L 194.35542 135.506614 
L 195.285206 135.494844 
L 196.214992 135.235315 
L 197.144777 135.480742 
L 200.86392 135.419892 
L 201.793706 133.879881 
L 202.723492 133.825412 
L 203.653277 133.566596 
L 204.583063 133.82538 
L 206.442634 133.910409 
L 207.37242 133.697879 
L 208.302206 133.62304 
L 209.231992 134.155819 
L 212.021349 134.147496 
L 213.88092 134.075952 
L 215.740492 134.137348 
L 216.670277 134.847039 
L 217.600063 134.97183 
L 218.529849 135.314324 
L 221.319206 134.875652 
L 222.248991 135.139251 
L 223.178777 134.998924 
L 224.108563 137.223853 
L 225.968134 137.316483 
L 226.89792 137.143102 
L 227.827706 137.221251 
L 228.757491 137.140433 
L 229.687277 136.933645 
L 230.617063 137.170562 
L 231.546849 135.84995 
L 234.336206 135.877272 
L 235.265991 136.062971 
L 236.195777 135.882466 
L 238.055348 136.041281 
L 238.985134 136.770099 
L 239.91492 136.75728 
L 240.844706 136.573341 
L 241.774491 136.728986 
L 242.704277 136.575486 
L 245.493634 136.740461 
L 246.42342 134.939132 
L 247.353206 135.047802 
L 249.212777 135.032596 
L 250.142563 134.885995 
L 251.072348 134.964957 
L 252.002134 134.898728 
L 252.93192 134.960754 
L 253.861705 135.656426 
L 254.791491 135.555789 
L 255.721277 135.579962 
L 256.651063 135.474874 
L 257.580848 135.70453 
L 260.370205 135.718682 
L 261.299991 132.161972 
L 263.159563 132.091233 
L 264.089348 131.923394 
L 265.019134 132.059139 
L 265.94892 131.95072 
L 266.878705 132.116134 
L 267.808491 132.01422 
L 268.738277 133.224165 
L 269.668062 133.356168 
L 270.597848 133.340888 
L 271.527634 133.548759 
L 274.316991 133.409311 
L 275.246777 133.076909 
L 276.176562 131.918973 
L 277.106348 131.723058 
L 278.036134 131.92457 
L 278.965919 131.772958 
L 279.895705 131.911012 
L 282.685062 131.909689 
L 283.614848 131.072616 
L 284.544634 131.329043 
L 285.474419 131.054626 
L 287.333991 131.181382 
L 288.263777 131.054704 
L 289.193562 131.120613 
L 290.123348 131.351243 
L 291.053134 134.470032 
L 293.842491 134.51806 
L 294.772276 134.290287 
L 296.631848 134.487616 
L 297.561634 134.444508 
L 298.491419 133.626689 
L 299.421205 133.857526 
L 300.350991 133.576739 
L 302.210562 133.734884 
L 303.140348 133.586845 
L 304.070134 133.853618 
L 304.999919 133.838564 
L 305.929705 132.866729 
L 307.789276 132.803548 
L 308.719062 133.099665 
L 309.648848 133.068705 
L 310.578633 132.902058 
L 311.508419 132.858459 
L 312.438205 132.600992 
L 313.367991 133.972368 
L 314.297776 133.784725 
L 315.227562 133.862863 
L 316.157348 133.794451 
L 319.876491 133.994854 
L 320.806276 136.433361 
L 321.736062 136.547073 
L 324.525419 136.391094 
L 325.455205 136.684798 
L 327.314776 136.512781 
L 328.244562 137.20572 
L 329.174348 137.253104 
L 330.104133 137.076061 
L 331.033919 137.42712 
L 331.963705 137.311186 
L 332.89349 137.382136 
L 333.823276 137.198699 
L 334.753062 137.453638 
L 335.682848 132.794699 
L 337.542419 132.773764 
L 340.331776 132.910595 
L 341.261562 132.770398 
L 342.191347 132.771569 
L 343.121133 131.971145 
L 344.050919 132.018677 
L 344.980705 131.94626 
L 346.840276 131.993249 
L 347.770062 131.898815 
L 348.699847 132.11962 
L 349.629633 131.855513 
L 351.489205 132.348386 
L 352.41899 132.292858 
L 353.348776 132.348746 
L 356.138133 132.111984 
L 357.997704 132.469815 
L 358.92749 132.64776 
L 360.787062 132.508267 
L 361.716847 132.596013 
L 362.646633 132.44879 
L 363.576419 132.734807 
L 364.506204 132.399572 
L 365.43599 133.712381 
L 367.295562 133.726614 
L 368.225347 133.84798 
L 371.014704 133.588789 
L 371.94449 133.781041 
L 372.874276 134.710971 
L 373.804061 134.698337 
L 374.733847 135.01988 
L 375.663633 134.64729 
L 376.593419 134.852453 
L 378.45299 134.800543 
L 379.382776 134.609454 
L 380.312561 131.480972 
L 381.242347 131.631787 
L 382.172133 131.465834 
L 383.101918 131.501858 
L 384.031704 131.396447 
L 386.821061 131.458186 
L 387.750847 132.798893 
L 389.610418 132.580961 
L 390.540204 132.716771 
L 391.46999 132.540133 
L 392.399776 132.77522 
L 393.329561 132.577724 
L 394.259347 132.593305 
L 395.189133 131.338286 
L 396.118918 131.2596 
L 397.97849 131.276619 
L 398.908275 131.137166 
L 399.838061 131.399549 
L 400.767847 131.225031 
L 401.697633 131.48862 
L 402.627418 132.790389 
L 403.557204 132.903415 
L 405.416775 132.629297 
L 406.346561 132.942348 
L 407.276347 133.004309 
L 409.135918 132.836975 
L 410.065704 134.51822 
L 410.99549 134.302599 
L 411.925275 134.240471 
L 412.855061 134.304908 
L 413.784847 134.581799 
L 414.714632 134.328594 
L 416.574204 134.288125 
L 417.50399 133.199226 
L 419.363561 133.334929 
L 420.293347 133.258366 
L 421.223132 133.301717 
L 423.082704 133.217184 
L 424.01249 133.389913 
L 424.942275 134.26279 
L 425.872061 134.310767 
L 426.801847 134.225382 
L 428.661418 134.338005 
L 431.450775 134.317451 
L 431.450775 134.317451 
" clip-path="url(#p4c776964fb)" style="fill: none; stroke: #1f77b4; stroke-width: 1.5; stroke-linecap: square"/>
   </g>
   <g id="line2d_44">
    <path d="M 60.466279 76.447857 
L 61.396064 80.196586 
L 62.32585 84.54998 
L 63.255636 90.706361 
L 64.185422 100.210501 
L 65.115207 107.606266 
L 66.974779 114.025983 
L 67.904564 122.029787 
L 69.764136 129.150741 
L 70.693921 131.41966 
L 71.623707 133.189985 
L 72.553493 133.064344 
L 73.483279 134.525062 
L 74.413064 134.812355 
L 75.34285 138.190509 
L 76.272636 133.861826 
L 77.202421 138.802808 
L 78.132207 138.842595 
L 79.061993 139.143189 
L 79.991779 139.165482 
L 80.921564 139.367854 
L 81.85135 139.441311 
L 82.781136 141.261762 
L 84.640707 141.446957 
L 85.570493 141.425516 
L 89.289636 141.746238 
L 90.219421 142.786481 
L 91.149207 142.626613 
L 93.008778 142.883546 
L 95.798136 142.955156 
L 96.727921 142.930726 
L 97.657707 143.216688 
L 98.587493 143.079309 
L 100.447064 143.260871 
L 101.37685 143.024939 
L 102.306635 142.117405 
L 103.236421 143.159862 
L 104.166207 142.418514 
L 105.095993 144.093671 
L 106.025778 144.114508 
L 106.955564 144.001759 
L 107.88535 144.072141 
L 108.815135 143.735739 
L 109.744921 144.158774 
L 120.90235 144.299604 
L 121.832135 143.44477 
L 122.761921 144.384461 
L 123.691707 143.93252 
L 125.551278 143.92385 
L 126.481064 144.206123 
L 127.41085 144.638698 
L 128.340635 144.591772 
L 130.200207 144.678754 
L 133.919349 144.617581 
L 134.849135 144.428332 
L 135.778921 144.533578 
L 137.638492 144.495512 
L 138.568278 144.342242 
L 140.427849 144.539493 
L 141.357635 144.44187 
L 142.287421 144.050419 
L 143.217207 143.269489 
L 144.146992 143.872709 
L 145.076778 144.13538 
L 146.006564 143.737524 
L 146.936349 144.023053 
L 148.795921 143.782026 
L 149.725706 144.600243 
L 156.234206 144.558 
L 157.163992 144.294369 
L 163.672492 144.278138 
L 164.602278 144.105477 
L 178.549063 144.17023 
L 179.478849 143.672074 
L 185.987349 143.685365 
L 186.917135 143.536351 
L 200.86392 143.502516 
L 201.793706 143.305108 
L 208.302206 143.301563 
L 209.231992 142.940787 
L 215.740492 142.940605 
L 216.670277 142.756237 
L 238.055348 142.690863 
L 238.985134 142.545048 
L 245.493634 142.547783 
L 246.42342 142.262878 
L 260.370205 142.178296 
L 261.299991 142.035241 
L 267.808491 142.026465 
L 268.738277 141.66758 
L 282.685062 141.586292 
L 284.544634 141.521894 
L 290.123348 141.516095 
L 291.053134 141.293642 
L 304.999919 141.336302 
L 305.929705 141.148787 
L 334.753062 141.003243 
L 335.682848 141.12508 
L 342.191347 141.100513 
L 343.121133 140.879947 
L 349.629633 140.892417 
L 350.559419 140.5995 
L 364.506204 140.485499 
L 366.365776 140.381708 
L 386.821061 140.308214 
L 387.750847 140.125697 
L 401.697633 140.132596 
L 402.627418 139.962852 
L 424.01249 139.904963 
L 424.942275 139.788118 
L 431.450775 139.79037 
L 431.450775 139.79037 
" clip-path="url(#p4c776964fb)" style="fill: none; stroke: #ff7f0e; stroke-width: 1.5; stroke-linecap: square"/>
   </g>
   <g id="patch_3">
    <path d="M 41.917054 150.32 
L 41.917054 26.88 
" style="fill: none; stroke: #000000; stroke-width: 0.8; stroke-linejoin: miter; stroke-linecap: square"/>
   </g>
   <g id="patch_4">
    <path d="M 450 150.32 
L 450 26.88 
" style="fill: none; stroke: #000000; stroke-width: 0.8; stroke-linejoin: miter; stroke-linecap: square"/>
   </g>
   <g id="patch_5">
    <path d="M 41.917054 150.32 
L 450 150.32 
" style="fill: none; stroke: #000000; stroke-width: 0.8; stroke-linejoin: miter; stroke-linecap: square"/>
   </g>
   <g id="patch_6">
    <path d="M 41.917054 26.88 
L 450 26.88 
" style="fill: none; stroke: #000000; stroke-width: 0.8; stroke-linejoin: miter; stroke-linecap: square"/>
   </g>
   <g id="text_14">
    <!-- model loss -->
    <g transform="translate(213.778839 20.88)scale(0.12 -0.12)">
     <defs>
      <path id="DejaVuSans-6d" d="M 3328 2828 
Q 3544 3216 3844 3400 
Q 4144 3584 4550 3584 
Q 5097 3584 5394 3201 
Q 5691 2819 5691 2113 
L 5691 0 
L 5113 0 
L 5113 2094 
Q 5113 2597 4934 2840 
Q 4756 3084 4391 3084 
Q 3944 3084 3684 2787 
Q 3425 2491 3425 1978 
L 3425 0 
L 2847 0 
L 2847 2094 
Q 2847 2600 2669 2842 
Q 2491 3084 2119 3084 
Q 1678 3084 1418 2786 
Q 1159 2488 1159 1978 
L 1159 0 
L 581 0 
L 581 3500 
L 1159 3500 
L 1159 2956 
Q 1356 3278 1631 3431 
Q 1906 3584 2284 3584 
Q 2666 3584 2933 3390 
Q 3200 3197 3328 2828 
z
" transform="scale(0.015625)"/>
      <path id="DejaVuSans-6f" d="M 1959 3097 
Q 1497 3097 1228 2736 
Q 959 2375 959 1747 
Q 959 1119 1226 758 
Q 1494 397 1959 397 
Q 2419 397 2687 759 
Q 2956 1122 2956 1747 
Q 2956 2369 2687 2733 
Q 2419 3097 1959 3097 
z
M 1959 3584 
Q 2709 3584 3137 3096 
Q 3566 2609 3566 1747 
Q 3566 888 3137 398 
Q 2709 -91 1959 -91 
Q 1206 -91 779 398 
Q 353 888 353 1747 
Q 353 2609 779 3096 
Q 1206 3584 1959 3584 
z
" transform="scale(0.015625)"/>
      <path id="DejaVuSans-64" d="M 2906 2969 
L 2906 4863 
L 3481 4863 
L 3481 0 
L 2906 0 
L 2906 525 
Q 2725 213 2448 61 
Q 2172 -91 1784 -91 
Q 1150 -91 751 415 
Q 353 922 353 1747 
Q 353 2572 751 3078 
Q 1150 3584 1784 3584 
Q 2172 3584 2448 3432 
Q 2725 3281 2906 2969 
z
M 947 1747 
Q 947 1113 1208 752 
Q 1469 391 1925 391 
Q 2381 391 2643 752 
Q 2906 1113 2906 1747 
Q 2906 2381 2643 2742 
Q 2381 3103 1925 3103 
Q 1469 3103 1208 2742 
Q 947 2381 947 1747 
z
" transform="scale(0.015625)"/>
      <path id="DejaVuSans-65" d="M 3597 1894 
L 3597 1613 
L 953 1613 
Q 991 1019 1311 708 
Q 1631 397 2203 397 
Q 2534 397 2845 478 
Q 3156 559 3463 722 
L 3463 178 
Q 3153 47 2828 -22 
Q 2503 -91 2169 -91 
Q 1331 -91 842 396 
Q 353 884 353 1716 
Q 353 2575 817 3079 
Q 1281 3584 2069 3584 
Q 2775 3584 3186 3129 
Q 3597 2675 3597 1894 
z
M 3022 2063 
Q 3016 2534 2758 2815 
Q 2500 3097 2075 3097 
Q 1594 3097 1305 2825 
Q 1016 2553 972 2059 
L 3022 2063 
z
" transform="scale(0.015625)"/>
      <path id="DejaVuSans-6c" d="M 603 4863 
L 1178 4863 
L 1178 0 
L 603 0 
L 603 4863 
z
" transform="scale(0.015625)"/>
      <path id="DejaVuSans-20" transform="scale(0.015625)"/>
      <path id="DejaVuSans-73" d="M 2834 3397 
L 2834 2853 
Q 2591 2978 2328 3040 
Q 2066 3103 1784 3103 
Q 1356 3103 1142 2972 
Q 928 2841 928 2578 
Q 928 2378 1081 2264 
Q 1234 2150 1697 2047 
L 1894 2003 
Q 2506 1872 2764 1633 
Q 3022 1394 3022 966 
Q 3022 478 2636 193 
Q 2250 -91 1575 -91 
Q 1294 -91 989 -36 
Q 684 19 347 128 
L 347 722 
Q 666 556 975 473 
Q 1284 391 1588 391 
Q 1994 391 2212 530 
Q 2431 669 2431 922 
Q 2431 1156 2273 1281 
Q 2116 1406 1581 1522 
L 1381 1569 
Q 847 1681 609 1914 
Q 372 2147 372 2553 
Q 372 3047 722 3315 
Q 1072 3584 1716 3584 
Q 2034 3584 2315 3537 
Q 2597 3491 2834 3397 
z
" transform="scale(0.015625)"/>
     </defs>
     <use xlink:href="#DejaVuSans-6d"/>
     <use xlink:href="#DejaVuSans-6f" x="97.412109"/>
     <use xlink:href="#DejaVuSans-64" x="158.59375"/>
     <use xlink:href="#DejaVuSans-65" x="222.070312"/>
     <use xlink:href="#DejaVuSans-6c" x="283.59375"/>
     <use xlink:href="#DejaVuSans-20" x="311.376953"/>
     <use xlink:href="#DejaVuSans-6c" x="343.164062"/>
     <use xlink:href="#DejaVuSans-6f" x="370.947266"/>
     <use xlink:href="#DejaVuSans-73" x="432.128906"/>
     <use xlink:href="#DejaVuSans-73" x="484.228516"/>
    </g>
   </g>
   <g id="legend_1">
    <g id="patch_7">
     <path d="M 365.23125 64.23625 
L 443 64.23625 
Q 445 64.23625 445 62.23625 
L 445 33.88 
Q 445 31.88 443 31.88 
L 365.23125 31.88 
Q 363.23125 31.88 363.23125 33.88 
L 363.23125 62.23625 
Q 363.23125 64.23625 365.23125 64.23625 
z
" style="fill: #ffffff; opacity: 0.8; stroke: #cccccc; stroke-linejoin: miter"/>
    </g>
    <g id="line2d_45">
     <path d="M 367.23125 39.978437 
L 377.23125 39.978437 
L 387.23125 39.978437 
" style="fill: none; stroke: #1f77b4; stroke-width: 1.5; stroke-linecap: square"/>
    </g>
    <g id="text_15">
     <!-- train loss -->
     <g transform="translate(395.23125 43.478437)scale(0.1 -0.1)">
      <defs>
       <path id="DejaVuSans-74" d="M 1172 4494 
L 1172 3500 
L 2356 3500 
L 2356 3053 
L 1172 3053 
L 1172 1153 
Q 1172 725 1289 603 
Q 1406 481 1766 481 
L 2356 481 
L 2356 0 
L 1766 0 
Q 1100 0 847 248 
Q 594 497 594 1153 
L 594 3053 
L 172 3053 
L 172 3500 
L 594 3500 
L 594 4494 
L 1172 4494 
z
" transform="scale(0.015625)"/>
       <path id="DejaVuSans-72" d="M 2631 2963 
Q 2534 3019 2420 3045 
Q 2306 3072 2169 3072 
Q 1681 3072 1420 2755 
Q 1159 2438 1159 1844 
L 1159 0 
L 581 0 
L 581 3500 
L 1159 3500 
L 1159 2956 
Q 1341 3275 1631 3429 
Q 1922 3584 2338 3584 
Q 2397 3584 2469 3576 
Q 2541 3569 2628 3553 
L 2631 2963 
z
" transform="scale(0.015625)"/>
       <path id="DejaVuSans-61" d="M 2194 1759 
Q 1497 1759 1228 1600 
Q 959 1441 959 1056 
Q 959 750 1161 570 
Q 1363 391 1709 391 
Q 2188 391 2477 730 
Q 2766 1069 2766 1631 
L 2766 1759 
L 2194 1759 
z
M 3341 1997 
L 3341 0 
L 2766 0 
L 2766 531 
Q 2569 213 2275 61 
Q 1981 -91 1556 -91 
Q 1019 -91 701 211 
Q 384 513 384 1019 
Q 384 1609 779 1909 
Q 1175 2209 1959 2209 
L 2766 2209 
L 2766 2266 
Q 2766 2663 2505 2880 
Q 2244 3097 1772 3097 
Q 1472 3097 1187 3025 
Q 903 2953 641 2809 
L 641 3341 
Q 956 3463 1253 3523 
Q 1550 3584 1831 3584 
Q 2591 3584 2966 3190 
Q 3341 2797 3341 1997 
z
" transform="scale(0.015625)"/>
       <path id="DejaVuSans-69" d="M 603 3500 
L 1178 3500 
L 1178 0 
L 603 0 
L 603 3500 
z
M 603 4863 
L 1178 4863 
L 1178 4134 
L 603 4134 
L 603 4863 
z
" transform="scale(0.015625)"/>
       <path id="DejaVuSans-6e" d="M 3513 2113 
L 3513 0 
L 2938 0 
L 2938 2094 
Q 2938 2591 2744 2837 
Q 2550 3084 2163 3084 
Q 1697 3084 1428 2787 
Q 1159 2491 1159 1978 
L 1159 0 
L 581 0 
L 581 3500 
L 1159 3500 
L 1159 2956 
Q 1366 3272 1645 3428 
Q 1925 3584 2291 3584 
Q 2894 3584 3203 3211 
Q 3513 2838 3513 2113 
z
" transform="scale(0.015625)"/>
      </defs>
      <use xlink:href="#DejaVuSans-74"/>
      <use xlink:href="#DejaVuSans-72" x="39.208984"/>
      <use xlink:href="#DejaVuSans-61" x="80.322266"/>
      <use xlink:href="#DejaVuSans-69" x="141.601562"/>
      <use xlink:href="#DejaVuSans-6e" x="169.384766"/>
      <use xlink:href="#DejaVuSans-20" x="232.763672"/>
      <use xlink:href="#DejaVuSans-6c" x="264.550781"/>
      <use xlink:href="#DejaVuSans-6f" x="292.333984"/>
      <use xlink:href="#DejaVuSans-73" x="353.515625"/>
      <use xlink:href="#DejaVuSans-73" x="405.615234"/>
     </g>
    </g>
    <g id="line2d_46">
     <path d="M 367.23125 54.656563 
L 377.23125 54.656563 
L 387.23125 54.656563 
" style="fill: none; stroke: #ff7f0e; stroke-width: 1.5; stroke-linecap: square"/>
    </g>
    <g id="text_16">
     <!-- val loss -->
     <g transform="translate(395.23125 58.156563)scale(0.1 -0.1)">
      <defs>
       <path id="DejaVuSans-76" d="M 191 3500 
L 800 3500 
L 1894 563 
L 2988 3500 
L 3597 3500 
L 2284 0 
L 1503 0 
L 191 3500 
z
" transform="scale(0.015625)"/>
      </defs>
      <use xlink:href="#DejaVuSans-76"/>
      <use xlink:href="#DejaVuSans-61" x="59.179688"/>
      <use xlink:href="#DejaVuSans-6c" x="120.458984"/>
      <use xlink:href="#DejaVuSans-20" x="148.242188"/>
      <use xlink:href="#DejaVuSans-6c" x="180.029297"/>
      <use xlink:href="#DejaVuSans-6f" x="207.8125"/>
      <use xlink:href="#DejaVuSans-73" x="268.994141"/>
      <use xlink:href="#DejaVuSans-73" x="321.09375"/>
     </g>
    </g>
   </g>
  </g>
  <g id="axes_2">
   <g id="patch_8">
    <path d="M 41.917054 317.72 
L 450 317.72 
L 450 194.28 
L 41.917054 194.28 
z
" style="fill: #ffffff"/>
   </g>
   <g id="matplotlib.axis_3">
    <g id="xtick_10">
     <g id="line2d_47">
      <g>
       <use xlink:href="#m795c911025" x="60.466279" y="317.72" style="stroke: #000000; stroke-width: 0.8"/>
      </g>
     </g>
     <g id="text_17">
      <!-- 0 -->
      <g transform="translate(57.285029 332.318438)scale(0.1 -0.1)">
       <use xlink:href="#DejaVuSans-30"/>
      </g>
     </g>
    </g>
    <g id="xtick_11">
     <g id="line2d_48">
      <g>
       <use xlink:href="#m795c911025" x="134.811869" y="317.72" style="stroke: #000000; stroke-width: 0.8"/>
      </g>
     </g>
     <g id="text_18">
      <!-- 100 -->
      <g transform="translate(125.268119 332.318438)scale(0.1 -0.1)">
       <use xlink:href="#DejaVuSans-31"/>
       <use xlink:href="#DejaVuSans-30" x="63.623047"/>
       <use xlink:href="#DejaVuSans-30" x="127.246094"/>
      </g>
     </g>
    </g>
    <g id="xtick_12">
     <g id="line2d_49">
      <g>
       <use xlink:href="#m795c911025" x="209.15746" y="317.72" style="stroke: #000000; stroke-width: 0.8"/>
      </g>
     </g>
     <g id="text_19">
      <!-- 200 -->
      <g transform="translate(199.61371 332.318438)scale(0.1 -0.1)">
       <use xlink:href="#DejaVuSans-32"/>
       <use xlink:href="#DejaVuSans-30" x="63.623047"/>
       <use xlink:href="#DejaVuSans-30" x="127.246094"/>
      </g>
     </g>
    </g>
    <g id="xtick_13">
     <g id="line2d_50">
      <g>
       <use xlink:href="#m795c911025" x="283.50305" y="317.72" style="stroke: #000000; stroke-width: 0.8"/>
      </g>
     </g>
     <g id="text_20">
      <!-- 300 -->
      <g transform="translate(273.9593 332.318438)scale(0.1 -0.1)">
       <use xlink:href="#DejaVuSans-33"/>
       <use xlink:href="#DejaVuSans-30" x="63.623047"/>
       <use xlink:href="#DejaVuSans-30" x="127.246094"/>
      </g>
     </g>
    </g>
    <g id="xtick_14">
     <g id="line2d_51">
      <g>
       <use xlink:href="#m795c911025" x="357.848641" y="317.72" style="stroke: #000000; stroke-width: 0.8"/>
      </g>
     </g>
     <g id="text_21">
      <!-- 400 -->
      <g transform="translate(348.304891 332.318438)scale(0.1 -0.1)">
       <use xlink:href="#DejaVuSans-34"/>
       <use xlink:href="#DejaVuSans-30" x="63.623047"/>
       <use xlink:href="#DejaVuSans-30" x="127.246094"/>
      </g>
     </g>
    </g>
    <g id="xtick_15">
     <g id="line2d_52">
      <g>
       <use xlink:href="#m795c911025" x="432.194231" y="317.72" style="stroke: #000000; stroke-width: 0.8"/>
      </g>
     </g>
     <g id="text_22">
      <!-- 500 -->
      <g transform="translate(422.650481 332.318438)scale(0.1 -0.1)">
       <use xlink:href="#DejaVuSans-35"/>
       <use xlink:href="#DejaVuSans-30" x="63.623047"/>
       <use xlink:href="#DejaVuSans-30" x="127.246094"/>
      </g>
     </g>
    </g>
   </g>
   <g id="matplotlib.axis_4">
    <g id="ytick_34">
     <g id="line2d_53">
      <g>
       <use xlink:href="#m0ec8512a9a" x="41.917054" y="304.344508" style="stroke: #000000; stroke-width: 0.8"/>
      </g>
     </g>
     <g id="text_23">
      <!-- $\mathdefault{10^{-4}}$ -->
      <g transform="translate(11.417054 308.143727)scale(0.1 -0.1)">
       <use xlink:href="#DejaVuSans-31" transform="translate(0 0.684375)"/>
       <use xlink:href="#DejaVuSans-30" transform="translate(63.623047 0.684375)"/>
       <use xlink:href="#DejaVuSans-2212" transform="translate(128.203125 38.965625)scale(0.7)"/>
       <use xlink:href="#DejaVuSans-34" transform="translate(186.855469 38.965625)scale(0.7)"/>
      </g>
     </g>
    </g>
    <g id="ytick_35">
     <g id="line2d_54">
      <g>
       <use xlink:href="#m0ec8512a9a" x="41.917054" y="278.692402" style="stroke: #000000; stroke-width: 0.8"/>
      </g>
     </g>
     <g id="text_24">
      <!-- $\mathdefault{10^{-3}}$ -->
      <g transform="translate(11.417054 282.491621)scale(0.1 -0.1)">
       <use xlink:href="#DejaVuSans-31" transform="translate(0 0.765625)"/>
       <use xlink:href="#DejaVuSans-30" transform="translate(63.623047 0.765625)"/>
       <use xlink:href="#DejaVuSans-2212" transform="translate(128.203125 39.046875)scale(0.7)"/>
       <use xlink:href="#DejaVuSans-33" transform="translate(186.855469 39.046875)scale(0.7)"/>
      </g>
     </g>
    </g>
    <g id="ytick_36">
     <g id="line2d_55">
      <g>
       <use xlink:href="#m0ec8512a9a" x="41.917054" y="253.040297" style="stroke: #000000; stroke-width: 0.8"/>
      </g>
     </g>
     <g id="text_25">
      <!-- $\mathdefault{10^{-2}}$ -->
      <g transform="translate(11.417054 256.839515)scale(0.1 -0.1)">
       <use xlink:href="#DejaVuSans-31" transform="translate(0 0.765625)"/>
       <use xlink:href="#DejaVuSans-30" transform="translate(63.623047 0.765625)"/>
       <use xlink:href="#DejaVuSans-2212" transform="translate(128.203125 39.046875)scale(0.7)"/>
       <use xlink:href="#DejaVuSans-32" transform="translate(186.855469 39.046875)scale(0.7)"/>
      </g>
     </g>
    </g>
    <g id="ytick_37">
     <g id="line2d_56">
      <g>
       <use xlink:href="#m0ec8512a9a" x="41.917054" y="227.388191" style="stroke: #000000; stroke-width: 0.8"/>
      </g>
     </g>
     <g id="text_26">
      <!-- $\mathdefault{10^{-1}}$ -->
      <g transform="translate(11.417054 231.18741)scale(0.1 -0.1)">
       <use xlink:href="#DejaVuSans-31" transform="translate(0 0.684375)"/>
       <use xlink:href="#DejaVuSans-30" transform="translate(63.623047 0.684375)"/>
       <use xlink:href="#DejaVuSans-2212" transform="translate(128.203125 38.965625)scale(0.7)"/>
       <use xlink:href="#DejaVuSans-31" transform="translate(186.855469 38.965625)scale(0.7)"/>
      </g>
     </g>
    </g>
    <g id="ytick_38">
     <g id="line2d_57">
      <g>
       <use xlink:href="#m0ec8512a9a" x="41.917054" y="201.736085" style="stroke: #000000; stroke-width: 0.8"/>
      </g>
     </g>
     <g id="text_27">
      <!-- $\mathdefault{10^{0}}$ -->
      <g transform="translate(17.317054 205.535304)scale(0.1 -0.1)">
       <use xlink:href="#DejaVuSans-31" transform="translate(0 0.765625)"/>
       <use xlink:href="#DejaVuSans-30" transform="translate(63.623047 0.765625)"/>
       <use xlink:href="#DejaVuSans-30" transform="translate(128.203125 39.046875)scale(0.7)"/>
      </g>
     </g>
    </g>
    <g id="ytick_39">
     <g id="line2d_58">
      <g>
       <use xlink:href="#mb266019c56" x="41.917054" y="314.552507" style="stroke: #000000; stroke-width: 0.6"/>
      </g>
     </g>
    </g>
    <g id="ytick_40">
     <g id="line2d_59">
      <g>
       <use xlink:href="#mb266019c56" x="41.917054" y="312.066561" style="stroke: #000000; stroke-width: 0.6"/>
      </g>
     </g>
    </g>
    <g id="ytick_41">
     <g id="line2d_60">
      <g>
       <use xlink:href="#mb266019c56" x="41.917054" y="310.035395" style="stroke: #000000; stroke-width: 0.6"/>
      </g>
     </g>
    </g>
    <g id="ytick_42">
     <g id="line2d_61">
      <g>
       <use xlink:href="#mb266019c56" x="41.917054" y="308.318069" style="stroke: #000000; stroke-width: 0.6"/>
      </g>
     </g>
    </g>
    <g id="ytick_43">
     <g id="line2d_62">
      <g>
       <use xlink:href="#mb266019c56" x="41.917054" y="306.830454" style="stroke: #000000; stroke-width: 0.6"/>
      </g>
     </g>
    </g>
    <g id="ytick_44">
     <g id="line2d_63">
      <g>
       <use xlink:href="#mb266019c56" x="41.917054" y="305.518284" style="stroke: #000000; stroke-width: 0.6"/>
      </g>
     </g>
    </g>
    <g id="ytick_45">
     <g id="line2d_64">
      <g>
       <use xlink:href="#mb266019c56" x="41.917054" y="296.622455" style="stroke: #000000; stroke-width: 0.6"/>
      </g>
     </g>
    </g>
    <g id="ytick_46">
     <g id="line2d_65">
      <g>
       <use xlink:href="#mb266019c56" x="41.917054" y="292.105343" style="stroke: #000000; stroke-width: 0.6"/>
      </g>
     </g>
    </g>
    <g id="ytick_47">
     <g id="line2d_66">
      <g>
       <use xlink:href="#mb266019c56" x="41.917054" y="288.900401" style="stroke: #000000; stroke-width: 0.6"/>
      </g>
     </g>
    </g>
    <g id="ytick_48">
     <g id="line2d_67">
      <g>
       <use xlink:href="#mb266019c56" x="41.917054" y="286.414455" style="stroke: #000000; stroke-width: 0.6"/>
      </g>
     </g>
    </g>
    <g id="ytick_49">
     <g id="line2d_68">
      <g>
       <use xlink:href="#mb266019c56" x="41.917054" y="284.38329" style="stroke: #000000; stroke-width: 0.6"/>
      </g>
     </g>
    </g>
    <g id="ytick_50">
     <g id="line2d_69">
      <g>
       <use xlink:href="#mb266019c56" x="41.917054" y="282.665964" style="stroke: #000000; stroke-width: 0.6"/>
      </g>
     </g>
    </g>
    <g id="ytick_51">
     <g id="line2d_70">
      <g>
       <use xlink:href="#mb266019c56" x="41.917054" y="281.178348" style="stroke: #000000; stroke-width: 0.6"/>
      </g>
     </g>
    </g>
    <g id="ytick_52">
     <g id="line2d_71">
      <g>
       <use xlink:href="#mb266019c56" x="41.917054" y="279.866178" style="stroke: #000000; stroke-width: 0.6"/>
      </g>
     </g>
    </g>
    <g id="ytick_53">
     <g id="line2d_72">
      <g>
       <use xlink:href="#mb266019c56" x="41.917054" y="270.970349" style="stroke: #000000; stroke-width: 0.6"/>
      </g>
     </g>
    </g>
    <g id="ytick_54">
     <g id="line2d_73">
      <g>
       <use xlink:href="#mb266019c56" x="41.917054" y="266.453237" style="stroke: #000000; stroke-width: 0.6"/>
      </g>
     </g>
    </g>
    <g id="ytick_55">
     <g id="line2d_74">
      <g>
       <use xlink:href="#mb266019c56" x="41.917054" y="263.248296" style="stroke: #000000; stroke-width: 0.6"/>
      </g>
     </g>
    </g>
    <g id="ytick_56">
     <g id="line2d_75">
      <g>
       <use xlink:href="#mb266019c56" x="41.917054" y="260.76235" style="stroke: #000000; stroke-width: 0.6"/>
      </g>
     </g>
    </g>
    <g id="ytick_57">
     <g id="line2d_76">
      <g>
       <use xlink:href="#mb266019c56" x="41.917054" y="258.731184" style="stroke: #000000; stroke-width: 0.6"/>
      </g>
     </g>
    </g>
    <g id="ytick_58">
     <g id="line2d_77">
      <g>
       <use xlink:href="#mb266019c56" x="41.917054" y="257.013858" style="stroke: #000000; stroke-width: 0.6"/>
      </g>
     </g>
    </g>
    <g id="ytick_59">
     <g id="line2d_78">
      <g>
       <use xlink:href="#mb266019c56" x="41.917054" y="255.526242" style="stroke: #000000; stroke-width: 0.6"/>
      </g>
     </g>
    </g>
    <g id="ytick_60">
     <g id="line2d_79">
      <g>
       <use xlink:href="#mb266019c56" x="41.917054" y="254.214073" style="stroke: #000000; stroke-width: 0.6"/>
      </g>
     </g>
    </g>
    <g id="ytick_61">
     <g id="line2d_80">
      <g>
       <use xlink:href="#mb266019c56" x="41.917054" y="245.318243" style="stroke: #000000; stroke-width: 0.6"/>
      </g>
     </g>
    </g>
    <g id="ytick_62">
     <g id="line2d_81">
      <g>
       <use xlink:href="#mb266019c56" x="41.917054" y="240.801132" style="stroke: #000000; stroke-width: 0.6"/>
      </g>
     </g>
    </g>
    <g id="ytick_63">
     <g id="line2d_82">
      <g>
       <use xlink:href="#mb266019c56" x="41.917054" y="237.59619" style="stroke: #000000; stroke-width: 0.6"/>
      </g>
     </g>
    </g>
    <g id="ytick_64">
     <g id="line2d_83">
      <g>
       <use xlink:href="#mb266019c56" x="41.917054" y="235.110244" style="stroke: #000000; stroke-width: 0.6"/>
      </g>
     </g>
    </g>
    <g id="ytick_65">
     <g id="line2d_84">
      <g>
       <use xlink:href="#mb266019c56" x="41.917054" y="233.079078" style="stroke: #000000; stroke-width: 0.6"/>
      </g>
     </g>
    </g>
    <g id="ytick_66">
     <g id="line2d_85">
      <g>
       <use xlink:href="#mb266019c56" x="41.917054" y="231.361752" style="stroke: #000000; stroke-width: 0.6"/>
      </g>
     </g>
    </g>
    <g id="ytick_67">
     <g id="line2d_86">
      <g>
       <use xlink:href="#mb266019c56" x="41.917054" y="229.874137" style="stroke: #000000; stroke-width: 0.6"/>
      </g>
     </g>
    </g>
    <g id="ytick_68">
     <g id="line2d_87">
      <g>
       <use xlink:href="#mb266019c56" x="41.917054" y="228.561967" style="stroke: #000000; stroke-width: 0.6"/>
      </g>
     </g>
    </g>
    <g id="ytick_69">
     <g id="line2d_88">
      <g>
       <use xlink:href="#mb266019c56" x="41.917054" y="219.666138" style="stroke: #000000; stroke-width: 0.6"/>
      </g>
     </g>
    </g>
    <g id="ytick_70">
     <g id="line2d_89">
      <g>
       <use xlink:href="#mb266019c56" x="41.917054" y="215.149026" style="stroke: #000000; stroke-width: 0.6"/>
      </g>
     </g>
    </g>
    <g id="ytick_71">
     <g id="line2d_90">
      <g>
       <use xlink:href="#mb266019c56" x="41.917054" y="211.944084" style="stroke: #000000; stroke-width: 0.6"/>
      </g>
     </g>
    </g>
    <g id="ytick_72">
     <g id="line2d_91">
      <g>
       <use xlink:href="#mb266019c56" x="41.917054" y="209.458139" style="stroke: #000000; stroke-width: 0.6"/>
      </g>
     </g>
    </g>
    <g id="ytick_73">
     <g id="line2d_92">
      <g>
       <use xlink:href="#mb266019c56" x="41.917054" y="207.426973" style="stroke: #000000; stroke-width: 0.6"/>
      </g>
     </g>
    </g>
    <g id="ytick_74">
     <g id="line2d_93">
      <g>
       <use xlink:href="#mb266019c56" x="41.917054" y="205.709647" style="stroke: #000000; stroke-width: 0.6"/>
      </g>
     </g>
    </g>
    <g id="ytick_75">
     <g id="line2d_94">
      <g>
       <use xlink:href="#mb266019c56" x="41.917054" y="204.222031" style="stroke: #000000; stroke-width: 0.6"/>
      </g>
     </g>
    </g>
    <g id="ytick_76">
     <g id="line2d_95">
      <g>
       <use xlink:href="#mb266019c56" x="41.917054" y="202.909861" style="stroke: #000000; stroke-width: 0.6"/>
      </g>
     </g>
    </g>
   </g>
   <g id="line2d_96">
    <path d="M 60.466279 199.890909 
L 61.209735 232.099874 
L 61.953191 241.929356 
L 62.696646 245.932357 
L 63.440102 253.360965 
L 64.183558 255.048161 
L 65.67047 255.747953 
L 67.157382 256.309017 
L 67.900838 253.605875 
L 68.644294 262.377896 
L 69.38775 263.655485 
L 70.131205 264.286783 
L 70.874661 264.250983 
L 71.618117 265.502065 
L 72.361573 264.345384 
L 73.105029 266.336496 
L 74.591941 266.499614 
L 75.335397 270.684678 
L 76.078853 271.476962 
L 76.822309 271.533589 
L 77.565765 271.704789 
L 78.30922 272.463362 
L 79.796132 272.357437 
L 80.539588 272.712782 
L 82.0265 273.042696 
L 82.769956 277.156414 
L 83.513412 276.895717 
L 84.256868 277.609524 
L 85.743779 277.476632 
L 86.487235 277.64198 
L 87.230691 277.621091 
L 87.974147 277.748055 
L 88.717603 277.538109 
L 89.461059 277.663605 
L 90.204515 279.10741 
L 90.947971 279.173606 
L 91.691427 279.420585 
L 93.178339 279.069331 
L 93.921794 279.405169 
L 95.408706 279.789923 
L 96.152162 279.527916 
L 96.895618 280.073823 
L 97.639074 282.581649 
L 99.125986 282.707063 
L 99.869442 282.878985 
L 100.612898 282.494991 
L 101.356353 283.222049 
L 102.099809 283.468617 
L 102.843265 283.494486 
L 103.586721 284.188528 
L 104.330177 284.26095 
L 105.073633 285.251799 
L 105.817089 284.977124 
L 106.560545 285.960482 
L 107.304001 285.803746 
L 108.790913 286.803603 
L 109.534368 286.621917 
L 110.277824 287.156246 
L 111.02128 287.181104 
L 111.764736 287.646421 
L 112.508192 287.227011 
L 113.251648 287.354966 
L 113.995104 287.96299 
L 114.73856 287.843668 
L 115.482016 288.13563 
L 116.225472 288.668341 
L 116.968927 288.736105 
L 118.455839 288.214515 
L 119.199295 289.105328 
L 119.942751 289.798399 
L 120.686207 290.077001 
L 121.429663 290.520161 
L 122.173119 290.290503 
L 122.916575 290.686106 
L 123.660031 290.627644 
L 125.146942 290.861305 
L 125.890398 291.041064 
L 126.633854 291.08897 
L 127.37731 291.340788 
L 128.120766 291.981481 
L 128.864222 291.024086 
L 129.607678 292.554816 
L 130.351134 292.646743 
L 131.09459 292.968905 
L 131.838046 291.655251 
L 132.581501 292.241107 
L 133.324957 293.194769 
L 134.811869 293.425213 
L 135.555325 293.335152 
L 136.298781 293.776774 
L 137.042237 293.968851 
L 137.785693 293.626039 
L 138.529149 294.485229 
L 139.272605 294.528664 
L 140.016061 294.31465 
L 140.759516 294.24908 
L 141.502972 294.597692 
L 142.246428 293.971798 
L 142.989884 293.876706 
L 144.476796 294.209234 
L 145.220252 294.957214 
L 145.963708 294.560193 
L 146.707164 294.438323 
L 147.45062 294.642087 
L 148.937531 294.334703 
L 149.680987 295.388425 
L 150.424443 295.960087 
L 151.167899 295.99359 
L 151.911355 296.582658 
L 152.654811 296.063529 
L 153.398267 296.342786 
L 154.141723 297.177928 
L 154.885179 296.921035 
L 155.628635 297.115034 
L 156.37209 297.510902 
L 157.115546 296.819171 
L 158.602458 297.413087 
L 159.345914 296.546736 
L 160.08937 297.185171 
L 160.832826 296.293832 
L 161.576282 298.32327 
L 162.319738 296.55801 
L 163.063194 297.792836 
L 163.806649 297.584326 
L 164.550105 297.14133 
L 165.293561 297.754115 
L 166.037017 297.681789 
L 166.780473 297.820269 
L 167.523929 298.548382 
L 168.267385 297.329024 
L 169.010841 298.658558 
L 169.754297 298.68111 
L 170.497753 298.583023 
L 171.241209 297.950496 
L 171.984664 299.934218 
L 172.72812 299.906043 
L 173.471576 299.734771 
L 174.215032 299.238831 
L 174.958488 300.035487 
L 175.701944 299.680505 
L 176.4454 298.954616 
L 177.188856 300.130659 
L 177.932312 298.841034 
L 178.675768 300.37826 
L 179.419223 298.030005 
L 180.162679 298.420125 
L 180.906135 298.165746 
L 181.649591 299.118253 
L 182.393047 299.183307 
L 183.879959 299.706688 
L 184.623415 299.477978 
L 185.366871 299.762284 
L 186.110327 299.182568 
L 186.853783 299.167438 
L 187.597238 299.544 
L 188.340694 299.60858 
L 189.08415 299.152982 
L 189.827606 300.415202 
L 190.571062 299.532413 
L 191.314518 299.864522 
L 192.057974 298.889349 
L 192.80143 299.54925 
L 193.544886 298.949945 
L 194.288342 300.179062 
L 195.031797 299.890313 
L 195.775253 300.798296 
L 196.518709 300.177894 
L 197.262165 300.638053 
L 198.005621 300.559006 
L 198.749077 300.599168 
L 199.492533 301.165668 
L 200.235989 301.173605 
L 200.979445 300.5886 
L 201.722901 301.52393 
L 203.209812 301.354554 
L 203.953268 303.416142 
L 204.696724 302.802815 
L 205.44018 303.43835 
L 206.183636 302.9375 
L 206.927092 303.502649 
L 209.900916 302.237118 
L 210.644371 302.910588 
L 211.387827 302.513372 
L 212.131283 302.618288 
L 212.874739 303.468523 
L 213.618195 303.19122 
L 214.361651 303.138686 
L 215.105107 303.53353 
L 215.848563 303.459032 
L 216.592019 302.100398 
L 217.335475 302.021766 
L 218.078931 303.724907 
L 218.822386 302.272542 
L 219.565842 302.628269 
L 220.309298 304.004942 
L 221.052754 302.746507 
L 221.79621 302.966054 
L 222.539666 303.015104 
L 223.283122 303.411646 
L 224.026578 304.24725 
L 224.770034 303.003652 
L 225.51349 303.411919 
L 226.256945 303.607302 
L 227.743857 303.565488 
L 228.487313 303.908996 
L 229.230769 304.651212 
L 230.717681 303.538175 
L 231.461137 302.356351 
L 232.204593 302.680192 
L 232.948049 303.232157 
L 233.691505 303.64386 
L 234.43496 303.315538 
L 235.178416 303.314758 
L 235.921872 302.960285 
L 236.665328 303.9162 
L 237.408784 303.475966 
L 238.15224 304.288963 
L 238.895696 303.033849 
L 240.382608 303.787121 
L 241.126064 304.566841 
L 241.869519 303.397771 
L 242.612975 304.404723 
L 243.356431 304.466021 
L 244.099887 303.468445 
L 244.843343 303.367588 
L 245.586799 304.574503 
L 246.330255 304.431308 
L 247.073711 304.134156 
L 248.560623 304.974274 
L 249.304079 305.097487 
L 250.047534 304.494121 
L 250.79099 304.186709 
L 252.277902 305.103989 
L 253.021358 305.333573 
L 253.764814 303.597294 
L 254.50827 305.10157 
L 255.251726 304.411433 
L 255.995182 305.476834 
L 256.738638 305.42145 
L 257.482093 304.342573 
L 258.225549 304.439135 
L 258.969005 304.913307 
L 259.712461 304.435718 
L 260.455917 305.44145 
L 261.199373 304.865955 
L 262.686285 304.18709 
L 263.429741 305.140057 
L 264.173197 305.053293 
L 264.916653 305.375041 
L 266.403564 305.012938 
L 267.14702 304.24257 
L 267.890476 305.222096 
L 269.377388 305.466193 
L 270.120844 304.925317 
L 270.8643 305.859591 
L 271.607756 305.379453 
L 272.351212 305.384956 
L 273.094667 306.175324 
L 273.838123 306.752436 
L 274.581579 304.965164 
L 275.325035 305.696032 
L 276.068491 304.904859 
L 276.811947 304.626745 
L 277.555403 305.147195 
L 278.298859 304.39061 
L 279.042315 304.97718 
L 279.785771 304.943136 
L 280.529227 304.629378 
L 281.272682 304.863217 
L 282.016138 304.828372 
L 282.759594 305.094769 
L 283.50305 305.814413 
L 284.246506 305.519903 
L 284.989962 305.382569 
L 285.733418 305.774374 
L 286.476874 305.023905 
L 287.22033 306.562087 
L 287.963786 305.773689 
L 288.707241 306.422333 
L 289.450697 306.641329 
L 290.194153 305.543917 
L 291.681065 304.928681 
L 292.424521 305.137221 
L 293.167977 305.5606 
L 293.911433 305.778799 
L 294.654889 305.325561 
L 295.398345 306.140775 
L 296.141801 305.093297 
L 296.885256 305.867985 
L 297.628712 305.581223 
L 298.372168 305.06636 
L 299.115624 304.888469 
L 299.85908 305.407147 
L 300.602536 306.26925 
L 301.345992 306.668303 
L 302.089448 307.269065 
L 303.57636 304.872384 
L 304.319815 306.92377 
L 305.063271 306.939693 
L 305.806727 305.710471 
L 306.550183 305.797427 
L 307.293639 305.243649 
L 308.037095 306.285002 
L 308.780551 305.62737 
L 309.524007 306.10276 
L 310.267463 305.459102 
L 311.754375 305.812883 
L 312.49783 304.968834 
L 313.241286 305.922104 
L 313.984742 306.640725 
L 314.728198 306.103133 
L 315.471654 306.111349 
L 316.21511 306.814552 
L 316.958566 306.137842 
L 317.702022 307.169956 
L 318.445478 306.489592 
L 319.188934 307.073798 
L 319.932389 305.53715 
L 320.675845 307.089226 
L 321.419301 307.772295 
L 322.162757 307.385193 
L 322.906213 306.696104 
L 323.649669 307.191671 
L 324.393125 307.174723 
L 325.136581 306.968626 
L 325.880037 307.858785 
L 326.623493 307.436913 
L 327.366949 306.470535 
L 328.110404 306.500987 
L 328.85386 306.338966 
L 329.597316 307.61338 
L 330.340772 306.513314 
L 331.084228 305.927475 
L 331.827684 306.412969 
L 332.57114 307.123924 
L 333.314596 307.427201 
L 334.058052 306.845598 
L 334.801508 307.261755 
L 335.544963 305.760784 
L 336.288419 306.193 
L 338.518787 305.333829 
L 339.262243 305.810687 
L 340.005699 305.825122 
L 340.749155 306.241916 
L 341.492611 306.277471 
L 342.236067 305.416139 
L 343.722978 308.128077 
L 344.466434 308.13162 
L 345.20989 307.22813 
L 346.696802 308.022077 
L 347.440258 308.808548 
L 348.183714 307.077202 
L 348.92717 308.011745 
L 349.670626 308.420548 
L 350.414082 307.399252 
L 351.157537 306.752123 
L 351.900993 307.664826 
L 352.644449 308.123774 
L 353.387905 307.198407 
L 354.874817 307.03673 
L 355.618273 307.350945 
L 356.361729 307.936865 
L 357.105185 306.944692 
L 357.848641 306.389509 
L 358.592097 306.865817 
L 359.335552 306.874505 
L 360.079008 307.698379 
L 360.822464 306.567066 
L 361.56592 306.844028 
L 362.309376 307.601081 
L 363.052832 307.212055 
L 364.539744 307.07389 
L 365.2832 306.762384 
L 366.026656 306.166769 
L 366.770111 307.31002 
L 367.513567 306.99292 
L 368.257023 306.137958 
L 369.000479 306.749291 
L 369.743935 306.844457 
L 370.487391 307.425381 
L 371.230847 306.927483 
L 371.974303 307.757421 
L 373.461215 307.616454 
L 374.204671 307.222098 
L 374.948126 309.572777 
L 375.691582 308.787625 
L 376.435038 310.137551 
L 377.178494 307.864175 
L 377.92195 308.569654 
L 378.665406 307.624147 
L 379.408862 308.634235 
L 380.152318 306.983454 
L 380.895774 307.628909 
L 381.63923 307.632114 
L 382.382685 306.653515 
L 383.126141 306.909572 
L 383.869597 307.303695 
L 384.613053 307.977447 
L 385.356509 308.049211 
L 386.099965 306.952646 
L 386.843421 306.844103 
L 387.586877 306.485566 
L 388.330333 308.208599 
L 389.073789 307.688029 
L 389.817245 307.8475 
L 390.5607 307.374401 
L 391.304156 309.015313 
L 392.047612 308.770919 
L 392.791068 307.551425 
L 393.534524 307.618388 
L 394.27798 308.037152 
L 395.021436 306.432543 
L 395.764892 307.627491 
L 397.995259 307.653304 
L 399.482171 307.086568 
L 400.225627 308.327094 
L 400.969083 307.186405 
L 401.712539 307.612359 
L 402.455995 309.3231 
L 403.199451 307.874022 
L 403.942907 308.161232 
L 404.686363 308.889288 
L 405.429819 307.976317 
L 406.173274 308.350626 
L 406.91673 308.195354 
L 407.660186 308.82833 
L 408.403642 307.808073 
L 409.147098 308.885117 
L 409.890554 307.969791 
L 410.63401 308.043095 
L 411.377466 308.881902 
L 412.120922 308.910239 
L 412.864378 307.988141 
L 413.607833 309.027534 
L 414.351289 308.052954 
L 415.094745 307.769097 
L 417.325113 308.817444 
L 418.068569 309.426459 
L 418.812025 308.136435 
L 419.555481 308.383488 
L 420.298937 307.824636 
L 421.042393 308.687467 
L 421.785848 308.6789 
L 422.529304 307.983204 
L 423.27276 309.210192 
L 424.016216 308.723309 
L 424.759672 309.287998 
L 425.503128 308.154895 
L 426.246584 310.1596 
L 427.733496 308.35306 
L 428.476952 310.645988 
L 429.220407 308.04229 
L 429.963863 309.721333 
L 430.707319 308.865889 
L 431.450775 308.517915 
L 431.450775 308.517915 
" clip-path="url(#pdb0630aaa0)" style="fill: none; stroke: #1f77b4; stroke-width: 1.5; stroke-linecap: square"/>
   </g>
   <g id="line2d_97">
    <path d="M 60.466279 229.842966 
L 61.209735 243.10723 
L 61.953191 246.590662 
L 62.696646 251.990037 
L 63.440102 255.517915 
L 64.183558 256.324329 
L 64.927014 256.335421 
L 65.67047 256.145474 
L 66.413926 256.830002 
L 67.157382 257.214015 
L 67.900838 262.160704 
L 68.644294 263.476226 
L 69.38775 265.34096 
L 70.131205 265.933392 
L 70.874661 265.251575 
L 71.618117 265.338916 
L 72.361573 266.944273 
L 73.105029 267.2547 
L 73.848485 265.157379 
L 74.591941 266.824348 
L 75.335397 271.780588 
L 76.822309 272.334236 
L 77.565765 272.324484 
L 78.30922 272.452726 
L 79.052676 272.867933 
L 82.0265 273.101445 
L 82.769956 275.049953 
L 83.513412 276.524962 
L 85.000324 276.640368 
L 85.743779 276.156338 
L 86.487235 276.667672 
L 87.230691 275.561555 
L 87.974147 276.686609 
L 89.461059 276.620637 
L 90.204515 279.18247 
L 90.947971 278.556793 
L 91.691427 274.258063 
L 92.434883 279.331232 
L 93.178339 279.336653 
L 93.921794 278.5143 
L 94.66525 279.646893 
L 95.408706 279.845828 
L 96.152162 279.431189 
L 96.895618 280.082121 
L 97.639074 282.107992 
L 98.38253 281.961932 
L 99.125986 280.720024 
L 99.869442 281.708169 
L 100.612898 282.133767 
L 101.356353 283.152908 
L 102.099809 280.6261 
L 102.843265 283.069118 
L 103.586721 282.833925 
L 104.330177 284.328656 
L 105.073633 286.605861 
L 107.304001 287.707179 
L 108.047457 284.294962 
L 108.790913 288.110536 
L 109.534368 286.852524 
L 110.277824 287.120068 
L 111.02128 288.593174 
L 111.764736 288.732014 
L 112.508192 290.965563 
L 113.251648 287.866196 
L 113.995104 290.41177 
L 114.73856 290.757581 
L 115.482016 285.74824 
L 116.225472 290.996482 
L 116.968927 290.670946 
L 117.712383 291.766748 
L 118.455839 290.917638 
L 119.199295 289.654462 
L 119.942751 291.974205 
L 120.686207 288.915983 
L 121.429663 291.891443 
L 122.173119 291.32332 
L 122.916575 292.253324 
L 123.660031 289.584512 
L 124.403487 292.425122 
L 125.146942 291.807375 
L 125.890398 292.227868 
L 126.633854 292.440175 
L 127.37731 294.30579 
L 128.120766 294.135912 
L 128.864222 293.314484 
L 129.607678 293.974653 
L 130.351134 294.160346 
L 131.09459 292.494951 
L 131.838046 293.888915 
L 132.581501 293.827852 
L 133.324957 294.108155 
L 134.068413 294.723757 
L 134.811869 296.560307 
L 135.555325 296.08691 
L 136.298781 289.574075 
L 137.042237 294.597647 
L 137.785693 296.571537 
L 138.529149 295.287333 
L 139.272605 296.009872 
L 140.016061 296.383531 
L 140.759516 293.74756 
L 141.502972 294.722942 
L 142.246428 296.781957 
L 142.989884 296.366004 
L 143.73334 297.230497 
L 144.476796 296.315584 
L 145.220252 296.920647 
L 145.963708 297.142694 
L 146.707164 296.937841 
L 147.45062 297.158223 
L 148.194075 297.16316 
L 148.937531 296.971792 
L 149.680987 297.327572 
L 150.424443 294.252826 
L 151.167899 297.469893 
L 151.911355 296.44863 
L 152.654811 293.706241 
L 153.398267 297.010709 
L 154.141723 295.178105 
L 154.885179 294.554858 
L 155.628635 296.895224 
L 156.37209 296.479424 
L 157.115546 298.761556 
L 157.859002 298.396216 
L 158.602458 298.536244 
L 159.345914 296.854297 
L 160.08937 298.123393 
L 160.832826 294.988288 
L 161.576282 288.09254 
L 162.319738 297.330622 
L 163.063194 297.137621 
L 163.806649 298.129776 
L 165.293561 298.518195 
L 166.037017 299.960251 
L 166.780473 300.225987 
L 167.523929 299.899733 
L 168.267385 300.350655 
L 169.010841 297.803284 
L 169.754297 299.692562 
L 170.497753 300.15491 
L 171.241209 298.410884 
L 171.984664 299.682049 
L 173.471576 300.069019 
L 174.958488 299.230275 
L 175.701944 299.309614 
L 176.4454 298.154656 
L 177.188856 299.199083 
L 177.932312 299.037891 
L 178.675768 299.790208 
L 179.419223 300.99723 
L 180.162679 300.678543 
L 180.906135 300.682809 
L 181.649591 299.880753 
L 182.393047 301.153112 
L 183.136503 299.196701 
L 183.879959 299.330763 
L 184.623415 301.200777 
L 185.366871 301.552536 
L 186.110327 301.400929 
L 186.853783 301.380807 
L 187.597238 302.190851 
L 188.340694 301.240938 
L 189.08415 301.826323 
L 189.827606 301.326041 
L 190.571062 301.491033 
L 191.314518 302.089374 
L 192.057974 301.700255 
L 192.80143 302.027199 
L 193.544886 301.379139 
L 194.288342 301.293053 
L 195.031797 294.56413 
L 195.775253 293.224226 
L 196.518709 301.636128 
L 197.262165 301.474222 
L 198.005621 301.7513 
L 198.749077 297.697609 
L 199.492533 301.63825 
L 200.979445 301.467742 
L 201.722901 301.459289 
L 202.466357 302.085843 
L 203.209812 291.475507 
L 203.953268 302.143473 
L 205.44018 302.253514 
L 206.183636 302.061009 
L 207.670548 302.216723 
L 208.414004 302.177923 
L 209.15746 303.187402 
L 209.900916 303.438331 
L 210.644371 303.357708 
L 211.387827 303.684247 
L 212.131283 303.39749 
L 212.874739 303.720373 
L 213.618195 303.56701 
L 214.361651 303.732215 
L 215.105107 303.522165 
L 215.848563 303.454879 
L 216.592019 304.073542 
L 217.335475 304.499033 
L 218.078931 304.520804 
L 218.822386 304.35439 
L 219.565842 304.428887 
L 220.309298 304.329612 
L 222.539666 304.538546 
L 223.283122 304.505576 
L 224.026578 305.419508 
L 227.000401 305.626174 
L 232.948049 305.663059 
L 233.691505 305.857736 
L 235.178416 305.594844 
L 235.921872 305.658216 
L 236.665328 305.521196 
L 237.408784 305.615834 
L 238.15224 305.373185 
L 238.895696 306.463927 
L 245.586799 306.294118 
L 246.330255 306.145149 
L 247.073711 306.285319 
L 247.817167 306.172892 
L 248.560623 305.570242 
L 249.304079 306.286392 
L 250.79099 306.19989 
L 251.534446 306.332423 
L 253.021358 305.986919 
L 253.764814 306.825262 
L 254.50827 307.131292 
L 255.251726 306.995316 
L 256.738638 307.005425 
L 257.482093 306.800432 
L 258.969005 306.958374 
L 259.712461 306.86477 
L 260.455917 306.970803 
L 261.199373 306.345619 
L 261.942829 306.659605 
L 262.686285 306.504319 
L 263.429741 306.614627 
L 264.173197 306.089254 
L 264.916653 306.456047 
L 265.660108 306.021737 
L 267.14702 306.393257 
L 267.890476 306.208294 
L 268.633932 306.855228 
L 269.377388 306.998509 
L 270.120844 306.883308 
L 270.8643 307.031171 
L 276.068491 307.057647 
L 276.811947 306.843843 
L 279.785771 306.674085 
L 284.989962 306.770419 
L 287.22033 306.703403 
L 288.707241 306.748831 
L 290.194153 306.764613 
L 290.937609 307.633998 
L 292.424521 308.04687 
L 293.911433 308.162083 
L 294.654889 308.138037 
L 296.141801 308.21609 
L 297.628712 308.24946 
L 298.372168 308.530607 
L 305.063271 308.400708 
L 305.806727 308.643245 
L 312.49783 308.8223 
L 313.984742 309.016723 
L 314.728198 309.065056 
L 316.958566 308.962129 
L 318.445478 309.040582 
L 319.932389 309.009124 
L 320.675845 309.634005 
L 322.162757 309.851494 
L 326.623493 309.950388 
L 327.366949 309.916497 
L 328.110404 310.211791 
L 330.340772 310.30267 
L 335.544963 310.239628 
L 337.031875 309.892789 
L 341.492611 309.533789 
L 342.979523 309.536322 
L 344.466434 309.311122 
L 349.670626 309.181028 
L 350.414082 309.396582 
L 357.105185 309.533638 
L 357.848641 309.741023 
L 364.539744 309.880589 
L 365.2832 310.091894 
L 369.743935 310.285866 
L 371.974303 310.361844 
L 372.717759 310.563192 
L 379.408862 310.753541 
L 380.152318 311.024466 
L 385.356509 310.92072 
L 386.843421 310.905552 
L 388.330333 311.02114 
L 396.508348 311.210489 
L 401.712539 311.107422 
L 403.199451 311.22861 
L 409.147098 311.258747 
L 409.890554 311.503637 
L 421.042393 311.912741 
L 424.016216 311.906401 
L 425.503128 312.028567 
L 431.450775 312.109091 
L 431.450775 312.109091 
" clip-path="url(#pdb0630aaa0)" style="fill: none; stroke: #ff7f0e; stroke-width: 1.5; stroke-linecap: square"/>
   </g>
   <g id="patch_9">
    <path d="M 41.917054 317.72 
L 41.917054 194.28 
" style="fill: none; stroke: #000000; stroke-width: 0.8; stroke-linejoin: miter; stroke-linecap: square"/>
   </g>
   <g id="patch_10">
    <path d="M 450 317.72 
L 450 194.28 
" style="fill: none; stroke: #000000; stroke-width: 0.8; stroke-linejoin: miter; stroke-linecap: square"/>
   </g>
   <g id="patch_11">
    <path d="M 41.917054 317.72 
L 450 317.72 
" style="fill: none; stroke: #000000; stroke-width: 0.8; stroke-linejoin: miter; stroke-linecap: square"/>
   </g>
   <g id="patch_12">
    <path d="M 41.917054 194.28 
L 450 194.28 
" style="fill: none; stroke: #000000; stroke-width: 0.8; stroke-linejoin: miter; stroke-linecap: square"/>
   </g>
   <g id="text_28">
    <!-- adjoint model loss -->
    <g transform="translate(191.226339 188.28)scale(0.12 -0.12)">
     <defs>
      <path id="DejaVuSans-6a" d="M 603 3500 
L 1178 3500 
L 1178 -63 
Q 1178 -731 923 -1031 
Q 669 -1331 103 -1331 
L -116 -1331 
L -116 -844 
L 38 -844 
Q 366 -844 484 -692 
Q 603 -541 603 -63 
L 603 3500 
z
M 603 4863 
L 1178 4863 
L 1178 4134 
L 603 4134 
L 603 4863 
z
" transform="scale(0.015625)"/>
     </defs>
     <use xlink:href="#DejaVuSans-61"/>
     <use xlink:href="#DejaVuSans-64" x="61.279297"/>
     <use xlink:href="#DejaVuSans-6a" x="124.755859"/>
     <use xlink:href="#DejaVuSans-6f" x="152.539062"/>
     <use xlink:href="#DejaVuSans-69" x="213.720703"/>
     <use xlink:href="#DejaVuSans-6e" x="241.503906"/>
     <use xlink:href="#DejaVuSans-74" x="304.882812"/>
     <use xlink:href="#DejaVuSans-20" x="344.091797"/>
     <use xlink:href="#DejaVuSans-6d" x="375.878906"/>
     <use xlink:href="#DejaVuSans-6f" x="473.291016"/>
     <use xlink:href="#DejaVuSans-64" x="534.472656"/>
     <use xlink:href="#DejaVuSans-65" x="597.949219"/>
     <use xlink:href="#DejaVuSans-6c" x="659.472656"/>
     <use xlink:href="#DejaVuSans-20" x="687.255859"/>
     <use xlink:href="#DejaVuSans-6c" x="719.042969"/>
     <use xlink:href="#DejaVuSans-6f" x="746.826172"/>
     <use xlink:href="#DejaVuSans-73" x="808.007812"/>
     <use xlink:href="#DejaVuSans-73" x="860.107422"/>
    </g>
   </g>
   <g id="legend_2">
    <g id="patch_13">
     <path d="M 365.23125 231.63625 
L 443 231.63625 
Q 445 231.63625 445 229.63625 
L 445 201.28 
Q 445 199.28 443 199.28 
L 365.23125 199.28 
Q 363.23125 199.28 363.23125 201.28 
L 363.23125 229.63625 
Q 363.23125 231.63625 365.23125 231.63625 
z
" style="fill: #ffffff; opacity: 0.8; stroke: #cccccc; stroke-linejoin: miter"/>
    </g>
    <g id="line2d_98">
     <path d="M 367.23125 207.378438 
L 377.23125 207.378438 
L 387.23125 207.378438 
" style="fill: none; stroke: #1f77b4; stroke-width: 1.5; stroke-linecap: square"/>
    </g>
    <g id="text_29">
     <!-- train loss -->
     <g transform="translate(395.23125 210.878438)scale(0.1 -0.1)">
      <use xlink:href="#DejaVuSans-74"/>
      <use xlink:href="#DejaVuSans-72" x="39.208984"/>
      <use xlink:href="#DejaVuSans-61" x="80.322266"/>
      <use xlink:href="#DejaVuSans-69" x="141.601562"/>
      <use xlink:href="#DejaVuSans-6e" x="169.384766"/>
      <use xlink:href="#DejaVuSans-20" x="232.763672"/>
      <use xlink:href="#DejaVuSans-6c" x="264.550781"/>
      <use xlink:href="#DejaVuSans-6f" x="292.333984"/>
      <use xlink:href="#DejaVuSans-73" x="353.515625"/>
      <use xlink:href="#DejaVuSans-73" x="405.615234"/>
     </g>
    </g>
    <g id="line2d_99">
     <path d="M 367.23125 222.056563 
L 377.23125 222.056563 
L 387.23125 222.056563 
" style="fill: none; stroke: #ff7f0e; stroke-width: 1.5; stroke-linecap: square"/>
    </g>
    <g id="text_30">
     <!-- val loss -->
     <g transform="translate(395.23125 225.556563)scale(0.1 -0.1)">
      <use xlink:href="#DejaVuSans-76"/>
      <use xlink:href="#DejaVuSans-61" x="59.179688"/>
      <use xlink:href="#DejaVuSans-6c" x="120.458984"/>
      <use xlink:href="#DejaVuSans-20" x="148.242188"/>
      <use xlink:href="#DejaVuSans-6c" x="180.029297"/>
      <use xlink:href="#DejaVuSans-6f" x="207.8125"/>
      <use xlink:href="#DejaVuSans-73" x="268.994141"/>
      <use xlink:href="#DejaVuSans-73" x="321.09375"/>
     </g>
    </g>
   </g>
  </g>
 </g>
 <defs>
  <clipPath id="p4c776964fb">
   <rect x="41.917054" y="26.88" width="408.082946" height="123.44"/>
  </clipPath>
  <clipPath id="pdb0630aaa0">
   <rect x="41.917054" y="194.28" width="408.082946" height="123.44"/>
  </clipPath>
 </defs>
</svg>
