<?xml version="1.0" encoding="utf-8" standalone="no"?>
<!DOCTYPE svg PUBLIC "-//W3C//DTD SVG 1.1//EN"
  "http://www.w3.org/Graphics/SVG/1.1/DTD/svg11.dtd">
<svg xmlns:xlink="http://www.w3.org/1999/xlink" width="460.8pt" height="345.6pt" viewBox="0 0 460.8 345.6" xmlns="http://www.w3.org/2000/svg" version="1.1">
 <metadata>
  <rdf:RDF xmlns:dc="http://purl.org/dc/elements/1.1/" xmlns:cc="http://creativecommons.org/ns#" xmlns:rdf="http://www.w3.org/1999/02/22-rdf-syntax-ns#">
   <cc:Work>
    <dc:type rdf:resource="http://purl.org/dc/dcmitype/StillImage"/>
    <dc:date>2022-08-26T08:07:15.362536</dc:date>
    <dc:format>image/svg+xml</dc:format>
    <dc:creator>
     <cc:Agent>
      <dc:title>Matplotlib v3.5.1, https://matplotlib.org/</dc:title>
     </cc:Agent>
    </dc:creator>
   </cc:Work>
  </rdf:RDF>
 </metadata>
 <defs>
  <style type="text/css">*{stroke-linejoin: round; stroke-linecap: butt}</style>
 </defs>
 <g id="figure_1">
  <g id="patch_1">
   <path d="M 0 345.6 
L 460.8 345.6 
L 460.8 0 
L 0 0 
z
" style="fill: #ffffff"/>
  </g>
  <g id="axes_1">
   <g id="patch_2">
    <path d="M 41.917054 150.32 
L 450 150.32 
L 450 26.88 
L 41.917054 26.88 
z
" style="fill: #ffffff"/>
   </g>
   <g id="matplotlib.axis_1">
    <g id="xtick_1">
     <g id="line2d_1">
      <defs>
       <path id="m18a287ccf1" d="M 0 0 
L 0 3.5 
" style="stroke: #000000; stroke-width: 0.8"/>
      </defs>
      <g>
       <use xlink:href="#m18a287ccf1" x="60.466279" y="150.32" style="stroke: #000000; stroke-width: 0.8"/>
      </g>
     </g>
     <g id="text_1">
      <!-- 0 -->
      <g transform="translate(57.285029 164.918437)scale(0.1 -0.1)">
       <defs>
        <path id="DejaVuSans-30" d="M 2034 4250 
Q 1547 4250 1301 3770 
Q 1056 3291 1056 2328 
Q 1056 1369 1301 889 
Q 1547 409 2034 409 
Q 2525 409 2770 889 
Q 3016 1369 3016 2328 
Q 3016 3291 2770 3770 
Q 2525 4250 2034 4250 
z
M 2034 4750 
Q 2819 4750 3233 4129 
Q 3647 3509 3647 2328 
Q 3647 1150 3233 529 
Q 2819 -91 2034 -91 
Q 1250 -91 836 529 
Q 422 1150 422 2328 
Q 422 3509 836 4129 
Q 1250 4750 2034 4750 
z
" transform="scale(0.015625)"/>
       </defs>
       <use xlink:href="#DejaVuSans-30"/>
      </g>
     </g>
    </g>
    <g id="xtick_2">
     <g id="line2d_2">
      <g>
       <use xlink:href="#m18a287ccf1" x="106.955564" y="150.32" style="stroke: #000000; stroke-width: 0.8"/>
      </g>
     </g>
     <g id="text_2">
      <!-- 50 -->
      <g transform="translate(100.593064 164.918437)scale(0.1 -0.1)">
       <defs>
        <path id="DejaVuSans-35" d="M 691 4666 
L 3169 4666 
L 3169 4134 
L 1269 4134 
L 1269 2991 
Q 1406 3038 1543 3061 
Q 1681 3084 1819 3084 
Q 2600 3084 3056 2656 
Q 3513 2228 3513 1497 
Q 3513 744 3044 326 
Q 2575 -91 1722 -91 
Q 1428 -91 1123 -41 
Q 819 9 494 109 
L 494 744 
Q 775 591 1075 516 
Q 1375 441 1709 441 
Q 2250 441 2565 725 
Q 2881 1009 2881 1497 
Q 2881 1984 2565 2268 
Q 2250 2553 1709 2553 
Q 1456 2553 1204 2497 
Q 953 2441 691 2322 
L 691 4666 
z
" transform="scale(0.015625)"/>
       </defs>
       <use xlink:href="#DejaVuSans-35"/>
       <use xlink:href="#DejaVuSans-30" x="63.623047"/>
      </g>
     </g>
    </g>
    <g id="xtick_3">
     <g id="line2d_3">
      <g>
       <use xlink:href="#m18a287ccf1" x="153.444849" y="150.32" style="stroke: #000000; stroke-width: 0.8"/>
      </g>
     </g>
     <g id="text_3">
      <!-- 100 -->
      <g transform="translate(143.901099 164.918437)scale(0.1 -0.1)">
       <defs>
        <path id="DejaVuSans-31" d="M 794 531 
L 1825 531 
L 1825 4091 
L 703 3866 
L 703 4441 
L 1819 4666 
L 2450 4666 
L 2450 531 
L 3481 531 
L 3481 0 
L 794 0 
L 794 531 
z
" transform="scale(0.015625)"/>
       </defs>
       <use xlink:href="#DejaVuSans-31"/>
       <use xlink:href="#DejaVuSans-30" x="63.623047"/>
       <use xlink:href="#DejaVuSans-30" x="127.246094"/>
      </g>
     </g>
    </g>
    <g id="xtick_4">
     <g id="line2d_4">
      <g>
       <use xlink:href="#m18a287ccf1" x="199.934135" y="150.32" style="stroke: #000000; stroke-width: 0.8"/>
      </g>
     </g>
     <g id="text_4">
      <!-- 150 -->
      <g transform="translate(190.390385 164.918437)scale(0.1 -0.1)">
       <use xlink:href="#DejaVuSans-31"/>
       <use xlink:href="#DejaVuSans-35" x="63.623047"/>
       <use xlink:href="#DejaVuSans-30" x="127.246094"/>
      </g>
     </g>
    </g>
    <g id="xtick_5">
     <g id="line2d_5">
      <g>
       <use xlink:href="#m18a287ccf1" x="246.42342" y="150.32" style="stroke: #000000; stroke-width: 0.8"/>
      </g>
     </g>
     <g id="text_5">
      <!-- 200 -->
      <g transform="translate(236.87967 164.918437)scale(0.1 -0.1)">
       <defs>
        <path id="DejaVuSans-32" d="M 1228 531 
L 3431 531 
L 3431 0 
L 469 0 
L 469 531 
Q 828 903 1448 1529 
Q 2069 2156 2228 2338 
Q 2531 2678 2651 2914 
Q 2772 3150 2772 3378 
Q 2772 3750 2511 3984 
Q 2250 4219 1831 4219 
Q 1534 4219 1204 4116 
Q 875 4013 500 3803 
L 500 4441 
Q 881 4594 1212 4672 
Q 1544 4750 1819 4750 
Q 2544 4750 2975 4387 
Q 3406 4025 3406 3419 
Q 3406 3131 3298 2873 
Q 3191 2616 2906 2266 
Q 2828 2175 2409 1742 
Q 1991 1309 1228 531 
z
" transform="scale(0.015625)"/>
       </defs>
       <use xlink:href="#DejaVuSans-32"/>
       <use xlink:href="#DejaVuSans-30" x="63.623047"/>
       <use xlink:href="#DejaVuSans-30" x="127.246094"/>
      </g>
     </g>
    </g>
    <g id="xtick_6">
     <g id="line2d_6">
      <g>
       <use xlink:href="#m18a287ccf1" x="292.912705" y="150.32" style="stroke: #000000; stroke-width: 0.8"/>
      </g>
     </g>
     <g id="text_6">
      <!-- 250 -->
      <g transform="translate(283.368955 164.918437)scale(0.1 -0.1)">
       <use xlink:href="#DejaVuSans-32"/>
       <use xlink:href="#DejaVuSans-35" x="63.623047"/>
       <use xlink:href="#DejaVuSans-30" x="127.246094"/>
      </g>
     </g>
    </g>
    <g id="xtick_7">
     <g id="line2d_7">
      <g>
       <use xlink:href="#m18a287ccf1" x="339.40199" y="150.32" style="stroke: #000000; stroke-width: 0.8"/>
      </g>
     </g>
     <g id="text_7">
      <!-- 300 -->
      <g transform="translate(329.85824 164.918437)scale(0.1 -0.1)">
       <defs>
        <path id="DejaVuSans-33" d="M 2597 2516 
Q 3050 2419 3304 2112 
Q 3559 1806 3559 1356 
Q 3559 666 3084 287 
Q 2609 -91 1734 -91 
Q 1441 -91 1130 -33 
Q 819 25 488 141 
L 488 750 
Q 750 597 1062 519 
Q 1375 441 1716 441 
Q 2309 441 2620 675 
Q 2931 909 2931 1356 
Q 2931 1769 2642 2001 
Q 2353 2234 1838 2234 
L 1294 2234 
L 1294 2753 
L 1863 2753 
Q 2328 2753 2575 2939 
Q 2822 3125 2822 3475 
Q 2822 3834 2567 4026 
Q 2313 4219 1838 4219 
Q 1578 4219 1281 4162 
Q 984 4106 628 3988 
L 628 4550 
Q 988 4650 1302 4700 
Q 1616 4750 1894 4750 
Q 2613 4750 3031 4423 
Q 3450 4097 3450 3541 
Q 3450 3153 3228 2886 
Q 3006 2619 2597 2516 
z
" transform="scale(0.015625)"/>
       </defs>
       <use xlink:href="#DejaVuSans-33"/>
       <use xlink:href="#DejaVuSans-30" x="63.623047"/>
       <use xlink:href="#DejaVuSans-30" x="127.246094"/>
      </g>
     </g>
    </g>
    <g id="xtick_8">
     <g id="line2d_8">
      <g>
       <use xlink:href="#m18a287ccf1" x="385.891276" y="150.32" style="stroke: #000000; stroke-width: 0.8"/>
      </g>
     </g>
     <g id="text_8">
      <!-- 350 -->
      <g transform="translate(376.347526 164.918437)scale(0.1 -0.1)">
       <use xlink:href="#DejaVuSans-33"/>
       <use xlink:href="#DejaVuSans-35" x="63.623047"/>
       <use xlink:href="#DejaVuSans-30" x="127.246094"/>
      </g>
     </g>
    </g>
    <g id="xtick_9">
     <g id="line2d_9">
      <g>
       <use xlink:href="#m18a287ccf1" x="432.380561" y="150.32" style="stroke: #000000; stroke-width: 0.8"/>
      </g>
     </g>
     <g id="text_9">
      <!-- 400 -->
      <g transform="translate(422.836811 164.918437)scale(0.1 -0.1)">
       <defs>
        <path id="DejaVuSans-34" d="M 2419 4116 
L 825 1625 
L 2419 1625 
L 2419 4116 
z
M 2253 4666 
L 3047 4666 
L 3047 1625 
L 3713 1625 
L 3713 1100 
L 3047 1100 
L 3047 0 
L 2419 0 
L 2419 1100 
L 313 1100 
L 313 1709 
L 2253 4666 
z
" transform="scale(0.015625)"/>
       </defs>
       <use xlink:href="#DejaVuSans-34"/>
       <use xlink:href="#DejaVuSans-30" x="63.623047"/>
       <use xlink:href="#DejaVuSans-30" x="127.246094"/>
      </g>
     </g>
    </g>
   </g>
   <g id="matplotlib.axis_2">
    <g id="ytick_1">
     <g id="line2d_10">
      <defs>
       <path id="mb41c6824fe" d="M 0 0 
L -3.5 0 
" style="stroke: #000000; stroke-width: 0.8"/>
      </defs>
      <g>
       <use xlink:href="#mb41c6824fe" x="41.917054" y="142.623675" style="stroke: #000000; stroke-width: 0.8"/>
      </g>
     </g>
     <g id="text_10">
      <!-- $\mathdefault{10^{-4}}$ -->
      <g transform="translate(11.417054 146.422894)scale(0.1 -0.1)">
       <defs>
        <path id="DejaVuSans-2212" d="M 678 2272 
L 4684 2272 
L 4684 1741 
L 678 1741 
L 678 2272 
z
" transform="scale(0.015625)"/>
       </defs>
       <use xlink:href="#DejaVuSans-31" transform="translate(0 0.684375)"/>
       <use xlink:href="#DejaVuSans-30" transform="translate(63.623047 0.684375)"/>
       <use xlink:href="#DejaVuSans-2212" transform="translate(128.203125 38.965625)scale(0.7)"/>
       <use xlink:href="#DejaVuSans-34" transform="translate(186.855469 38.965625)scale(0.7)"/>
      </g>
     </g>
    </g>
    <g id="ytick_2">
     <g id="line2d_11">
      <g>
       <use xlink:href="#mb41c6824fe" x="41.917054" y="111.299124" style="stroke: #000000; stroke-width: 0.8"/>
      </g>
     </g>
     <g id="text_11">
      <!-- $\mathdefault{10^{-3}}$ -->
      <g transform="translate(11.417054 115.098343)scale(0.1 -0.1)">
       <use xlink:href="#DejaVuSans-31" transform="translate(0 0.765625)"/>
       <use xlink:href="#DejaVuSans-30" transform="translate(63.623047 0.765625)"/>
       <use xlink:href="#DejaVuSans-2212" transform="translate(128.203125 39.046875)scale(0.7)"/>
       <use xlink:href="#DejaVuSans-33" transform="translate(186.855469 39.046875)scale(0.7)"/>
      </g>
     </g>
    </g>
    <g id="ytick_3">
     <g id="line2d_12">
      <g>
       <use xlink:href="#mb41c6824fe" x="41.917054" y="79.974573" style="stroke: #000000; stroke-width: 0.8"/>
      </g>
     </g>
     <g id="text_12">
      <!-- $\mathdefault{10^{-2}}$ -->
      <g transform="translate(11.417054 83.773792)scale(0.1 -0.1)">
       <use xlink:href="#DejaVuSans-31" transform="translate(0 0.765625)"/>
       <use xlink:href="#DejaVuSans-30" transform="translate(63.623047 0.765625)"/>
       <use xlink:href="#DejaVuSans-2212" transform="translate(128.203125 39.046875)scale(0.7)"/>
       <use xlink:href="#DejaVuSans-32" transform="translate(186.855469 39.046875)scale(0.7)"/>
      </g>
     </g>
    </g>
    <g id="ytick_4">
     <g id="line2d_13">
      <g>
       <use xlink:href="#mb41c6824fe" x="41.917054" y="48.650022" style="stroke: #000000; stroke-width: 0.8"/>
      </g>
     </g>
     <g id="text_13">
      <!-- $\mathdefault{10^{-1}}$ -->
      <g transform="translate(11.417054 52.449241)scale(0.1 -0.1)">
       <use xlink:href="#DejaVuSans-31" transform="translate(0 0.684375)"/>
       <use xlink:href="#DejaVuSans-30" transform="translate(63.623047 0.684375)"/>
       <use xlink:href="#DejaVuSans-2212" transform="translate(128.203125 38.965625)scale(0.7)"/>
       <use xlink:href="#DejaVuSans-31" transform="translate(186.855469 38.965625)scale(0.7)"/>
      </g>
     </g>
    </g>
    <g id="ytick_5">
     <g id="line2d_14">
      <defs>
       <path id="m4c569d0ac0" d="M 0 0 
L -2 0 
" style="stroke: #000000; stroke-width: 0.6"/>
      </defs>
      <g>
       <use xlink:href="#m4c569d0ac0" x="41.917054" y="149.572988" style="stroke: #000000; stroke-width: 0.6"/>
      </g>
     </g>
    </g>
    <g id="ytick_6">
     <g id="line2d_15">
      <g>
       <use xlink:href="#m4c569d0ac0" x="41.917054" y="147.47591" style="stroke: #000000; stroke-width: 0.6"/>
      </g>
     </g>
    </g>
    <g id="ytick_7">
     <g id="line2d_16">
      <g>
       <use xlink:href="#m4c569d0ac0" x="41.917054" y="145.659338" style="stroke: #000000; stroke-width: 0.6"/>
      </g>
     </g>
    </g>
    <g id="ytick_8">
     <g id="line2d_17">
      <g>
       <use xlink:href="#m4c569d0ac0" x="41.917054" y="144.057008" style="stroke: #000000; stroke-width: 0.6"/>
      </g>
     </g>
    </g>
    <g id="ytick_9">
     <g id="line2d_18">
      <g>
       <use xlink:href="#m4c569d0ac0" x="41.917054" y="133.194046" style="stroke: #000000; stroke-width: 0.6"/>
      </g>
     </g>
    </g>
    <g id="ytick_10">
     <g id="line2d_19">
      <g>
       <use xlink:href="#m4c569d0ac0" x="41.917054" y="127.678066" style="stroke: #000000; stroke-width: 0.6"/>
      </g>
     </g>
    </g>
    <g id="ytick_11">
     <g id="line2d_20">
      <g>
       <use xlink:href="#m4c569d0ac0" x="41.917054" y="123.764416" style="stroke: #000000; stroke-width: 0.6"/>
      </g>
     </g>
    </g>
    <g id="ytick_12">
     <g id="line2d_21">
      <g>
       <use xlink:href="#m4c569d0ac0" x="41.917054" y="120.728754" style="stroke: #000000; stroke-width: 0.6"/>
      </g>
     </g>
    </g>
    <g id="ytick_13">
     <g id="line2d_22">
      <g>
       <use xlink:href="#m4c569d0ac0" x="41.917054" y="118.248437" style="stroke: #000000; stroke-width: 0.6"/>
      </g>
     </g>
    </g>
    <g id="ytick_14">
     <g id="line2d_23">
      <g>
       <use xlink:href="#m4c569d0ac0" x="41.917054" y="116.151359" style="stroke: #000000; stroke-width: 0.6"/>
      </g>
     </g>
    </g>
    <g id="ytick_15">
     <g id="line2d_24">
      <g>
       <use xlink:href="#m4c569d0ac0" x="41.917054" y="114.334787" style="stroke: #000000; stroke-width: 0.6"/>
      </g>
     </g>
    </g>
    <g id="ytick_16">
     <g id="line2d_25">
      <g>
       <use xlink:href="#m4c569d0ac0" x="41.917054" y="112.732457" style="stroke: #000000; stroke-width: 0.6"/>
      </g>
     </g>
    </g>
    <g id="ytick_17">
     <g id="line2d_26">
      <g>
       <use xlink:href="#m4c569d0ac0" x="41.917054" y="101.869495" style="stroke: #000000; stroke-width: 0.6"/>
      </g>
     </g>
    </g>
    <g id="ytick_18">
     <g id="line2d_27">
      <g>
       <use xlink:href="#m4c569d0ac0" x="41.917054" y="96.353515" style="stroke: #000000; stroke-width: 0.6"/>
      </g>
     </g>
    </g>
    <g id="ytick_19">
     <g id="line2d_28">
      <g>
       <use xlink:href="#m4c569d0ac0" x="41.917054" y="92.439865" style="stroke: #000000; stroke-width: 0.6"/>
      </g>
     </g>
    </g>
    <g id="ytick_20">
     <g id="line2d_29">
      <g>
       <use xlink:href="#m4c569d0ac0" x="41.917054" y="89.404202" style="stroke: #000000; stroke-width: 0.6"/>
      </g>
     </g>
    </g>
    <g id="ytick_21">
     <g id="line2d_30">
      <g>
       <use xlink:href="#m4c569d0ac0" x="41.917054" y="86.923885" style="stroke: #000000; stroke-width: 0.6"/>
      </g>
     </g>
    </g>
    <g id="ytick_22">
     <g id="line2d_31">
      <g>
       <use xlink:href="#m4c569d0ac0" x="41.917054" y="84.826807" style="stroke: #000000; stroke-width: 0.6"/>
      </g>
     </g>
    </g>
    <g id="ytick_23">
     <g id="line2d_32">
      <g>
       <use xlink:href="#m4c569d0ac0" x="41.917054" y="83.010236" style="stroke: #000000; stroke-width: 0.6"/>
      </g>
     </g>
    </g>
    <g id="ytick_24">
     <g id="line2d_33">
      <g>
       <use xlink:href="#m4c569d0ac0" x="41.917054" y="81.407906" style="stroke: #000000; stroke-width: 0.6"/>
      </g>
     </g>
    </g>
    <g id="ytick_25">
     <g id="line2d_34">
      <g>
       <use xlink:href="#m4c569d0ac0" x="41.917054" y="70.544943" style="stroke: #000000; stroke-width: 0.6"/>
      </g>
     </g>
    </g>
    <g id="ytick_26">
     <g id="line2d_35">
      <g>
       <use xlink:href="#m4c569d0ac0" x="41.917054" y="65.028964" style="stroke: #000000; stroke-width: 0.6"/>
      </g>
     </g>
    </g>
    <g id="ytick_27">
     <g id="line2d_36">
      <g>
       <use xlink:href="#m4c569d0ac0" x="41.917054" y="61.115314" style="stroke: #000000; stroke-width: 0.6"/>
      </g>
     </g>
    </g>
    <g id="ytick_28">
     <g id="line2d_37">
      <g>
       <use xlink:href="#m4c569d0ac0" x="41.917054" y="58.079651" style="stroke: #000000; stroke-width: 0.6"/>
      </g>
     </g>
    </g>
    <g id="ytick_29">
     <g id="line2d_38">
      <g>
       <use xlink:href="#m4c569d0ac0" x="41.917054" y="55.599334" style="stroke: #000000; stroke-width: 0.6"/>
      </g>
     </g>
    </g>
    <g id="ytick_30">
     <g id="line2d_39">
      <g>
       <use xlink:href="#m4c569d0ac0" x="41.917054" y="53.502256" style="stroke: #000000; stroke-width: 0.6"/>
      </g>
     </g>
    </g>
    <g id="ytick_31">
     <g id="line2d_40">
      <g>
       <use xlink:href="#m4c569d0ac0" x="41.917054" y="51.685684" style="stroke: #000000; stroke-width: 0.6"/>
      </g>
     </g>
    </g>
    <g id="ytick_32">
     <g id="line2d_41">
      <g>
       <use xlink:href="#m4c569d0ac0" x="41.917054" y="50.083355" style="stroke: #000000; stroke-width: 0.6"/>
      </g>
     </g>
    </g>
    <g id="ytick_33">
     <g id="line2d_42">
      <g>
       <use xlink:href="#m4c569d0ac0" x="41.917054" y="39.220392" style="stroke: #000000; stroke-width: 0.6"/>
      </g>
     </g>
    </g>
    <g id="ytick_34">
     <g id="line2d_43">
      <g>
       <use xlink:href="#m4c569d0ac0" x="41.917054" y="33.704413" style="stroke: #000000; stroke-width: 0.6"/>
      </g>
     </g>
    </g>
    <g id="ytick_35">
     <g id="line2d_44">
      <g>
       <use xlink:href="#m4c569d0ac0" x="41.917054" y="29.790763" style="stroke: #000000; stroke-width: 0.6"/>
      </g>
     </g>
    </g>
   </g>
   <g id="line2d_45">
    <path d="M 60.466279 32.490909 
L 61.396064 63.700286 
L 62.32585 75.583975 
L 63.255636 82.160618 
L 65.115207 91.222524 
L 66.044993 96.80859 
L 66.974779 101.694443 
L 67.904564 107.636755 
L 68.83435 112.252845 
L 69.764136 116.124077 
L 70.693921 118.944049 
L 71.623707 120.577865 
L 72.553493 121.728002 
L 73.483279 122.579244 
L 74.413064 123.188705 
L 75.34285 127.322803 
L 76.272636 128.386347 
L 78.132207 129.417298 
L 80.921564 130.412277 
L 81.85135 130.637681 
L 82.781136 132.48444 
L 83.710921 132.508705 
L 84.640707 133.171963 
L 86.500278 133.614612 
L 89.289636 134.139465 
L 90.219421 134.906949 
L 91.149207 135.267482 
L 92.078993 135.496515 
L 93.008778 135.873336 
L 94.86835 136.182626 
L 95.798136 136.48381 
L 96.727921 136.503966 
L 97.657707 138.789958 
L 98.587493 139.084582 
L 99.517278 139.56535 
L 102.306635 140.2707 
L 104.166207 140.578783 
L 105.095993 139.17155 
L 106.025778 139.676278 
L 106.955564 139.846102 
L 107.88535 140.16404 
L 110.674707 140.605563 
L 111.604493 140.697398 
L 112.534278 137.845904 
L 113.464064 138.501731 
L 115.323635 138.876419 
L 119.972564 139.320874 
L 120.90235 140.097971 
L 122.761921 140.466577 
L 126.481064 140.838469 
L 127.41085 136.761324 
L 128.340635 137.364867 
L 129.270421 137.695476 
L 131.129992 138.03414 
L 133.919349 138.271474 
L 134.849135 138.033048 
L 135.778921 138.590133 
L 137.638492 139.085305 
L 140.427849 139.245881 
L 141.357635 139.310718 
L 142.287421 137.549404 
L 143.217207 138.239278 
L 144.146992 138.046571 
L 145.076778 138.321193 
L 146.936349 138.500248 
L 147.866135 138.56852 
L 148.795921 138.368661 
L 149.725706 135.792839 
L 151.585278 136.493151 
L 152.515064 136.415901 
L 154.374635 136.624095 
L 157.163992 136.780896 
L 161.812921 137.615637 
L 162.742706 137.464938 
L 163.672492 137.516421 
L 164.602278 136.835045 
L 167.391635 137.404998 
L 168.321421 137.486053 
L 169.251206 137.335357 
L 170.180992 137.402301 
L 171.110778 137.351527 
L 172.040563 139.526772 
L 173.900135 139.861295 
L 174.82992 139.740472 
L 175.759706 139.907878 
L 176.689492 139.895955 
L 177.619278 140.005827 
L 178.549063 139.830053 
L 179.478849 135.456559 
L 181.33842 135.531527 
L 182.268206 135.40499 
L 183.197992 135.556842 
L 185.057563 135.532389 
L 185.987349 135.613516 
L 186.917135 137.044115 
L 189.706492 137.348838 
L 190.636277 137.210288 
L 191.566063 137.445727 
L 192.495849 137.271824 
L 193.425635 137.445919 
L 194.35542 136.549874 
L 196.214992 136.758507 
L 197.144777 136.610924 
L 199.004349 136.968327 
L 199.934135 136.841132 
L 201.793706 136.858344 
L 203.653277 136.805719 
L 204.583063 137.029896 
L 208.302206 136.973047 
L 209.231992 135.789561 
L 210.161777 135.866819 
L 211.091563 135.768868 
L 213.88092 135.932277 
L 214.810706 135.752843 
L 215.740492 135.887784 
L 216.670277 138.112048 
L 219.459634 138.085527 
L 220.38942 138.260597 
L 221.319206 138.188906 
L 222.248991 138.26551 
L 223.178777 138.212757 
L 224.108563 137.83453 
L 225.968134 137.923866 
L 226.89792 137.832697 
L 227.827706 138.007135 
L 228.757491 137.897555 
L 229.687277 138.047754 
L 230.617063 138.065227 
L 231.546849 136.405107 
L 233.40642 136.766688 
L 234.336206 136.726416 
L 235.265991 136.818838 
L 236.195777 136.665615 
L 238.055348 136.761307 
L 238.985134 134.575494 
L 239.91492 134.545128 
L 242.704277 134.822723 
L 243.634063 134.695113 
L 244.563848 134.912891 
L 245.493634 134.801172 
L 246.42342 136.371585 
L 247.353206 136.250011 
L 250.142563 136.394504 
L 251.072348 136.562996 
L 252.002134 136.33486 
L 252.93192 136.415627 
L 253.861705 134.081331 
L 254.791491 134.323843 
L 256.651063 134.303282 
L 257.580848 134.509957 
L 259.44042 134.436632 
L 260.370205 134.431325 
L 261.299991 136.398195 
L 262.229777 136.532737 
L 266.878705 136.573572 
L 267.808491 136.663091 
L 268.738277 135.870015 
L 269.668062 135.743059 
L 270.597848 136.093202 
L 271.527634 135.918568 
L 272.45742 135.914178 
L 273.387205 136.184506 
L 274.316991 136.046329 
L 275.246777 136.042473 
L 276.176562 136.528991 
L 277.106348 136.675196 
L 278.965919 136.582634 
L 279.895705 136.732446 
L 280.825491 136.677004 
L 281.755277 136.784322 
L 282.685062 136.670093 
L 283.614848 136.350263 
L 285.474419 136.191388 
L 286.404205 136.308675 
L 287.333991 136.238694 
L 288.263777 136.336602 
L 289.193562 136.20758 
L 290.123348 136.275754 
L 291.053134 135.424833 
L 291.982919 135.530592 
L 292.912705 135.524486 
L 293.842491 135.651 
L 297.561634 135.54422 
L 298.491419 133.874285 
L 299.421205 134.051374 
L 300.350991 133.869265 
L 301.280776 134.134823 
L 302.210562 133.908303 
L 303.140348 133.82219 
L 304.070134 134.038925 
L 304.999919 134.090787 
L 305.929705 134.517846 
L 307.789276 134.496606 
L 308.719062 134.709258 
L 309.648848 134.51622 
L 310.578633 134.59503 
L 311.508419 134.546542 
L 312.438205 134.620975 
L 313.367991 137.13361 
L 315.227562 137.280061 
L 316.157348 137.153474 
L 317.087133 137.372248 
L 318.946705 137.167124 
L 319.876491 137.113444 
L 320.806276 135.133304 
L 322.665848 135.308857 
L 323.595633 135.413107 
L 324.525419 135.287161 
L 325.455205 135.31195 
L 326.38499 135.595528 
L 327.314776 135.484127 
L 328.244562 133.803503 
L 331.033919 134.09702 
L 331.963705 133.824721 
L 333.823276 134.146854 
L 334.753062 133.907669 
L 335.682848 136.630188 
L 338.472205 136.570415 
L 339.40199 136.840082 
L 341.261562 136.797012 
L 342.191347 136.633237 
L 343.121133 137.720134 
L 344.980705 137.652062 
L 345.91049 137.754098 
L 349.629633 137.709328 
L 350.559419 136.309703 
L 351.489205 136.142896 
L 353.348776 136.280669 
L 355.208347 136.141461 
L 356.138133 136.34561 
L 357.067919 136.312137 
L 357.997704 134.219367 
L 358.92749 133.999188 
L 361.716847 134.065893 
L 362.646633 134.215766 
L 363.576419 134.029584 
L 364.506204 134.119285 
L 365.43599 132.917682 
L 366.365776 132.886908 
L 367.295562 133.213214 
L 369.155133 133.134029 
L 371.014704 133.167132 
L 371.94449 133.204216 
L 372.874276 133.616703 
L 373.804061 133.808176 
L 374.733847 133.707876 
L 375.663633 133.870721 
L 377.523204 133.64362 
L 378.45299 133.868794 
L 379.382776 133.71318 
L 380.312561 135.616635 
L 381.242347 135.800141 
L 382.172133 135.642047 
L 383.101918 135.619195 
L 384.96149 135.723391 
L 386.821061 135.564208 
L 387.750847 133.055141 
L 388.680633 133.272281 
L 389.610418 133.186615 
L 390.540204 133.307617 
L 391.46999 133.285429 
L 392.399776 133.10158 
L 394.259347 133.319746 
L 395.189133 134.270319 
L 398.908275 134.406661 
L 399.838061 134.474215 
L 400.767847 134.372737 
L 401.697633 134.538158 
L 402.627418 133.934692 
L 403.557204 133.841624 
L 405.416775 134.084766 
L 406.346561 133.890042 
L 407.276347 134.074731 
L 408.206133 134.028252 
L 409.135918 134.140086 
L 410.065704 133.257476 
L 411.925275 133.437538 
L 412.855061 133.33895 
L 417.50399 133.58448 
L 418.433775 133.707961 
L 420.293347 133.561719 
L 422.152918 133.554061 
L 423.082704 133.839319 
L 424.01249 133.541788 
L 424.942275 133.109144 
L 425.872061 133.004336 
L 426.801847 133.192557 
L 428.661418 133.07563 
L 430.520989 133.293362 
L 431.450775 133.264556 
L 431.450775 133.264556 
" clip-path="url(#p4c9425f6f8)" style="fill: none; stroke: #1f77b4; stroke-width: 1.5; stroke-linecap: square"/>
   </g>
   <g id="line2d_46">
    <path d="M 60.466279 58.514639 
L 61.396064 72.287798 
L 62.32585 81.672048 
L 63.255636 87.048968 
L 64.185422 91.428135 
L 66.044993 102.628553 
L 66.974779 106.438785 
L 67.904564 112.507143 
L 69.764136 122.105312 
L 70.693921 125.210489 
L 72.553493 128.251597 
L 73.483279 129.30937 
L 74.413064 128.86252 
L 75.34285 133.086028 
L 76.272636 134.35608 
L 78.132207 135.206458 
L 79.061993 135.592539 
L 79.991779 136.119885 
L 80.921564 136.285241 
L 81.85135 136.690133 
L 82.781136 139.115366 
L 83.710921 139.032169 
L 85.570493 139.592301 
L 86.500278 140.101081 
L 87.430064 140.293653 
L 88.35985 140.131691 
L 89.289636 140.486386 
L 90.219421 141.551415 
L 91.149207 141.947492 
L 92.078993 142.024653 
L 93.008778 141.576944 
L 93.938564 141.906949 
L 94.86835 141.910483 
L 96.727921 141.596669 
L 97.657707 143.069506 
L 99.517278 142.519592 
L 100.447064 142.735459 
L 101.37685 142.698314 
L 102.306635 142.36633 
L 103.236421 142.535013 
L 104.166207 142.474702 
L 105.095993 143.473199 
L 106.955564 143.121872 
L 107.88535 143.259434 
L 108.815135 142.901202 
L 109.744921 143.126517 
L 111.604493 142.969049 
L 112.534278 143.183311 
L 113.464064 143.225103 
L 114.39385 143.08811 
L 115.323635 142.593468 
L 116.253421 142.86794 
L 117.183207 142.761065 
L 119.042778 142.875137 
L 119.972564 142.086852 
L 120.90235 142.658575 
L 121.832135 141.255617 
L 122.761921 142.361647 
L 123.691707 142.251709 
L 124.621492 142.365403 
L 126.481064 142.290088 
L 127.41085 144.709091 
L 128.340635 144.214801 
L 129.270421 143.856116 
L 131.129992 143.47724 
L 132.059778 143.293608 
L 133.919349 143.265767 
L 134.849135 144.181645 
L 135.778921 143.649381 
L 139.498064 143.334625 
L 140.427849 143.417568 
L 141.357635 143.283163 
L 142.287421 144.574391 
L 143.217207 144.500566 
L 144.146992 144.243768 
L 145.076778 144.117444 
L 146.006564 144.155886 
L 146.936349 143.978023 
L 148.795921 143.928847 
L 149.725706 144.444146 
L 151.585278 144.554392 
L 156.234206 144.439307 
L 157.163992 144.308026 
L 159.953349 144.179274 
L 163.672492 143.861456 
L 164.602278 144.399958 
L 166.461849 144.419051 
L 185.987349 144.360815 
L 186.917135 143.956205 
L 193.425635 143.930466 
L 196.214992 143.881127 
L 200.86392 143.873686 
L 201.793706 143.525008 
L 215.740492 143.671354 
L 216.670277 143.314364 
L 227.827706 143.205426 
L 234.336206 143.116585 
L 238.055348 143.120903 
L 238.985134 142.855903 
L 245.493634 142.839826 
L 246.42342 142.526993 
L 259.44042 142.534977 
L 260.370205 142.529951 
L 261.299991 142.798405 
L 267.808491 142.816488 
L 268.738277 142.441373 
L 275.246777 142.440898 
L 276.176562 142.604344 
L 282.685062 142.608464 
L 283.614848 142.168929 
L 297.561634 142.176307 
L 298.491419 141.894928 
L 304.999919 141.867753 
L 305.929705 141.534759 
L 319.876491 141.554927 
L 320.806276 141.714932 
L 327.314776 141.492749 
L 328.244562 141.214618 
L 331.033919 141.31278 
L 339.40199 141.252203 
L 342.191347 141.241468 
L 343.121133 141.468447 
L 349.629633 141.505606 
L 350.559419 141.364668 
L 357.067919 141.345359 
L 357.997704 141.184664 
L 364.506204 141.181405 
L 365.43599 140.777642 
L 372.874276 140.663812 
L 375.663633 140.732457 
L 379.382776 140.72132 
L 380.312561 140.609752 
L 394.259347 140.73011 
L 395.189133 140.521276 
L 416.574204 140.239674 
L 417.50399 139.991781 
L 424.01249 139.95601 
L 424.942275 140.1024 
L 431.450775 140.109952 
L 431.450775 140.109952 
" clip-path="url(#p4c9425f6f8)" style="fill: none; stroke: #ff7f0e; stroke-width: 1.5; stroke-linecap: square"/>
   </g>
   <g id="patch_3">
    <path d="M 41.917054 150.32 
L 41.917054 26.88 
" style="fill: none; stroke: #000000; stroke-width: 0.8; stroke-linejoin: miter; stroke-linecap: square"/>
   </g>
   <g id="patch_4">
    <path d="M 450 150.32 
L 450 26.88 
" style="fill: none; stroke: #000000; stroke-width: 0.8; stroke-linejoin: miter; stroke-linecap: square"/>
   </g>
   <g id="patch_5">
    <path d="M 41.917054 150.32 
L 450 150.32 
" style="fill: none; stroke: #000000; stroke-width: 0.8; stroke-linejoin: miter; stroke-linecap: square"/>
   </g>
   <g id="patch_6">
    <path d="M 41.917054 26.88 
L 450 26.88 
" style="fill: none; stroke: #000000; stroke-width: 0.8; stroke-linejoin: miter; stroke-linecap: square"/>
   </g>
   <g id="text_14">
    <!-- model loss -->
    <g transform="translate(213.778839 20.88)scale(0.12 -0.12)">
     <defs>
      <path id="DejaVuSans-6d" d="M 3328 2828 
Q 3544 3216 3844 3400 
Q 4144 3584 4550 3584 
Q 5097 3584 5394 3201 
Q 5691 2819 5691 2113 
L 5691 0 
L 5113 0 
L 5113 2094 
Q 5113 2597 4934 2840 
Q 4756 3084 4391 3084 
Q 3944 3084 3684 2787 
Q 3425 2491 3425 1978 
L 3425 0 
L 2847 0 
L 2847 2094 
Q 2847 2600 2669 2842 
Q 2491 3084 2119 3084 
Q 1678 3084 1418 2786 
Q 1159 2488 1159 1978 
L 1159 0 
L 581 0 
L 581 3500 
L 1159 3500 
L 1159 2956 
Q 1356 3278 1631 3431 
Q 1906 3584 2284 3584 
Q 2666 3584 2933 3390 
Q 3200 3197 3328 2828 
z
" transform="scale(0.015625)"/>
      <path id="DejaVuSans-6f" d="M 1959 3097 
Q 1497 3097 1228 2736 
Q 959 2375 959 1747 
Q 959 1119 1226 758 
Q 1494 397 1959 397 
Q 2419 397 2687 759 
Q 2956 1122 2956 1747 
Q 2956 2369 2687 2733 
Q 2419 3097 1959 3097 
z
M 1959 3584 
Q 2709 3584 3137 3096 
Q 3566 2609 3566 1747 
Q 3566 888 3137 398 
Q 2709 -91 1959 -91 
Q 1206 -91 779 398 
Q 353 888 353 1747 
Q 353 2609 779 3096 
Q 1206 3584 1959 3584 
z
" transform="scale(0.015625)"/>
      <path id="DejaVuSans-64" d="M 2906 2969 
L 2906 4863 
L 3481 4863 
L 3481 0 
L 2906 0 
L 2906 525 
Q 2725 213 2448 61 
Q 2172 -91 1784 -91 
Q 1150 -91 751 415 
Q 353 922 353 1747 
Q 353 2572 751 3078 
Q 1150 3584 1784 3584 
Q 2172 3584 2448 3432 
Q 2725 3281 2906 2969 
z
M 947 1747 
Q 947 1113 1208 752 
Q 1469 391 1925 391 
Q 2381 391 2643 752 
Q 2906 1113 2906 1747 
Q 2906 2381 2643 2742 
Q 2381 3103 1925 3103 
Q 1469 3103 1208 2742 
Q 947 2381 947 1747 
z
" transform="scale(0.015625)"/>
      <path id="DejaVuSans-65" d="M 3597 1894 
L 3597 1613 
L 953 1613 
Q 991 1019 1311 708 
Q 1631 397 2203 397 
Q 2534 397 2845 478 
Q 3156 559 3463 722 
L 3463 178 
Q 3153 47 2828 -22 
Q 2503 -91 2169 -91 
Q 1331 -91 842 396 
Q 353 884 353 1716 
Q 353 2575 817 3079 
Q 1281 3584 2069 3584 
Q 2775 3584 3186 3129 
Q 3597 2675 3597 1894 
z
M 3022 2063 
Q 3016 2534 2758 2815 
Q 2500 3097 2075 3097 
Q 1594 3097 1305 2825 
Q 1016 2553 972 2059 
L 3022 2063 
z
" transform="scale(0.015625)"/>
      <path id="DejaVuSans-6c" d="M 603 4863 
L 1178 4863 
L 1178 0 
L 603 0 
L 603 4863 
z
" transform="scale(0.015625)"/>
      <path id="DejaVuSans-20" transform="scale(0.015625)"/>
      <path id="DejaVuSans-73" d="M 2834 3397 
L 2834 2853 
Q 2591 2978 2328 3040 
Q 2066 3103 1784 3103 
Q 1356 3103 1142 2972 
Q 928 2841 928 2578 
Q 928 2378 1081 2264 
Q 1234 2150 1697 2047 
L 1894 2003 
Q 2506 1872 2764 1633 
Q 3022 1394 3022 966 
Q 3022 478 2636 193 
Q 2250 -91 1575 -91 
Q 1294 -91 989 -36 
Q 684 19 347 128 
L 347 722 
Q 666 556 975 473 
Q 1284 391 1588 391 
Q 1994 391 2212 530 
Q 2431 669 2431 922 
Q 2431 1156 2273 1281 
Q 2116 1406 1581 1522 
L 1381 1569 
Q 847 1681 609 1914 
Q 372 2147 372 2553 
Q 372 3047 722 3315 
Q 1072 3584 1716 3584 
Q 2034 3584 2315 3537 
Q 2597 3491 2834 3397 
z
" transform="scale(0.015625)"/>
     </defs>
     <use xlink:href="#DejaVuSans-6d"/>
     <use xlink:href="#DejaVuSans-6f" x="97.412109"/>
     <use xlink:href="#DejaVuSans-64" x="158.59375"/>
     <use xlink:href="#DejaVuSans-65" x="222.070312"/>
     <use xlink:href="#DejaVuSans-6c" x="283.59375"/>
     <use xlink:href="#DejaVuSans-20" x="311.376953"/>
     <use xlink:href="#DejaVuSans-6c" x="343.164062"/>
     <use xlink:href="#DejaVuSans-6f" x="370.947266"/>
     <use xlink:href="#DejaVuSans-73" x="432.128906"/>
     <use xlink:href="#DejaVuSans-73" x="484.228516"/>
    </g>
   </g>
   <g id="legend_1">
    <g id="patch_7">
     <path d="M 365.23125 64.23625 
L 443 64.23625 
Q 445 64.23625 445 62.23625 
L 445 33.88 
Q 445 31.88 443 31.88 
L 365.23125 31.88 
Q 363.23125 31.88 363.23125 33.88 
L 363.23125 62.23625 
Q 363.23125 64.23625 365.23125 64.23625 
z
" style="fill: #ffffff; opacity: 0.8; stroke: #cccccc; stroke-linejoin: miter"/>
    </g>
    <g id="line2d_47">
     <path d="M 367.23125 39.978437 
L 377.23125 39.978437 
L 387.23125 39.978437 
" style="fill: none; stroke: #1f77b4; stroke-width: 1.5; stroke-linecap: square"/>
    </g>
    <g id="text_15">
     <!-- train loss -->
     <g transform="translate(395.23125 43.478437)scale(0.1 -0.1)">
      <defs>
       <path id="DejaVuSans-74" d="M 1172 4494 
L 1172 3500 
L 2356 3500 
L 2356 3053 
L 1172 3053 
L 1172 1153 
Q 1172 725 1289 603 
Q 1406 481 1766 481 
L 2356 481 
L 2356 0 
L 1766 0 
Q 1100 0 847 248 
Q 594 497 594 1153 
L 594 3053 
L 172 3053 
L 172 3500 
L 594 3500 
L 594 4494 
L 1172 4494 
z
" transform="scale(0.015625)"/>
       <path id="DejaVuSans-72" d="M 2631 2963 
Q 2534 3019 2420 3045 
Q 2306 3072 2169 3072 
Q 1681 3072 1420 2755 
Q 1159 2438 1159 1844 
L 1159 0 
L 581 0 
L 581 3500 
L 1159 3500 
L 1159 2956 
Q 1341 3275 1631 3429 
Q 1922 3584 2338 3584 
Q 2397 3584 2469 3576 
Q 2541 3569 2628 3553 
L 2631 2963 
z
" transform="scale(0.015625)"/>
       <path id="DejaVuSans-61" d="M 2194 1759 
Q 1497 1759 1228 1600 
Q 959 1441 959 1056 
Q 959 750 1161 570 
Q 1363 391 1709 391 
Q 2188 391 2477 730 
Q 2766 1069 2766 1631 
L 2766 1759 
L 2194 1759 
z
M 3341 1997 
L 3341 0 
L 2766 0 
L 2766 531 
Q 2569 213 2275 61 
Q 1981 -91 1556 -91 
Q 1019 -91 701 211 
Q 384 513 384 1019 
Q 384 1609 779 1909 
Q 1175 2209 1959 2209 
L 2766 2209 
L 2766 2266 
Q 2766 2663 2505 2880 
Q 2244 3097 1772 3097 
Q 1472 3097 1187 3025 
Q 903 2953 641 2809 
L 641 3341 
Q 956 3463 1253 3523 
Q 1550 3584 1831 3584 
Q 2591 3584 2966 3190 
Q 3341 2797 3341 1997 
z
" transform="scale(0.015625)"/>
       <path id="DejaVuSans-69" d="M 603 3500 
L 1178 3500 
L 1178 0 
L 603 0 
L 603 3500 
z
M 603 4863 
L 1178 4863 
L 1178 4134 
L 603 4134 
L 603 4863 
z
" transform="scale(0.015625)"/>
       <path id="DejaVuSans-6e" d="M 3513 2113 
L 3513 0 
L 2938 0 
L 2938 2094 
Q 2938 2591 2744 2837 
Q 2550 3084 2163 3084 
Q 1697 3084 1428 2787 
Q 1159 2491 1159 1978 
L 1159 0 
L 581 0 
L 581 3500 
L 1159 3500 
L 1159 2956 
Q 1366 3272 1645 3428 
Q 1925 3584 2291 3584 
Q 2894 3584 3203 3211 
Q 3513 2838 3513 2113 
z
" transform="scale(0.015625)"/>
      </defs>
      <use xlink:href="#DejaVuSans-74"/>
      <use xlink:href="#DejaVuSans-72" x="39.208984"/>
      <use xlink:href="#DejaVuSans-61" x="80.322266"/>
      <use xlink:href="#DejaVuSans-69" x="141.601562"/>
      <use xlink:href="#DejaVuSans-6e" x="169.384766"/>
      <use xlink:href="#DejaVuSans-20" x="232.763672"/>
      <use xlink:href="#DejaVuSans-6c" x="264.550781"/>
      <use xlink:href="#DejaVuSans-6f" x="292.333984"/>
      <use xlink:href="#DejaVuSans-73" x="353.515625"/>
      <use xlink:href="#DejaVuSans-73" x="405.615234"/>
     </g>
    </g>
    <g id="line2d_48">
     <path d="M 367.23125 54.656563 
L 377.23125 54.656563 
L 387.23125 54.656563 
" style="fill: none; stroke: #ff7f0e; stroke-width: 1.5; stroke-linecap: square"/>
    </g>
    <g id="text_16">
     <!-- val loss -->
     <g transform="translate(395.23125 58.156563)scale(0.1 -0.1)">
      <defs>
       <path id="DejaVuSans-76" d="M 191 3500 
L 800 3500 
L 1894 563 
L 2988 3500 
L 3597 3500 
L 2284 0 
L 1503 0 
L 191 3500 
z
" transform="scale(0.015625)"/>
      </defs>
      <use xlink:href="#DejaVuSans-76"/>
      <use xlink:href="#DejaVuSans-61" x="59.179688"/>
      <use xlink:href="#DejaVuSans-6c" x="120.458984"/>
      <use xlink:href="#DejaVuSans-20" x="148.242188"/>
      <use xlink:href="#DejaVuSans-6c" x="180.029297"/>
      <use xlink:href="#DejaVuSans-6f" x="207.8125"/>
      <use xlink:href="#DejaVuSans-73" x="268.994141"/>
      <use xlink:href="#DejaVuSans-73" x="321.09375"/>
     </g>
    </g>
   </g>
  </g>
  <g id="axes_2">
   <g id="patch_8">
    <path d="M 41.917054 317.72 
L 450 317.72 
L 450 194.28 
L 41.917054 194.28 
z
" style="fill: #ffffff"/>
   </g>
   <g id="matplotlib.axis_3">
    <g id="xtick_10">
     <g id="line2d_49">
      <g>
       <use xlink:href="#m18a287ccf1" x="60.466279" y="317.72" style="stroke: #000000; stroke-width: 0.8"/>
      </g>
     </g>
     <g id="text_17">
      <!-- 0 -->
      <g transform="translate(57.285029 332.318438)scale(0.1 -0.1)">
       <use xlink:href="#DejaVuSans-30"/>
      </g>
     </g>
    </g>
    <g id="xtick_11">
     <g id="line2d_50">
      <g>
       <use xlink:href="#m18a287ccf1" x="134.811869" y="317.72" style="stroke: #000000; stroke-width: 0.8"/>
      </g>
     </g>
     <g id="text_18">
      <!-- 100 -->
      <g transform="translate(125.268119 332.318438)scale(0.1 -0.1)">
       <use xlink:href="#DejaVuSans-31"/>
       <use xlink:href="#DejaVuSans-30" x="63.623047"/>
       <use xlink:href="#DejaVuSans-30" x="127.246094"/>
      </g>
     </g>
    </g>
    <g id="xtick_12">
     <g id="line2d_51">
      <g>
       <use xlink:href="#m18a287ccf1" x="209.15746" y="317.72" style="stroke: #000000; stroke-width: 0.8"/>
      </g>
     </g>
     <g id="text_19">
      <!-- 200 -->
      <g transform="translate(199.61371 332.318438)scale(0.1 -0.1)">
       <use xlink:href="#DejaVuSans-32"/>
       <use xlink:href="#DejaVuSans-30" x="63.623047"/>
       <use xlink:href="#DejaVuSans-30" x="127.246094"/>
      </g>
     </g>
    </g>
    <g id="xtick_13">
     <g id="line2d_52">
      <g>
       <use xlink:href="#m18a287ccf1" x="283.50305" y="317.72" style="stroke: #000000; stroke-width: 0.8"/>
      </g>
     </g>
     <g id="text_20">
      <!-- 300 -->
      <g transform="translate(273.9593 332.318438)scale(0.1 -0.1)">
       <use xlink:href="#DejaVuSans-33"/>
       <use xlink:href="#DejaVuSans-30" x="63.623047"/>
       <use xlink:href="#DejaVuSans-30" x="127.246094"/>
      </g>
     </g>
    </g>
    <g id="xtick_14">
     <g id="line2d_53">
      <g>
       <use xlink:href="#m18a287ccf1" x="357.848641" y="317.72" style="stroke: #000000; stroke-width: 0.8"/>
      </g>
     </g>
     <g id="text_21">
      <!-- 400 -->
      <g transform="translate(348.304891 332.318438)scale(0.1 -0.1)">
       <use xlink:href="#DejaVuSans-34"/>
       <use xlink:href="#DejaVuSans-30" x="63.623047"/>
       <use xlink:href="#DejaVuSans-30" x="127.246094"/>
      </g>
     </g>
    </g>
    <g id="xtick_15">
     <g id="line2d_54">
      <g>
       <use xlink:href="#m18a287ccf1" x="432.194231" y="317.72" style="stroke: #000000; stroke-width: 0.8"/>
      </g>
     </g>
     <g id="text_22">
      <!-- 500 -->
      <g transform="translate(422.650481 332.318438)scale(0.1 -0.1)">
       <use xlink:href="#DejaVuSans-35"/>
       <use xlink:href="#DejaVuSans-30" x="63.623047"/>
       <use xlink:href="#DejaVuSans-30" x="127.246094"/>
      </g>
     </g>
    </g>
   </g>
   <g id="matplotlib.axis_4">
    <g id="ytick_36">
     <g id="line2d_55">
      <g>
       <use xlink:href="#mb41c6824fe" x="41.917054" y="303.773107" style="stroke: #000000; stroke-width: 0.8"/>
      </g>
     </g>
     <g id="text_23">
      <!-- $\mathdefault{10^{-4}}$ -->
      <g transform="translate(11.417054 307.572326)scale(0.1 -0.1)">
       <use xlink:href="#DejaVuSans-31" transform="translate(0 0.684375)"/>
       <use xlink:href="#DejaVuSans-30" transform="translate(63.623047 0.684375)"/>
       <use xlink:href="#DejaVuSans-2212" transform="translate(128.203125 38.965625)scale(0.7)"/>
       <use xlink:href="#DejaVuSans-34" transform="translate(186.855469 38.965625)scale(0.7)"/>
      </g>
     </g>
    </g>
    <g id="ytick_37">
     <g id="line2d_56">
      <g>
       <use xlink:href="#mb41c6824fe" x="41.917054" y="276.1114" style="stroke: #000000; stroke-width: 0.8"/>
      </g>
     </g>
     <g id="text_24">
      <!-- $\mathdefault{10^{-3}}$ -->
      <g transform="translate(11.417054 279.910619)scale(0.1 -0.1)">
       <use xlink:href="#DejaVuSans-31" transform="translate(0 0.765625)"/>
       <use xlink:href="#DejaVuSans-30" transform="translate(63.623047 0.765625)"/>
       <use xlink:href="#DejaVuSans-2212" transform="translate(128.203125 39.046875)scale(0.7)"/>
       <use xlink:href="#DejaVuSans-33" transform="translate(186.855469 39.046875)scale(0.7)"/>
      </g>
     </g>
    </g>
    <g id="ytick_38">
     <g id="line2d_57">
      <g>
       <use xlink:href="#mb41c6824fe" x="41.917054" y="248.449693" style="stroke: #000000; stroke-width: 0.8"/>
      </g>
     </g>
     <g id="text_25">
      <!-- $\mathdefault{10^{-2}}$ -->
      <g transform="translate(11.417054 252.248911)scale(0.1 -0.1)">
       <use xlink:href="#DejaVuSans-31" transform="translate(0 0.765625)"/>
       <use xlink:href="#DejaVuSans-30" transform="translate(63.623047 0.765625)"/>
       <use xlink:href="#DejaVuSans-2212" transform="translate(128.203125 39.046875)scale(0.7)"/>
       <use xlink:href="#DejaVuSans-32" transform="translate(186.855469 39.046875)scale(0.7)"/>
      </g>
     </g>
    </g>
    <g id="ytick_39">
     <g id="line2d_58">
      <g>
       <use xlink:href="#mb41c6824fe" x="41.917054" y="220.787985" style="stroke: #000000; stroke-width: 0.8"/>
      </g>
     </g>
     <g id="text_26">
      <!-- $\mathdefault{10^{-1}}$ -->
      <g transform="translate(11.417054 224.587204)scale(0.1 -0.1)">
       <use xlink:href="#DejaVuSans-31" transform="translate(0 0.684375)"/>
       <use xlink:href="#DejaVuSans-30" transform="translate(63.623047 0.684375)"/>
       <use xlink:href="#DejaVuSans-2212" transform="translate(128.203125 38.965625)scale(0.7)"/>
       <use xlink:href="#DejaVuSans-31" transform="translate(186.855469 38.965625)scale(0.7)"/>
      </g>
     </g>
    </g>
    <g id="ytick_40">
     <g id="line2d_59">
      <g>
       <use xlink:href="#m4c569d0ac0" x="41.917054" y="314.780807" style="stroke: #000000; stroke-width: 0.6"/>
      </g>
     </g>
    </g>
    <g id="ytick_41">
     <g id="line2d_60">
      <g>
       <use xlink:href="#m4c569d0ac0" x="41.917054" y="312.100111" style="stroke: #000000; stroke-width: 0.6"/>
      </g>
     </g>
    </g>
    <g id="ytick_42">
     <g id="line2d_61">
      <g>
       <use xlink:href="#m4c569d0ac0" x="41.917054" y="309.909822" style="stroke: #000000; stroke-width: 0.6"/>
      </g>
     </g>
    </g>
    <g id="ytick_43">
     <g id="line2d_62">
      <g>
       <use xlink:href="#m4c569d0ac0" x="41.917054" y="308.05796" style="stroke: #000000; stroke-width: 0.6"/>
      </g>
     </g>
    </g>
    <g id="ytick_44">
     <g id="line2d_63">
      <g>
       <use xlink:href="#m4c569d0ac0" x="41.917054" y="306.453804" style="stroke: #000000; stroke-width: 0.6"/>
      </g>
     </g>
    </g>
    <g id="ytick_45">
     <g id="line2d_64">
      <g>
       <use xlink:href="#m4c569d0ac0" x="41.917054" y="305.038838" style="stroke: #000000; stroke-width: 0.6"/>
      </g>
     </g>
    </g>
    <g id="ytick_46">
     <g id="line2d_65">
      <g>
       <use xlink:href="#m4c569d0ac0" x="41.917054" y="295.446104" style="stroke: #000000; stroke-width: 0.6"/>
      </g>
     </g>
    </g>
    <g id="ytick_47">
     <g id="line2d_66">
      <g>
       <use xlink:href="#m4c569d0ac0" x="41.917054" y="290.575119" style="stroke: #000000; stroke-width: 0.6"/>
      </g>
     </g>
    </g>
    <g id="ytick_48">
     <g id="line2d_67">
      <g>
       <use xlink:href="#m4c569d0ac0" x="41.917054" y="287.1191" style="stroke: #000000; stroke-width: 0.6"/>
      </g>
     </g>
    </g>
    <g id="ytick_49">
     <g id="line2d_68">
      <g>
       <use xlink:href="#m4c569d0ac0" x="41.917054" y="284.438404" style="stroke: #000000; stroke-width: 0.6"/>
      </g>
     </g>
    </g>
    <g id="ytick_50">
     <g id="line2d_69">
      <g>
       <use xlink:href="#m4c569d0ac0" x="41.917054" y="282.248115" style="stroke: #000000; stroke-width: 0.6"/>
      </g>
     </g>
    </g>
    <g id="ytick_51">
     <g id="line2d_70">
      <g>
       <use xlink:href="#m4c569d0ac0" x="41.917054" y="280.396253" style="stroke: #000000; stroke-width: 0.6"/>
      </g>
     </g>
    </g>
    <g id="ytick_52">
     <g id="line2d_71">
      <g>
       <use xlink:href="#m4c569d0ac0" x="41.917054" y="278.792096" style="stroke: #000000; stroke-width: 0.6"/>
      </g>
     </g>
    </g>
    <g id="ytick_53">
     <g id="line2d_72">
      <g>
       <use xlink:href="#m4c569d0ac0" x="41.917054" y="277.37713" style="stroke: #000000; stroke-width: 0.6"/>
      </g>
     </g>
    </g>
    <g id="ytick_54">
     <g id="line2d_73">
      <g>
       <use xlink:href="#m4c569d0ac0" x="41.917054" y="267.784396" style="stroke: #000000; stroke-width: 0.6"/>
      </g>
     </g>
    </g>
    <g id="ytick_55">
     <g id="line2d_74">
      <g>
       <use xlink:href="#m4c569d0ac0" x="41.917054" y="262.913411" style="stroke: #000000; stroke-width: 0.6"/>
      </g>
     </g>
    </g>
    <g id="ytick_56">
     <g id="line2d_75">
      <g>
       <use xlink:href="#m4c569d0ac0" x="41.917054" y="259.457393" style="stroke: #000000; stroke-width: 0.6"/>
      </g>
     </g>
    </g>
    <g id="ytick_57">
     <g id="line2d_76">
      <g>
       <use xlink:href="#m4c569d0ac0" x="41.917054" y="256.776696" style="stroke: #000000; stroke-width: 0.6"/>
      </g>
     </g>
    </g>
    <g id="ytick_58">
     <g id="line2d_77">
      <g>
       <use xlink:href="#m4c569d0ac0" x="41.917054" y="254.586408" style="stroke: #000000; stroke-width: 0.6"/>
      </g>
     </g>
    </g>
    <g id="ytick_59">
     <g id="line2d_78">
      <g>
       <use xlink:href="#m4c569d0ac0" x="41.917054" y="252.734545" style="stroke: #000000; stroke-width: 0.6"/>
      </g>
     </g>
    </g>
    <g id="ytick_60">
     <g id="line2d_79">
      <g>
       <use xlink:href="#m4c569d0ac0" x="41.917054" y="251.130389" style="stroke: #000000; stroke-width: 0.6"/>
      </g>
     </g>
    </g>
    <g id="ytick_61">
     <g id="line2d_80">
      <g>
       <use xlink:href="#m4c569d0ac0" x="41.917054" y="249.715423" style="stroke: #000000; stroke-width: 0.6"/>
      </g>
     </g>
    </g>
    <g id="ytick_62">
     <g id="line2d_81">
      <g>
       <use xlink:href="#m4c569d0ac0" x="41.917054" y="240.122689" style="stroke: #000000; stroke-width: 0.6"/>
      </g>
     </g>
    </g>
    <g id="ytick_63">
     <g id="line2d_82">
      <g>
       <use xlink:href="#m4c569d0ac0" x="41.917054" y="235.251704" style="stroke: #000000; stroke-width: 0.6"/>
      </g>
     </g>
    </g>
    <g id="ytick_64">
     <g id="line2d_83">
      <g>
       <use xlink:href="#m4c569d0ac0" x="41.917054" y="231.795685" style="stroke: #000000; stroke-width: 0.6"/>
      </g>
     </g>
    </g>
    <g id="ytick_65">
     <g id="line2d_84">
      <g>
       <use xlink:href="#m4c569d0ac0" x="41.917054" y="229.114989" style="stroke: #000000; stroke-width: 0.6"/>
      </g>
     </g>
    </g>
    <g id="ytick_66">
     <g id="line2d_85">
      <g>
       <use xlink:href="#m4c569d0ac0" x="41.917054" y="226.9247" style="stroke: #000000; stroke-width: 0.6"/>
      </g>
     </g>
    </g>
    <g id="ytick_67">
     <g id="line2d_86">
      <g>
       <use xlink:href="#m4c569d0ac0" x="41.917054" y="225.072838" style="stroke: #000000; stroke-width: 0.6"/>
      </g>
     </g>
    </g>
    <g id="ytick_68">
     <g id="line2d_87">
      <g>
       <use xlink:href="#m4c569d0ac0" x="41.917054" y="223.468682" style="stroke: #000000; stroke-width: 0.6"/>
      </g>
     </g>
    </g>
    <g id="ytick_69">
     <g id="line2d_88">
      <g>
       <use xlink:href="#m4c569d0ac0" x="41.917054" y="222.053716" style="stroke: #000000; stroke-width: 0.6"/>
      </g>
     </g>
    </g>
    <g id="ytick_70">
     <g id="line2d_89">
      <g>
       <use xlink:href="#m4c569d0ac0" x="41.917054" y="212.460982" style="stroke: #000000; stroke-width: 0.6"/>
      </g>
     </g>
    </g>
    <g id="ytick_71">
     <g id="line2d_90">
      <g>
       <use xlink:href="#m4c569d0ac0" x="41.917054" y="207.589997" style="stroke: #000000; stroke-width: 0.6"/>
      </g>
     </g>
    </g>
    <g id="ytick_72">
     <g id="line2d_91">
      <g>
       <use xlink:href="#m4c569d0ac0" x="41.917054" y="204.133978" style="stroke: #000000; stroke-width: 0.6"/>
      </g>
     </g>
    </g>
    <g id="ytick_73">
     <g id="line2d_92">
      <g>
       <use xlink:href="#m4c569d0ac0" x="41.917054" y="201.453282" style="stroke: #000000; stroke-width: 0.6"/>
      </g>
     </g>
    </g>
    <g id="ytick_74">
     <g id="line2d_93">
      <g>
       <use xlink:href="#m4c569d0ac0" x="41.917054" y="199.262993" style="stroke: #000000; stroke-width: 0.6"/>
      </g>
     </g>
    </g>
    <g id="ytick_75">
     <g id="line2d_94">
      <g>
       <use xlink:href="#m4c569d0ac0" x="41.917054" y="197.411131" style="stroke: #000000; stroke-width: 0.6"/>
      </g>
     </g>
    </g>
    <g id="ytick_76">
     <g id="line2d_95">
      <g>
       <use xlink:href="#m4c569d0ac0" x="41.917054" y="195.806974" style="stroke: #000000; stroke-width: 0.6"/>
      </g>
     </g>
    </g>
    <g id="ytick_77">
     <g id="line2d_96">
      <g>
       <use xlink:href="#m4c569d0ac0" x="41.917054" y="194.392008" style="stroke: #000000; stroke-width: 0.6"/>
      </g>
     </g>
    </g>
   </g>
   <g id="line2d_97">
    <path d="M 60.466279 199.890909 
L 61.209735 224.482055 
L 61.953191 233.446487 
L 62.696646 245.012201 
L 63.440102 252.482469 
L 64.183558 253.148078 
L 65.67047 253.926832 
L 67.157382 254.70861 
L 67.900838 246.463145 
L 68.644294 258.808266 
L 69.38775 262.855565 
L 70.131205 264.140679 
L 70.874661 264.802585 
L 72.361573 265.469781 
L 73.105029 265.527178 
L 74.591941 265.835226 
L 75.335397 269.347742 
L 77.565765 269.865684 
L 79.052676 269.917724 
L 79.796132 270.249315 
L 80.539588 270.238034 
L 81.283044 270.092513 
L 82.0265 270.360082 
L 82.769956 274.366782 
L 85.000324 274.94738 
L 85.743779 275.096859 
L 86.487235 275.418074 
L 87.230691 275.545128 
L 88.717603 275.516689 
L 89.461059 276.158369 
L 90.204515 277.834142 
L 90.947971 278.047087 
L 91.691427 278.507999 
L 92.434883 278.177497 
L 93.178339 279.094018 
L 93.921794 279.630007 
L 94.66525 279.790558 
L 96.895618 280.787267 
L 97.639074 280.793588 
L 98.38253 281.254316 
L 99.125986 282.246309 
L 99.869442 282.554252 
L 100.612898 281.65188 
L 101.356353 282.47804 
L 102.843265 283.536426 
L 103.586721 283.098212 
L 105.073633 284.958225 
L 105.817089 284.449777 
L 106.560545 285.703506 
L 107.304001 285.335832 
L 108.790913 286.112298 
L 109.534368 285.946872 
L 110.277824 286.392856 
L 111.02128 286.073672 
L 111.764736 286.270672 
L 112.508192 288.385163 
L 113.251648 288.523616 
L 113.995104 288.360411 
L 114.73856 289.021302 
L 115.482016 288.842422 
L 116.968927 289.442581 
L 119.199295 289.549314 
L 119.942751 288.181304 
L 121.429663 289.058423 
L 122.173119 288.814109 
L 123.660031 289.805653 
L 124.403487 288.795633 
L 125.146942 289.411364 
L 125.890398 289.454856 
L 126.633854 290.125533 
L 128.864222 291.517993 
L 129.607678 291.229657 
L 131.09459 291.988248 
L 131.838046 291.496593 
L 132.581501 291.904669 
L 133.324957 292.172658 
L 134.068413 292.158771 
L 134.811869 291.586358 
L 136.298781 292.335082 
L 137.042237 292.404165 
L 137.785693 292.24169 
L 139.272605 292.712997 
L 140.016061 291.482204 
L 140.759516 292.649637 
L 141.502972 293.029721 
L 142.246428 294.004233 
L 143.73334 295.0857 
L 144.476796 294.750384 
L 145.220252 295.122469 
L 145.963708 294.781309 
L 146.707164 295.192818 
L 147.45062 295.364434 
L 148.194075 294.664693 
L 148.937531 295.008425 
L 149.680987 295.606055 
L 151.911355 296.360119 
L 152.654811 295.763586 
L 153.398267 296.420049 
L 154.141723 295.83517 
L 154.885179 296.103184 
L 155.628635 295.796826 
L 156.37209 296.265019 
L 157.115546 295.474514 
L 157.859002 295.224495 
L 159.345914 295.687178 
L 160.08937 296.409651 
L 160.832826 296.050189 
L 163.063194 296.632978 
L 163.806649 296.146504 
L 164.550105 296.022737 
L 165.293561 297.335513 
L 166.037017 296.454769 
L 166.780473 297.480493 
L 167.523929 297.442324 
L 168.267385 296.918186 
L 169.010841 297.336885 
L 169.754297 296.600246 
L 171.241209 297.473022 
L 171.984664 297.598268 
L 172.72812 297.536005 
L 173.471576 298.115609 
L 174.215032 297.741681 
L 174.958488 298.485664 
L 175.701944 298.512834 
L 176.4454 297.768964 
L 177.188856 298.723694 
L 178.675768 299.11996 
L 179.419223 298.407961 
L 180.162679 298.158011 
L 180.906135 299.709218 
L 181.649591 298.786516 
L 183.879959 299.695579 
L 184.623415 299.797439 
L 185.366871 299.011555 
L 186.110327 299.815381 
L 186.853783 298.337496 
L 188.340694 299.078763 
L 189.08415 298.53211 
L 189.827606 299.009873 
L 191.314518 299.774142 
L 192.057974 298.957383 
L 192.80143 299.399638 
L 193.544886 299.005225 
L 194.288342 299.009622 
L 195.031797 300.024994 
L 195.775253 299.905983 
L 196.518709 299.411281 
L 197.262165 300.779671 
L 198.749077 299.787026 
L 199.492533 300.464006 
L 200.235989 299.984698 
L 200.979445 299.725452 
L 201.722901 300.302068 
L 202.466357 300.685009 
L 203.209812 300.204238 
L 203.953268 299.437556 
L 205.44018 300.2566 
L 206.183636 299.901751 
L 206.927092 299.942652 
L 207.670548 300.64225 
L 208.414004 300.361391 
L 209.15746 300.228798 
L 209.900916 301.394133 
L 210.644371 300.043966 
L 211.387827 301.429975 
L 212.131283 301.555045 
L 212.874739 302.34275 
L 213.618195 301.031302 
L 214.361651 300.594376 
L 215.105107 301.629987 
L 215.848563 302.240633 
L 217.335475 299.328973 
L 218.078931 300.66115 
L 218.822386 300.622141 
L 219.565842 301.156365 
L 220.309298 300.734726 
L 221.052754 300.607965 
L 222.539666 301.972809 
L 223.283122 300.721956 
L 224.026578 300.095718 
L 225.51349 301.3376 
L 226.256945 300.540373 
L 227.000401 301.583823 
L 227.743857 299.867549 
L 228.487313 299.881812 
L 229.230769 301.63614 
L 229.974225 301.07523 
L 230.717681 301.576521 
L 231.461137 302.719345 
L 232.204593 302.197322 
L 232.948049 300.969036 
L 233.691505 302.767716 
L 234.43496 302.768472 
L 235.178416 302.387301 
L 235.921872 302.885142 
L 236.665328 304.508843 
L 237.408784 302.981474 
L 238.15224 302.378003 
L 238.895696 302.868573 
L 239.639152 301.945589 
L 240.382608 303.53366 
L 241.126064 305.672539 
L 241.869519 304.591757 
L 242.612975 304.735396 
L 244.099887 306.728806 
L 244.843343 306.466841 
L 245.586799 305.387722 
L 246.330255 301.41437 
L 247.073711 303.364375 
L 247.817167 303.478214 
L 248.560623 302.312448 
L 249.304079 304.647544 
L 250.047534 303.49073 
L 250.79099 303.42927 
L 251.534446 302.926767 
L 252.277902 304.401557 
L 253.021358 303.500982 
L 253.764814 301.711194 
L 254.50827 302.574563 
L 255.251726 302.457866 
L 255.995182 302.996628 
L 256.738638 303.754788 
L 257.482093 303.051948 
L 258.225549 301.593834 
L 258.969005 303.431367 
L 259.712461 304.473125 
L 260.455917 302.348235 
L 261.199373 303.699565 
L 261.942829 304.719336 
L 262.686285 305.378423 
L 263.429741 304.244706 
L 264.173197 303.72395 
L 264.916653 304.865467 
L 265.660108 304.811467 
L 266.403564 304.544598 
L 267.14702 305.012668 
L 267.890476 306.125048 
L 268.633932 304.089828 
L 270.120844 304.736804 
L 270.8643 304.46533 
L 271.607756 305.388268 
L 272.351212 304.964191 
L 273.094667 305.85799 
L 273.838123 304.96277 
L 274.581579 306.071243 
L 275.325035 304.982872 
L 276.068491 304.303392 
L 276.811947 304.700087 
L 277.555403 304.869518 
L 278.298859 305.465541 
L 279.042315 305.69043 
L 279.785771 306.423549 
L 280.529227 305.424652 
L 281.272682 304.640215 
L 282.016138 305.967971 
L 282.759594 305.030144 
L 283.50305 304.495547 
L 284.246506 305.050498 
L 284.989962 306.365951 
L 285.733418 307.354461 
L 286.476874 306.009986 
L 287.22033 305.185095 
L 287.963786 306.446689 
L 288.707241 306.742597 
L 289.450697 306.908095 
L 290.194153 307.205912 
L 290.937609 306.716678 
L 291.681065 306.465723 
L 292.424521 307.250818 
L 293.167977 305.966516 
L 293.911433 307.133541 
L 294.654889 306.999506 
L 295.398345 307.810378 
L 296.141801 307.76027 
L 296.885256 307.348274 
L 297.628712 306.627043 
L 298.372168 306.187656 
L 299.115624 307.163378 
L 299.85908 306.003158 
L 300.602536 306.914191 
L 301.345992 305.219779 
L 302.089448 306.084832 
L 302.832904 306.729146 
L 303.57636 306.33939 
L 304.319815 305.625715 
L 305.063271 305.788452 
L 305.806727 303.754996 
L 306.550183 304.604284 
L 307.293639 305.108306 
L 308.037095 305.22034 
L 308.780551 305.456054 
L 309.524007 304.867129 
L 310.267463 306.169381 
L 311.010919 305.500957 
L 311.754375 304.407033 
L 313.241286 306.105121 
L 313.984742 305.41704 
L 314.728198 306.252024 
L 316.21511 305.654426 
L 317.702022 307.537 
L 318.445478 307.307419 
L 319.188934 306.812737 
L 319.932389 307.431967 
L 321.419301 306.097697 
L 322.162757 306.513877 
L 322.906213 306.146319 
L 323.649669 306.763944 
L 324.393125 306.643576 
L 325.136581 306.365873 
L 325.880037 307.025428 
L 326.623493 305.974486 
L 327.366949 306.875476 
L 328.110404 305.715688 
L 331.084228 305.945948 
L 331.827684 306.601942 
L 332.57114 305.515623 
L 333.314596 305.402412 
L 334.058052 305.529993 
L 335.544963 306.1577 
L 336.288419 307.688808 
L 337.031875 306.799882 
L 337.775331 307.64764 
L 338.518787 307.166856 
L 339.262243 307.353355 
L 340.005699 307.357301 
L 340.749155 307.2386 
L 342.236067 306.446112 
L 342.979523 306.794175 
L 343.722978 307.45651 
L 344.466434 305.90455 
L 345.20989 307.612675 
L 345.953346 305.718398 
L 346.696802 307.854519 
L 348.183714 307.58833 
L 348.92717 307.166997 
L 349.670626 308.403827 
L 350.414082 306.841415 
L 351.157537 306.819057 
L 351.900993 307.612173 
L 353.387905 307.04079 
L 354.131361 308.258361 
L 354.874817 308.909033 
L 355.618273 307.51476 
L 356.361729 307.479271 
L 357.105185 307.009387 
L 357.848641 307.083615 
L 358.592097 306.458287 
L 359.335552 308.188999 
L 360.822464 307.874844 
L 361.56592 307.271676 
L 362.309376 307.805332 
L 363.052832 307.472994 
L 363.796288 307.709051 
L 364.539744 308.395819 
L 365.2832 307.121424 
L 366.026656 306.180766 
L 366.770111 307.445164 
L 367.513567 306.904082 
L 368.257023 305.498206 
L 369.000479 306.420904 
L 369.743935 305.947258 
L 370.487391 307.942988 
L 371.230847 306.302149 
L 371.974303 306.52225 
L 372.717759 308.041748 
L 373.461215 307.060601 
L 374.204671 306.85114 
L 374.948126 307.483149 
L 375.691582 308.616331 
L 376.435038 306.599749 
L 377.178494 307.532812 
L 377.92195 308.655356 
L 378.665406 306.8666 
L 379.408862 308.195464 
L 380.152318 307.706527 
L 380.895774 306.754061 
L 381.63923 307.680511 
L 382.382685 307.81597 
L 383.126141 308.388403 
L 383.869597 307.218748 
L 384.613053 307.813345 
L 385.356509 306.706321 
L 386.099965 309.060569 
L 386.843421 306.831902 
L 387.586877 307.435578 
L 388.330333 308.507358 
L 389.817245 307.393797 
L 390.5607 307.470303 
L 391.304156 306.643711 
L 392.791068 306.99848 
L 394.27798 307.787746 
L 395.021436 306.869823 
L 395.764892 308.538119 
L 396.508348 308.023592 
L 397.995259 307.376529 
L 398.738715 307.961399 
L 399.482171 307.713392 
L 400.225627 308.423873 
L 400.969083 307.425434 
L 401.712539 307.657119 
L 402.455995 308.114886 
L 403.199451 307.799775 
L 403.942907 307.356685 
L 404.686363 307.17915 
L 405.429819 309.177718 
L 406.173274 308.175201 
L 406.91673 307.748627 
L 408.403642 308.522746 
L 409.147098 309.173037 
L 409.890554 307.942251 
L 410.63401 307.26741 
L 411.377466 308.439117 
L 412.120922 308.107669 
L 413.607833 307.685084 
L 414.351289 308.420603 
L 415.838201 308.717225 
L 416.581657 307.905252 
L 417.325113 309.198674 
L 418.068569 308.834318 
L 418.812025 308.649376 
L 419.555481 309.943399 
L 420.298937 308.765334 
L 421.042393 309.573244 
L 421.785848 308.312892 
L 422.529304 308.897011 
L 423.27276 309.26482 
L 424.016216 308.581557 
L 424.759672 307.723772 
L 425.503128 307.773379 
L 426.246584 308.21151 
L 426.99004 309.039158 
L 428.476952 308.29848 
L 429.220407 308.699801 
L 429.963863 307.535405 
L 430.707319 307.73589 
L 431.450775 307.584165 
L 431.450775 307.584165 
" clip-path="url(#p45ac5385be)" style="fill: none; stroke: #1f77b4; stroke-width: 1.5; stroke-linecap: square"/>
   </g>
   <g id="line2d_98">
    <path d="M 60.466279 222.649898 
L 61.209735 235.064612 
L 61.953191 241.427908 
L 62.696646 252.787824 
L 63.440102 253.665297 
L 64.183558 254.223833 
L 64.927014 254.596294 
L 65.67047 254.798713 
L 66.413926 255.358737 
L 67.157382 255.608071 
L 68.644294 262.057727 
L 69.38775 263.262019 
L 70.131205 263.864676 
L 70.874661 264.19274 
L 73.105029 264.756271 
L 73.848485 264.492289 
L 74.591941 264.665587 
L 75.335397 269.708785 
L 77.565765 270.1187 
L 78.30922 270.049651 
L 79.796132 270.395456 
L 82.0265 270.612516 
L 82.769956 273.864307 
L 83.513412 274.217722 
L 84.256868 274.096991 
L 85.000324 274.70864 
L 85.743779 275.023095 
L 86.487235 273.533041 
L 87.230691 275.394478 
L 87.974147 274.515787 
L 88.717603 275.352313 
L 89.461059 272.465898 
L 90.204515 278.772525 
L 90.947971 278.952389 
L 91.691427 279.470957 
L 92.434883 279.726487 
L 93.921794 280.603629 
L 94.66525 280.831343 
L 95.408706 281.416561 
L 96.152162 281.495658 
L 96.895618 281.868574 
L 97.639074 282.876721 
L 98.38253 281.906925 
L 99.125986 284.888535 
L 99.869442 284.776352 
L 101.356353 285.649482 
L 102.099809 285.85705 
L 102.843265 283.116309 
L 103.586721 286.014087 
L 104.330177 283.223475 
L 105.073633 287.582438 
L 105.817089 287.65022 
L 106.560545 288.007379 
L 107.304001 288.145986 
L 108.047457 287.592639 
L 108.790913 288.362899 
L 109.534368 288.322304 
L 110.277824 288.594179 
L 111.02128 288.075151 
L 111.764736 288.056172 
L 112.508192 286.689956 
L 113.251648 289.527729 
L 113.995104 282.586427 
L 114.73856 289.5067 
L 115.482016 289.849937 
L 116.225472 289.602972 
L 116.968927 288.907619 
L 117.712383 289.713012 
L 118.455839 289.601223 
L 119.199295 290.043385 
L 119.942751 291.806318 
L 120.686207 292.017216 
L 121.429663 291.961211 
L 122.173119 290.384036 
L 123.660031 292.56506 
L 124.403487 290.574169 
L 125.146942 292.07638 
L 125.890398 292.001102 
L 126.633854 292.30422 
L 127.37731 293.053512 
L 128.120766 274.95406 
L 128.864222 293.10981 
L 129.607678 293.385897 
L 130.351134 293.337515 
L 131.09459 288.980669 
L 131.838046 293.120485 
L 132.581501 293.156374 
L 133.324957 293.306904 
L 134.068413 293.09573 
L 134.811869 294.562672 
L 135.555325 294.956177 
L 137.042237 295.057953 
L 137.785693 293.108445 
L 138.529149 294.771556 
L 139.272605 295.037056 
L 140.016061 295.055018 
L 140.759516 292.455309 
L 141.502972 295.016198 
L 142.246428 296.113613 
L 142.989884 296.102459 
L 143.73334 293.944474 
L 144.476796 295.654658 
L 145.220252 295.945659 
L 145.963708 295.234936 
L 146.707164 296.003339 
L 147.45062 288.344202 
L 148.194075 295.307593 
L 148.937531 292.530908 
L 149.680987 296.356307 
L 150.424443 296.07549 
L 151.167899 296.256577 
L 151.911355 295.105447 
L 152.654811 295.88664 
L 153.398267 295.520651 
L 154.141723 294.533265 
L 154.885179 295.795222 
L 155.628635 295.506273 
L 156.37209 295.861958 
L 157.115546 294.539717 
L 157.859002 297.59816 
L 158.602458 296.421698 
L 159.345914 296.548537 
L 160.08937 297.043015 
L 161.576282 297.350251 
L 162.319738 296.817133 
L 163.063194 297.305795 
L 163.806649 297.166366 
L 164.550105 298.351971 
L 166.037017 298.871707 
L 166.780473 296.035513 
L 167.523929 297.644714 
L 168.267385 298.651162 
L 169.010841 298.461226 
L 169.754297 297.825855 
L 170.497753 298.589236 
L 171.241209 298.956136 
L 171.984664 300.52254 
L 172.72812 299.908432 
L 173.471576 297.316535 
L 174.215032 299.978598 
L 174.958488 297.969055 
L 175.701944 299.939552 
L 177.188856 300.01412 
L 177.932312 295.338369 
L 178.675768 288.132433 
L 179.419223 299.900662 
L 180.162679 299.218974 
L 180.906135 299.08439 
L 181.649591 299.095007 
L 182.393047 299.458825 
L 183.136503 297.666714 
L 183.879959 298.397579 
L 184.623415 295.040539 
L 185.366871 286.4542 
L 186.110327 298.385963 
L 186.853783 300.875293 
L 187.597238 299.160388 
L 188.340694 300.509616 
L 189.08415 301.090013 
L 189.827606 300.813637 
L 190.571062 301.182154 
L 191.314518 301.108872 
L 192.057974 300.00581 
L 192.80143 300.842798 
L 193.544886 300.814136 
L 194.288342 300.996145 
L 195.031797 301.311587 
L 195.775253 301.390925 
L 197.262165 301.401533 
L 198.005621 300.754304 
L 198.749077 301.38035 
L 199.492533 301.346492 
L 200.235989 301.120609 
L 200.979445 301.377682 
L 201.722901 300.956705 
L 202.466357 292.8441 
L 203.209812 302.015511 
L 204.696724 301.970515 
L 205.44018 301.531621 
L 206.183636 294.731389 
L 206.927092 301.379311 
L 207.670548 301.479496 
L 209.15746 302.073875 
L 209.900916 302.624427 
L 210.644371 302.096462 
L 211.387827 301.821812 
L 212.131283 302.261923 
L 212.874739 302.432226 
L 213.618195 301.246539 
L 214.361651 302.243121 
L 215.848563 302.020672 
L 216.592019 303.779243 
L 217.335475 302.440322 
L 218.078931 302.712603 
L 218.822386 303.810673 
L 219.565842 303.784843 
L 220.309298 301.722268 
L 221.052754 301.330455 
L 221.79621 303.786883 
L 222.539666 303.660456 
L 223.283122 303.124079 
L 224.026578 304.281444 
L 224.770034 304.741326 
L 225.51349 304.467467 
L 226.256945 302.251708 
L 227.000401 289.685171 
L 227.743857 297.422301 
L 228.487313 303.542762 
L 229.230769 304.304092 
L 229.974225 304.087372 
L 230.717681 303.659345 
L 231.461137 304.122427 
L 232.204593 304.118072 
L 232.948049 302.801805 
L 233.691505 302.808069 
L 234.43496 303.749654 
L 235.178416 303.752224 
L 235.921872 303.496781 
L 236.665328 303.427124 
L 237.408784 304.146105 
L 238.15224 303.876687 
L 238.895696 303.816989 
L 239.639152 302.609329 
L 240.382608 303.551473 
L 241.126064 303.931437 
L 241.869519 304.007336 
L 242.612975 303.828021 
L 243.356431 304.006263 
L 244.099887 303.772964 
L 245.586799 303.971965 
L 246.330255 305.398447 
L 247.073711 305.618695 
L 247.817167 305.574969 
L 248.560623 305.712736 
L 249.304079 305.574223 
L 250.047534 305.807156 
L 252.277902 305.724596 
L 253.021358 305.869997 
L 253.764814 305.840465 
L 254.50827 306.007939 
L 255.995182 305.945642 
L 256.738638 305.842127 
L 257.482093 305.989703 
L 258.969005 305.830504 
L 259.712461 305.769995 
L 260.455917 305.842199 
L 261.199373 306.812222 
L 261.942829 306.687805 
L 262.686285 306.873259 
L 264.916653 306.964191 
L 265.660108 306.780774 
L 266.403564 306.792423 
L 267.14702 306.674117 
L 267.890476 306.692183 
L 268.633932 307.085551 
L 269.377388 306.900715 
L 271.607756 307.061018 
L 272.351212 306.753126 
L 273.094667 306.909105 
L 273.838123 306.735414 
L 274.581579 307.056078 
L 275.325035 306.881514 
L 276.068491 307.308708 
L 276.811947 307.530316 
L 278.298859 307.553643 
L 282.759594 307.595221 
L 283.50305 307.847157 
L 287.22033 307.456009 
L 287.963786 307.660527 
L 292.424521 307.412238 
L 293.167977 307.728258 
L 293.911433 307.748825 
L 294.654889 307.554194 
L 295.398345 307.494087 
L 296.141801 307.658562 
L 298.372168 307.608382 
L 299.115624 307.812587 
L 300.602536 307.866987 
L 305.063271 307.860559 
L 305.806727 308.244855 
L 311.010919 308.4475 
L 312.49783 308.418476 
L 313.241286 309.041152 
L 314.728198 309.368938 
L 316.958566 309.512253 
L 319.932389 309.530892 
L 320.675845 309.887236 
L 322.906213 309.917151 
L 325.880037 309.91423 
L 328.110404 309.875454 
L 330.340772 309.551914 
L 334.801508 309.555861 
L 335.544963 310.079901 
L 337.775331 310.457541 
L 342.236067 310.601026 
L 342.979523 310.908611 
L 349.670626 310.905241 
L 350.414082 311.10817 
L 351.900993 310.893746 
L 356.361729 310.783024 
L 357.105185 310.751068 
L 357.848641 310.96896 
L 363.052832 310.812567 
L 364.539744 310.828983 
L 365.2832 310.929678 
L 366.770111 310.867529 
L 382.382685 310.994137 
L 386.843421 311.104546 
L 387.586877 311.556293 
L 398.738715 311.592818 
L 401.712539 311.631057 
L 402.455995 311.809683 
L 406.91673 311.736316 
L 409.147098 311.703656 
L 409.890554 311.817204 
L 413.607833 311.67375 
L 416.581657 311.644749 
L 417.325113 311.78636 
L 421.042393 311.818912 
L 424.016216 311.816128 
L 424.759672 312.109091 
L 431.450775 311.984018 
L 431.450775 311.984018 
" clip-path="url(#p45ac5385be)" style="fill: none; stroke: #ff7f0e; stroke-width: 1.5; stroke-linecap: square"/>
   </g>
   <g id="patch_9">
    <path d="M 41.917054 317.72 
L 41.917054 194.28 
" style="fill: none; stroke: #000000; stroke-width: 0.8; stroke-linejoin: miter; stroke-linecap: square"/>
   </g>
   <g id="patch_10">
    <path d="M 450 317.72 
L 450 194.28 
" style="fill: none; stroke: #000000; stroke-width: 0.8; stroke-linejoin: miter; stroke-linecap: square"/>
   </g>
   <g id="patch_11">
    <path d="M 41.917054 317.72 
L 450 317.72 
" style="fill: none; stroke: #000000; stroke-width: 0.8; stroke-linejoin: miter; stroke-linecap: square"/>
   </g>
   <g id="patch_12">
    <path d="M 41.917054 194.28 
L 450 194.28 
" style="fill: none; stroke: #000000; stroke-width: 0.8; stroke-linejoin: miter; stroke-linecap: square"/>
   </g>
   <g id="text_27">
    <!-- adjoint model loss -->
    <g transform="translate(191.226339 188.28)scale(0.12 -0.12)">
     <defs>
      <path id="DejaVuSans-6a" d="M 603 3500 
L 1178 3500 
L 1178 -63 
Q 1178 -731 923 -1031 
Q 669 -1331 103 -1331 
L -116 -1331 
L -116 -844 
L 38 -844 
Q 366 -844 484 -692 
Q 603 -541 603 -63 
L 603 3500 
z
M 603 4863 
L 1178 4863 
L 1178 4134 
L 603 4134 
L 603 4863 
z
" transform="scale(0.015625)"/>
     </defs>
     <use xlink:href="#DejaVuSans-61"/>
     <use xlink:href="#DejaVuSans-64" x="61.279297"/>
     <use xlink:href="#DejaVuSans-6a" x="124.755859"/>
     <use xlink:href="#DejaVuSans-6f" x="152.539062"/>
     <use xlink:href="#DejaVuSans-69" x="213.720703"/>
     <use xlink:href="#DejaVuSans-6e" x="241.503906"/>
     <use xlink:href="#DejaVuSans-74" x="304.882812"/>
     <use xlink:href="#DejaVuSans-20" x="344.091797"/>
     <use xlink:href="#DejaVuSans-6d" x="375.878906"/>
     <use xlink:href="#DejaVuSans-6f" x="473.291016"/>
     <use xlink:href="#DejaVuSans-64" x="534.472656"/>
     <use xlink:href="#DejaVuSans-65" x="597.949219"/>
     <use xlink:href="#DejaVuSans-6c" x="659.472656"/>
     <use xlink:href="#DejaVuSans-20" x="687.255859"/>
     <use xlink:href="#DejaVuSans-6c" x="719.042969"/>
     <use xlink:href="#DejaVuSans-6f" x="746.826172"/>
     <use xlink:href="#DejaVuSans-73" x="808.007812"/>
     <use xlink:href="#DejaVuSans-73" x="860.107422"/>
    </g>
   </g>
   <g id="legend_2">
    <g id="patch_13">
     <path d="M 365.23125 231.63625 
L 443 231.63625 
Q 445 231.63625 445 229.63625 
L 445 201.28 
Q 445 199.28 443 199.28 
L 365.23125 199.28 
Q 363.23125 199.28 363.23125 201.28 
L 363.23125 229.63625 
Q 363.23125 231.63625 365.23125 231.63625 
z
" style="fill: #ffffff; opacity: 0.8; stroke: #cccccc; stroke-linejoin: miter"/>
    </g>
    <g id="line2d_99">
     <path d="M 367.23125 207.378438 
L 377.23125 207.378438 
L 387.23125 207.378438 
" style="fill: none; stroke: #1f77b4; stroke-width: 1.5; stroke-linecap: square"/>
    </g>
    <g id="text_28">
     <!-- train loss -->
     <g transform="translate(395.23125 210.878438)scale(0.1 -0.1)">
      <use xlink:href="#DejaVuSans-74"/>
      <use xlink:href="#DejaVuSans-72" x="39.208984"/>
      <use xlink:href="#DejaVuSans-61" x="80.322266"/>
      <use xlink:href="#DejaVuSans-69" x="141.601562"/>
      <use xlink:href="#DejaVuSans-6e" x="169.384766"/>
      <use xlink:href="#DejaVuSans-20" x="232.763672"/>
      <use xlink:href="#DejaVuSans-6c" x="264.550781"/>
      <use xlink:href="#DejaVuSans-6f" x="292.333984"/>
      <use xlink:href="#DejaVuSans-73" x="353.515625"/>
      <use xlink:href="#DejaVuSans-73" x="405.615234"/>
     </g>
    </g>
    <g id="line2d_100">
     <path d="M 367.23125 222.056563 
L 377.23125 222.056563 
L 387.23125 222.056563 
" style="fill: none; stroke: #ff7f0e; stroke-width: 1.5; stroke-linecap: square"/>
    </g>
    <g id="text_29">
     <!-- val loss -->
     <g transform="translate(395.23125 225.556563)scale(0.1 -0.1)">
      <use xlink:href="#DejaVuSans-76"/>
      <use xlink:href="#DejaVuSans-61" x="59.179688"/>
      <use xlink:href="#DejaVuSans-6c" x="120.458984"/>
      <use xlink:href="#DejaVuSans-20" x="148.242188"/>
      <use xlink:href="#DejaVuSans-6c" x="180.029297"/>
      <use xlink:href="#DejaVuSans-6f" x="207.8125"/>
      <use xlink:href="#DejaVuSans-73" x="268.994141"/>
      <use xlink:href="#DejaVuSans-73" x="321.09375"/>
     </g>
    </g>
   </g>
  </g>
 </g>
 <defs>
  <clipPath id="p4c9425f6f8">
   <rect x="41.917054" y="26.88" width="408.082946" height="123.44"/>
  </clipPath>
  <clipPath id="p45ac5385be">
   <rect x="41.917054" y="194.28" width="408.082946" height="123.44"/>
  </clipPath>
 </defs>
</svg>
